<?xml version="1.0" encoding="utf-8"?>
<!-- Generator: Adobe Illustrator 27.3.1, SVG Export Plug-In . SVG Version: 6.00 Build 0)  -->
<svg version="1.1" id="Layer_1" xmlns="http://www.w3.org/2000/svg" xmlns:xlink="http://www.w3.org/1999/xlink" x="0px" y="0px"
	 viewBox="0 0 1190.55 841.89" style="enable-background:new 0 0 1190.55 841.89;" xml:space="preserve">
<style type="text/css">
	.st0{fill:none;stroke:#020203;stroke-miterlimit:10;}
	.st1{fill:none;stroke:#000000;stroke-miterlimit:10;}
	.st2{fill:none;stroke:#009FE3;stroke-miterlimit:10;}
	.st3{fill:none;stroke:#E30613;stroke-miterlimit:10;}
	.st4{fill:none;stroke:#312783;stroke-miterlimit:10;}
	.st5{fill:none;stroke:#E52421;stroke-miterlimit:10;}
	.st6{font-family:'MyriadPro-Regular';}
	.st7{font-size:12px;}
	.st8{fill:#020203;}
	.st9{font-size:48.0886px;}
</style>
<path class="st0" d="M37.24,363.7"/>
<path class="st0" d="M604.17,363.7"/>
<path class="st1" d="M37.3,51.5"/>
<path class="st1" d="M37.3,363.31"/>
<path class="st0" d="M36.91,51.97"/>
<path class="st0" d="M603.84,51.97"/>
<path class="st1" d="M603.36,51.5"/>
<path class="st1" d="M603.36,363.31"/>
<path class="st2" d="M36.93,349.61"/>
<path class="st2" d="M51.11,349.61"/>
<line class="st3" x1="306.24" y1="349.6" x2="51.12" y2="349.6"/>
<line class="st2" x1="320.4" y1="349.59" x2="306.23" y2="349.59"/>
<line class="st4" x1="334.58" y1="349.59" x2="320.41" y2="349.59"/>
<line class="st3" x1="589.7" y1="349.6" x2="334.58" y2="349.6"/>
<path class="st4" d="M589.68,349.65"/>
<path class="st4" d="M603.85,349.65"/>
<path class="st2" d="M36.82,67.07"/>
<path class="st2" d="M50.99,67.07"/>
<line class="st3" x1="306.09" y1="67.06" x2="50.97" y2="67.06"/>
<line class="st2" x1="320.29" y1="67.06" x2="306.11" y2="67.06"/>
<line class="st4" x1="334.47" y1="67.06" x2="320.29" y2="67.06"/>
<line class="st3" x1="589.59" y1="67.07" x2="334.47" y2="67.07"/>
<path class="st4" d="M589.56,67.12"/>
<path class="st4" d="M603.74,67.12"/>
<path class="st2" d="M51.83,66.68"/>
<line class="st2" x1="51.17" y1="350.07" x2="51.17" y2="364.24"/>
<line class="st2" x1="603.9" y1="108.86" x2="589.73" y2="108.86"/>
<line class="st2" x1="51.22" y1="349.86" x2="51.22" y2="66.4"/>
<line class="st2" x1="589.58" y1="350.75" x2="589.58" y2="67.29"/>
<path class="st2" d="M320.18,67.29"/>
<path class="st2" d="M320.18,350.75"/>
<path class="st2" d="M306.23,66.45"/>
<path class="st2" d="M306.23,349.92"/>
<path class="st2" d="M333.73,66.45"/>
<path class="st2" d="M333.73,349.92"/>
<g>
	<line class="st5" x1="37.02" y1="165.4" x2="37.02" y2="108.71"/>
	<line class="st2" x1="36.72" y1="109" x2="50.9" y2="109"/>
	<line class="st2" x1="36.72" y1="165.72" x2="50.9" y2="165.72"/>
</g>
<g>
	<line class="st5" x1="37.62" y1="306.73" x2="37.62" y2="250.03"/>
	<line class="st2" x1="37.32" y1="250.33" x2="51.49" y2="250.33"/>
	<line class="st2" x1="37.32" y1="307.04" x2="51.49" y2="307.04"/>
</g>
<g>
	<line class="st5" x1="603.6" y1="165.4" x2="603.6" y2="108.71"/>
	<path class="st2" d="M589.72,109"/>
	<line class="st2" x1="603.9" y1="165.72" x2="589.72" y2="165.72"/>
</g>
<g>
	<line class="st5" x1="604.19" y1="306.73" x2="604.19" y2="250.03"/>
	<line class="st2" x1="604.49" y1="250.33" x2="590.32" y2="250.33"/>
	<line class="st2" x1="589.72" y1="307.04" x2="590.32" y2="307.04"/>
</g>
<text transform="matrix(1 0 0 1 171.1174 137.0984)" class="st6 st7">bottom 1</text>
<g>
	<line class="st5" x1="437.45" y1="52.88" x2="494.15" y2="52.62"/>
	<line class="st2" x1="493.85" y1="52.32" x2="493.91" y2="66.49"/>
	<line class="st2" x1="437.13" y1="52.58" x2="437.2" y2="66.75"/>
</g>
<g>
	<line class="st5" x1="150.52" y1="52.62" x2="207.22" y2="52.36"/>
	<line class="st2" x1="206.92" y1="52.06" x2="206.99" y2="66.23"/>
	<line class="st2" x1="150.21" y1="52.32" x2="150.27" y2="66.49"/>
</g>
<line class="st2" x1="603.8" y1="306.55" x2="589.63" y2="306.55"/>
<line class="st5" x1="437.45" y1="362.93" x2="494.15" y2="363.19"/>
<line class="st2" x1="493.85" y1="363.49" x2="493.91" y2="349.32"/>
<line class="st2" x1="437.13" y1="363.23" x2="437.2" y2="349.06"/>
<line class="st5" x1="150.52" y1="363.19" x2="207.22" y2="363.45"/>
<line class="st2" x1="206.92" y1="363.75" x2="206.99" y2="349.58"/>
<line class="st2" x1="150.21" y1="363.49" x2="150.27" y2="349.32"/>
<path class="st0" d="M54.7,729.1"/>
<path class="st0" d="M621.63,729.1"/>
<path class="st1" d="M54.76,416.9"/>
<path class="st1" d="M54.76,728.71"/>
<path class="st0" d="M54.36,417.37"/>
<path class="st0" d="M621.29,417.37"/>
<path class="st1" d="M620.81,416.9"/>
<path class="st1" d="M620.81,728.71"/>
<path class="st2" d="M54.39,715"/>
<path class="st2" d="M68.56,715"/>
<line class="st3" x1="323.69" y1="715" x2="68.58" y2="715"/>
<line class="st2" x1="337.86" y1="714.99" x2="323.69" y2="714.99"/>
<line class="st4" x1="352.04" y1="714.99" x2="337.86" y2="714.99"/>
<line class="st3" x1="607.16" y1="715" x2="352.04" y2="715"/>
<path class="st4" d="M607.13,715.05"/>
<path class="st4" d="M621.31,715.05"/>
<path class="st2" d="M54.27,432.47"/>
<path class="st2" d="M68.45,432.47"/>
<line class="st3" x1="323.54" y1="432.46" x2="68.42" y2="432.46"/>
<line class="st2" x1="337.74" y1="432.46" x2="323.57" y2="432.46"/>
<line class="st4" x1="351.92" y1="432.46" x2="337.75" y2="432.46"/>
<line class="st3" x1="607.04" y1="432.46" x2="351.92" y2="432.46"/>
<path class="st4" d="M607.02,432.51"/>
<path class="st4" d="M621.19,432.51"/>
<path class="st2" d="M69.28,432.08"/>
<line class="st2" x1="68.63" y1="715.47" x2="68.63" y2="729.64"/>
<line class="st2" x1="621.35" y1="474.25" x2="607.18" y2="474.25"/>
<line class="st2" x1="68.68" y1="715.26" x2="68.68" y2="431.79"/>
<line class="st2" x1="607.03" y1="716.15" x2="607.03" y2="432.69"/>
<path class="st2" d="M337.63,432.69"/>
<path class="st2" d="M337.63,716.15"/>
<path class="st2" d="M323.69,431.85"/>
<path class="st2" d="M323.69,715.32"/>
<path class="st2" d="M351.19,431.85"/>
<path class="st2" d="M351.19,715.32"/>
<g>
	<line class="st5" x1="54.48" y1="530.8" x2="54.48" y2="474.11"/>
	<line class="st2" x1="54.18" y1="474.4" x2="68.35" y2="474.4"/>
	<line class="st2" x1="54.18" y1="531.12" x2="68.35" y2="531.12"/>
</g>
<g>
	<line class="st5" x1="55.07" y1="672.12" x2="55.07" y2="615.43"/>
	<line class="st2" x1="54.77" y1="615.73" x2="68.94" y2="615.73"/>
	<line class="st2" x1="54.77" y1="672.44" x2="68.94" y2="672.44"/>
</g>
<g>
	<line class="st5" x1="621.05" y1="530.8" x2="621.05" y2="474.11"/>
	<path class="st2" d="M607.18,474.4"/>
	<line class="st2" x1="621.35" y1="531.12" x2="607.18" y2="531.12"/>
</g>
<g>
	<line class="st5" x1="621.64" y1="672.12" x2="621.64" y2="615.43"/>
	<line class="st2" x1="621.94" y1="615.73" x2="607.77" y2="615.73"/>
	<line class="st2" x1="607.18" y1="672.44" x2="607.77" y2="672.44"/>
</g>
<text transform="matrix(1 0 0 1 188.5727 502.4969)" class="st6 st7">bottom 2</text>
<g>
	<line class="st5" x1="454.91" y1="418.28" x2="511.6" y2="418.02"/>
	<line class="st2" x1="511.3" y1="417.72" x2="511.37" y2="431.89"/>
	<line class="st2" x1="454.59" y1="417.98" x2="454.65" y2="432.15"/>
</g>
<g>
	<line class="st5" x1="167.98" y1="418.02" x2="224.67" y2="417.76"/>
	<line class="st2" x1="224.38" y1="417.46" x2="224.44" y2="431.63"/>
	<line class="st2" x1="167.66" y1="417.72" x2="167.73" y2="431.89"/>
</g>
<line class="st2" x1="621.26" y1="671.95" x2="607.08" y2="671.95"/>
<line class="st5" x1="454.91" y1="728.33" x2="511.6" y2="728.59"/>
<line class="st2" x1="511.3" y1="728.89" x2="511.37" y2="714.72"/>
<line class="st2" x1="454.59" y1="728.63" x2="454.65" y2="714.46"/>
<line class="st5" x1="167.98" y1="728.59" x2="224.67" y2="728.85"/>
<line class="st2" x1="224.38" y1="729.15" x2="224.44" y2="714.98"/>
<line class="st2" x1="167.66" y1="728.89" x2="167.73" y2="714.72"/>
<g>
	<g>
		<line class="st0" x1="970.32" y1="686.85" x2="970.27" y2="672.68"/>
		<line class="st0" x1="984.84" y1="686.41" x2="970.66" y2="686.47"/>
		<line class="st0" x1="984.66" y1="686.59" x2="984.61" y2="672.41"/>
	</g>
	<g>
		<line class="st0" x1="968.04" y1="91.79" x2="968.09" y2="105.97"/>
		<line class="st0" x1="982.55" y1="92.11" x2="968.38" y2="92.17"/>
		<line class="st0" x1="982.38" y1="91.94" x2="982.44" y2="106.11"/>
	</g>
	<g>
		<line class="st0" x1="670.75" y1="107.18" x2="673.02" y2="674.1"/>
		<g>
			<line class="st0" x1="982.48" y1="105.59" x2="984.75" y2="672.52"/>
			<line class="st1" x1="984.36" y1="672.46" x2="672.55" y2="673.71"/>
			<line class="st1" x1="982.09" y1="106.41" x2="670.28" y2="107.66"/>
		</g>
	</g>
	<text transform="matrix(-4.009674e-03 -1 1 -4.009674e-03 831.1797 370.6063)" class="st8 st6 st9">LID</text>
</g>
</svg>
