<?xml version="1.0" encoding="utf-8"?>
<!-- Generator: Adobe Illustrator 27.3.1, SVG Export Plug-In . SVG Version: 6.00 Build 0)  -->
<svg version="1.1" xmlns="http://www.w3.org/2000/svg" xmlns:xlink="http://www.w3.org/1999/xlink" x="0px" y="0px"
	 viewBox="0 0 1190.55 841.89" style="enable-background:new 0 0 1190.55 841.89;" xml:space="preserve">
<style type="text/css">
	.st0{fill:none;stroke:#020203;stroke-miterlimit:10;}
	.st1{fill:none;stroke:#000000;stroke-miterlimit:10;}
	.st2{fill:none;stroke:#009FE3;stroke-miterlimit:10;}
	.st3{fill:none;stroke:#E30613;stroke-miterlimit:10;}
	.st4{fill:none;stroke:#312783;stroke-miterlimit:10;}
	.st5{fill:none;stroke:#E52421;stroke-miterlimit:10;}
	.st6{font-family:'MyriadPro-Regular';}
	.st7{font-size:12px;}
	.st8{fill:#020203;}
	.st9{font-size:48.0886px;}
</style>
<g id="Layer_2">
</g>
<g id="Layer_1">
	<line class="st0" x1="578.94" y1="663.78" x2="12.01" y2="663.78"/>
	<line class="st1" x1="12.07" y1="663.39" x2="12.07" y2="351.58"/>
	<line class="st0" x1="578.6" y1="352.06" x2="11.67" y2="352.06"/>
	<line class="st1" x1="578.12" y1="663.39" x2="578.12" y2="351.58"/>
	<line class="st2" x1="25.87" y1="649.69" x2="11.7" y2="649.69"/>
	<line class="st3" x1="281.01" y1="649.68" x2="25.89" y2="649.68"/>
	<line class="st2" x1="295.17" y1="649.68" x2="281" y2="649.68"/>
	<line class="st4" x1="309.35" y1="649.68" x2="295.18" y2="649.68"/>
	<line class="st3" x1="564.47" y1="649.68" x2="309.35" y2="649.68"/>
	<line class="st4" x1="578.62" y1="649.73" x2="564.45" y2="649.73"/>
	<line class="st2" x1="25.76" y1="367.16" x2="11.59" y2="367.16"/>
	<line class="st3" x1="280.85" y1="367.15" x2="25.74" y2="367.15"/>
	<line class="st2" x1="295.05" y1="367.15" x2="280.88" y2="367.15"/>
	<line class="st4" x1="309.23" y1="367.15" x2="295.06" y2="367.15"/>
	<line class="st3" x1="564.35" y1="367.15" x2="309.24" y2="367.15"/>
	<line class="st4" x1="578.5" y1="367.2" x2="564.33" y2="367.2"/>
	<line class="st2" x1="26.59" y1="352.59" x2="26.59" y2="366.77"/>
	<line class="st2" x1="25.94" y1="650.15" x2="25.94" y2="664.33"/>
	<line class="st2" x1="578.67" y1="513.46" x2="564.49" y2="513.46"/>
	<line class="st2" x1="25.99" y1="649.94" x2="25.99" y2="366.48"/>
	<line class="st2" x1="564.34" y1="650.84" x2="564.34" y2="367.37"/>
	<line class="st2" x1="294.95" y1="650.84" x2="294.95" y2="367.37"/>
	<line class="st2" x1="281" y1="650" x2="281" y2="366.54"/>
	<line class="st2" x1="308.5" y1="650" x2="308.5" y2="366.54"/>
	<g>
		<line class="st5" x1="25.36" y1="465.49" x2="25.36" y2="408.79"/>
		<line class="st2" x1="25.66" y1="409.09" x2="11.49" y2="409.09"/>
		<line class="st2" x1="25.66" y1="465.8" x2="11.49" y2="465.8"/>
	</g>
	<g>
		<line class="st5" x1="25.96" y1="606.81" x2="25.96" y2="550.12"/>
		<line class="st2" x1="26.26" y1="550.41" x2="12.08" y2="550.41"/>
		<line class="st2" x1="26.26" y1="607.13" x2="12.08" y2="607.13"/>
	</g>
	<g>
		<line class="st5" x1="565.38" y1="465.49" x2="565.38" y2="408.79"/>
		<line class="st2" x1="565.08" y1="409.09" x2="579.26" y2="409.09"/>
		<line class="st2" x1="565.08" y1="465.8" x2="579.26" y2="465.8"/>
	</g>
	<g>
		<line class="st5" x1="564.79" y1="606.81" x2="564.79" y2="550.12"/>
		<line class="st2" x1="564.49" y1="550.41" x2="578.66" y2="550.41"/>
		<line class="st2" x1="564.49" y1="607.13" x2="578.66" y2="607.13"/>
	</g>
	<g>
		<line class="st5" x1="181.46" y1="497.32" x2="124.76" y2="497.63"/>
		<line class="st2" x1="125.06" y1="497.32" x2="125.13" y2="511.5"/>
		<line class="st2" x1="181.77" y1="497.02" x2="181.85" y2="511.19"/>
		<line class="st5" x1="181.46" y1="511.32" x2="124.76" y2="511.63"/>
	</g>
	<g>
		<line class="st5" x1="468.38" y1="497.07" x2="411.68" y2="497.37"/>
		<line class="st2" x1="411.98" y1="497.07" x2="412.05" y2="511.25"/>
		<line class="st2" x1="468.69" y1="496.77" x2="468.77" y2="510.94"/>
		<line class="st5" x1="468.38" y1="511.07" x2="411.68" y2="511.37"/>
	</g>
	<text transform="matrix(1 0 0 1 121.3361 686.0881)" class="st6 st7">back</text>
	<line class="st5" x1="631.04" y1="100.16" x2="942.85" y2="100.16"/>
	<line class="st5" x1="645.17" y1="412.73" x2="645.17" y2="100.92"/>
	<line class="st5" x1="929.16" y1="411.76" x2="929.16" y2="99.95"/>
	<line class="st5" x1="645.23" y1="412.18" x2="957.04" y2="412.18"/>
	<text transform="matrix(1 0 0 1 768.3739 68.2732)" class="st8 st6 st9">left</text>
	<g>
		<line class="st5" x1="631.72" y1="217.86" x2="631.72" y2="161.16"/>
		<line class="st2" x1="631.42" y1="161.46" x2="645.59" y2="161.46"/>
		<line class="st2" x1="631.42" y1="218.17" x2="645.59" y2="218.17"/>
	</g>
	<g>
		<line class="st5" x1="631.72" y1="362.86" x2="631.72" y2="306.16"/>
		<line class="st2" x1="631.42" y1="306.46" x2="645.59" y2="306.46"/>
		<line class="st2" x1="631.42" y1="363.17" x2="645.59" y2="363.17"/>
	</g>
	<g>
		<line class="st5" x1="943.29" y1="217.86" x2="943.29" y2="161.16"/>
		<line class="st2" x1="943.59" y1="161.46" x2="929.42" y2="161.46"/>
		<line class="st2" x1="943.59" y1="218.17" x2="929.42" y2="218.17"/>
	</g>
	<g>
		<line class="st5" x1="943.29" y1="362.86" x2="943.29" y2="306.16"/>
		<line class="st2" x1="943.59" y1="306.46" x2="929.42" y2="306.46"/>
		<line class="st2" x1="943.59" y1="363.17" x2="929.42" y2="363.17"/>
	</g>
	<circle class="st5" cx="641.66" cy="93.92" r="19.77"/>
	<path class="st5" d="M648.83,99.92l-13.7-0.09c0,0-2.61-11.94,6.28-12.1C650.33,87.57,648.83,99.92,648.83,99.92z"/>
	<g>
		<line class="st5" x1="818.12" y1="254.23" x2="761.43" y2="254.54"/>
		<line class="st2" x1="761.72" y1="254.23" x2="761.8" y2="268.41"/>
		<line class="st2" x1="818.44" y1="253.93" x2="818.51" y2="268.1"/>
		<line class="st5" x1="818.12" y1="268.23" x2="761.43" y2="268.54"/>
	</g>
	<line class="st5" x1="927.13" y1="448.63" x2="615.32" y2="448.63"/>
	<line class="st5" x1="912.99" y1="761.2" x2="912.99" y2="449.39"/>
	<line class="st5" x1="629.01" y1="760.24" x2="629.01" y2="448.43"/>
	<line class="st5" x1="912.94" y1="760.65" x2="601.13" y2="760.65"/>
	<text transform="matrix(1 0 0 1 1008.4061 506.9608)" class="st8 st6 st9">right</text>
	<g>
		<line class="st5" x1="926.45" y1="566.33" x2="926.45" y2="509.64"/>
		<line class="st2" x1="926.75" y1="509.93" x2="912.57" y2="509.93"/>
		<line class="st2" x1="926.75" y1="566.65" x2="912.57" y2="566.65"/>
	</g>
	<g>
		<line class="st5" x1="926.45" y1="711.33" x2="926.45" y2="654.64"/>
		<line class="st2" x1="926.75" y1="654.93" x2="912.57" y2="654.93"/>
		<line class="st2" x1="926.75" y1="711.65" x2="912.57" y2="711.65"/>
	</g>
	<g>
		<line class="st5" x1="614.87" y1="566.33" x2="614.87" y2="509.64"/>
		<line class="st2" x1="614.57" y1="509.93" x2="628.75" y2="509.93"/>
		<line class="st2" x1="614.57" y1="566.65" x2="628.75" y2="566.65"/>
	</g>
	<g>
		<line class="st5" x1="614.87" y1="711.33" x2="614.87" y2="654.64"/>
		<line class="st2" x1="614.57" y1="654.93" x2="628.75" y2="654.93"/>
		<line class="st2" x1="614.57" y1="711.65" x2="628.75" y2="711.65"/>
	</g>
	<circle class="st5" cx="916.51" cy="442.4" r="19.77"/>
	<line class="st5" x1="875.36" y1="432.87" x2="954.44" y2="432.87"/>
	<path class="st5" d="M909.33,448.39l13.7-0.09c0,0,2.61-11.94-6.28-12.1C907.84,436.04,909.33,448.39,909.33,448.39z"/>
	<g>
		<line class="st5" x1="740.04" y1="602.7" x2="796.74" y2="603.01"/>
		<line class="st2" x1="796.44" y1="602.71" x2="796.37" y2="616.88"/>
		<line class="st2" x1="739.73" y1="602.4" x2="739.65" y2="616.57"/>
		<line class="st5" x1="740.04" y1="616.7" x2="796.74" y2="617.01"/>
	</g>
	<g>
		<path class="st0" d="M814.45,144.31c7.64-21.56,28.21-37,52.39-37c30.69,0,55.57,24.88,55.57,55.57c0,11.48-3.48,22.14-9.44,31"/>
		<path class="st0" d="M795.67,188.55c-0.09-0.22-0.19-0.43-0.28-0.64"/>
		<path class="st0" d="M779.78,170.11c-6.32-3.97-13.8-6.26-21.82-6.26c-22.71,0-41.12,18.41-41.12,41.11
			c0,22.71,18.41,41.12,41.12,41.12c9.86,0,18.91-3.47,25.99-9.26"/>
		<path class="st0" d="M783.95,236.82c6.34,14.54,20.83,24.7,37.71,24.7c19.91,0,36.51-14.15,40.3-32.94"/>
		<path class="st0" d="M796.15,188.17L796.15,188.17c-0.16,0.13-0.32,0.26-0.48,0.38"/>
		<path class="st0" d="M779.78,170.11c-0.32-1.54-0.48-3.13-0.48-4.77c0-13.18,10.68-23.87,23.86-23.87c4.08,0,7.93,1.02,11.28,2.83
			"/>
		<path class="st0" d="M796.15,188.17L796.15,188.17c-0.26-0.08-0.51-0.17-0.76-0.26"/>
		<path class="st0" d="M912.96,193.88c2.26,4.3,3.53,9.19,3.53,14.39c0,17.15-13.9,31.04-31.04,31.04
			c-9.38,0-17.79-4.16-23.49-10.74"/>
	</g>
	<g>
		<path class="st0" d="M908.46,255.73c4.07,1.68,7.7,4.56,10.32,8.51c7,10.56,4.13,24.79-6.43,31.79
			c-8.31,5.52-18.91,4.9-26.46-0.77"/>
		<path class="st0" d="M869.38,284.62c-0.02-0.09-0.03-0.19-0.05-0.28"/>
		<path class="st0" d="M854.29,270.4c-3.76-0.37-7.66,0.5-11.05,2.75c-7.81,5.18-9.94,15.71-4.76,23.53
			c5.18,7.81,15.72,9.94,23.53,4.76c2.76-1.83,4.81-4.32,6.07-7.13"/>
		<path class="st0" d="M883,255.44c-5.59-5.6-14.53-6.68-21.38-2.13c-5.8,3.85-8.47,10.66-7.33,17.1"/>
		<path class="st0" d="M869.33,284.33c0.08,0.01,0.17,0.02,0.25,0.02l0,0"/>
		<path class="st0" d="M885.89,295.26c-0.74,1.39-1.83,2.62-3.23,3.55c-4.53,3.01-10.64,1.77-13.65-2.76
			c-0.37-0.56-0.68-1.14-0.92-1.75"/>
		<path class="st0" d="M869.38,284.62c0.07-0.09,0.13-0.17,0.2-0.26l0,0"/>
		<path class="st0" d="M883,255.44c0.46-3.56,2.4-6.91,5.63-9.05c5.9-3.91,13.85-2.3,17.76,3.59c1.19,1.79,1.86,3.76,2.07,5.76"/>
	</g>
	<g>
		<path class="st0" d="M733.96,334.56c5.88,4.48,10.52,10.69,13.07,18.21c6.82,20.11-3.95,41.94-24.06,48.76
			c-15.84,5.37-32.75-0.17-42.55-12.6"/>
		<path class="st0" d="M658.25,364.6c0.02-0.16,0.03-0.32,0.04-0.48"/>
		<path class="st0" d="M645.17,385.77c2.62-1.65,4.91-3.7,6.81-6.04"/>
		<path class="st0" d="M645.17,320.83c3.34-4.64,8.11-8.32,13.94-10.3c13.04-4.43,27.06,1.16,33.72,12.63"/>
		<path class="st0" d="M658.29,364.11c0.13,0.05,0.26,0.1,0.39,0.15l0,0"/>
		<path class="st0" d="M680.43,388.93c-1.8,1.93-4.09,3.45-6.76,4.36c-8.63,2.93-18.01-1.7-20.94-10.34
			c-0.36-1.07-0.61-2.15-0.75-3.23"/>
		<path class="st0" d="M658.25,364.6c0.14-0.11,0.29-0.23,0.44-0.34l0,0"/>
		<path class="st0" d="M692.83,323.16c2.27-5.58,6.86-10.17,13-12.25c11.23-3.81,23.43,2.21,27.24,13.44
			c1.15,3.4,1.41,6.89,0.88,10.21"/>
	</g>
	<g>
		<path class="st0" d="M897.05,663.07c5.96,8.86,9.44,19.52,9.44,31c0,30.69-24.88,55.57-55.57,55.57c-24.18,0-44.75-15.43-52.39-37
			"/>
		<path class="st0" d="M779.47,669.04c0.09-0.21,0.2-0.42,0.28-0.64"/>
		<path class="st0" d="M768.04,620.13c-7.08-5.79-16.13-9.26-25.99-9.26c-22.71,0-41.12,18.41-41.12,41.12
			c0,22.71,18.41,41.11,41.12,41.11c8.02,0,15.5-2.29,21.82-6.26"/>
		<path class="st0" d="M846.04,628.38c-3.79-18.8-20.39-32.94-40.3-32.94c-16.88,0-31.37,10.16-37.71,24.7"/>
		<path class="st0" d="M779.75,668.4c0.16,0.13,0.32,0.26,0.47,0.38h0.01"/>
		<path class="st0" d="M798.53,712.64c-3.36,1.81-7.2,2.83-11.28,2.83c-13.18,0-23.86-10.68-23.86-23.87c0-1.63,0.16-3.22,0.48-4.77
			"/>
		<path class="st0" d="M779.47,669.04c0.25-0.09,0.5-0.18,0.75-0.26h0.01"/>
		<path class="st0" d="M846.04,628.38c5.7-6.58,14.11-10.74,23.49-10.74c17.15,0,31.04,13.9,31.04,31.04
			c0,5.2-1.27,10.09-3.53,14.39"/>
	</g>
	<g>
		<path class="st0" d="M869.97,561.69c7.55-5.67,18.15-6.29,26.46-0.77c10.56,7,13.43,21.24,6.43,31.79
			c-2.62,3.95-6.25,6.82-10.32,8.51"/>
		<path class="st0" d="M853.42,572.62c0.02-0.09,0.03-0.19,0.05-0.28"/>
		<path class="st0" d="M852.16,562.66c-1.27-2.81-3.32-5.3-6.07-7.13c-7.81-5.18-18.34-3.05-23.53,4.76
			c-5.18,7.81-3.05,18.34,4.76,23.53c3.39,2.25,7.29,3.12,11.05,2.75"/>
		<path class="st0" d="M838.37,586.55c-1.14,6.45,1.53,13.25,7.33,17.1c6.85,4.54,15.79,3.47,21.38-2.13"/>
		<path class="st0" d="M853.67,572.6L853.67,572.6c-0.08,0.01-0.17,0.01-0.25,0.02"/>
		<path class="st0" d="M852.16,562.66c0.24-0.6,0.55-1.19,0.92-1.75c3.01-4.53,9.12-5.77,13.65-2.76c1.4,0.93,2.49,2.16,3.23,3.55"
			/>
		<path class="st0" d="M853.67,572.6L853.67,572.6c-0.07-0.09-0.14-0.17-0.2-0.26"/>
		<path class="st0" d="M892.54,601.23c-0.2,1.99-0.88,3.97-2.07,5.76c-3.91,5.9-11.86,7.51-17.76,3.59
			c-3.23-2.14-5.17-5.49-5.63-9.05"/>
	</g>
	<g>
		<path class="st0" d="M664.51,468.03c9.8-12.43,26.71-17.97,42.55-12.6c20.11,6.82,30.88,28.65,24.06,48.76
			c-2.55,7.52-7.2,13.73-13.07,18.21"/>
		<path class="st0" d="M642.37,492.84c-0.01-0.16-0.03-0.32-0.04-0.48"/>
		<path class="st0" d="M636.07,477.23c-1.9-2.34-4.19-4.39-6.81-6.04"/>
		<path class="st0" d="M676.92,533.8c-6.66,11.47-20.68,17.06-33.72,12.63c-5.83-1.98-10.6-5.66-13.94-10.3"/>
		<path class="st0" d="M642.77,492.7L642.77,492.7c-0.13,0.05-0.27,0.1-0.4,0.15"/>
		<path class="st0" d="M636.06,477.23c0.14-1.08,0.38-2.16,0.75-3.23c2.93-8.64,12.3-13.26,20.94-10.34
			c2.68,0.91,4.97,2.43,6.76,4.36"/>
		<path class="st0" d="M642.77,492.7L642.77,492.7c-0.15-0.11-0.3-0.22-0.44-0.34"/>
		<path class="st0" d="M718.04,522.4c0.52,3.32,0.27,6.81-0.88,10.21c-3.81,11.23-16,17.25-27.24,13.44
			c-6.15-2.08-10.73-6.68-13-12.25"/>
	</g>
</g>
<g id="Layer_3">
	<g>
		<line class="st5" x1="459.45" y1="322.24" x2="459.45" y2="321.95"/>
		<line class="st2" x1="446.16" y1="322.24" x2="445.58" y2="322.24"/>
		<line class="st2" x1="459.75" y1="322.24" x2="459.45" y2="322.24"/>
	</g>
	<g>
		<line class="st0" x1="574.18" y1="23.24" x2="7.25" y2="23.24"/>
		<g>
			<line class="st0" x1="574.51" y1="334.97" x2="7.58" y2="334.97"/>
			<line class="st1" x1="7.64" y1="334.57" x2="7.64" y2="22.76"/>
			<line class="st1" x1="573.7" y1="334.57" x2="573.7" y2="22.76"/>
		</g>
	</g>
	<line class="st2" x1="21.45" y1="320.87" x2="7.27" y2="320.87"/>
	<polyline class="st3" points="21.46,320.87 21.56,320.87 169.06,320.87 180.88,320.87 180.89,320.87 222.27,320.87 276.57,320.87 	
		"/>
	<line class="st2" x1="290.74" y1="320.86" x2="276.57" y2="320.86"/>
	<line class="st4" x1="304.92" y1="320.86" x2="290.75" y2="320.86"/>
	<line class="st3" x1="560.04" y1="320.86" x2="304.92" y2="320.86"/>
	<line class="st4" x1="574.19" y1="320.91" x2="560.02" y2="320.91"/>
	<line class="st2" x1="21.33" y1="38.34" x2="7.16" y2="38.34"/>
	<line class="st3" x1="276.43" y1="38.33" x2="21.31" y2="38.33"/>
	<line class="st2" x1="290.63" y1="38.33" x2="276.45" y2="38.33"/>
	<line class="st4" x1="304.81" y1="38.33" x2="290.63" y2="38.33"/>
	<line class="st3" x1="559.93" y1="38.33" x2="304.81" y2="38.33"/>
	<line class="st4" x1="574.08" y1="38.38" x2="559.9" y2="38.38"/>
	<line class="st2" x1="22.17" y1="23.77" x2="22.17" y2="37.95"/>
	<line class="st2" x1="21.51" y1="321.33" x2="21.51" y2="335.51"/>
	<line class="st2" x1="574.24" y1="184.64" x2="560.07" y2="184.64"/>
	<polyline class="st2" points="21.56,37.67 21.56,38.08 21.56,38.33 21.56,38.34 21.56,56.28 21.56,56.5 21.56,114.8 21.56,221.6 
		21.56,278.31 21.56,278.32 21.56,299.4 21.56,318.69 21.56,320.87 21.56,321.13 	"/>
	<line class="st2" x1="559.92" y1="322.02" x2="559.92" y2="38.55"/>
	<line class="st2" x1="289.77" y1="322.02" x2="289.77" y2="38.55"/>
	<polyline class="st2" points="276.57,321.19 276.57,320.87 276.57,320.86 276.57,306.32 276.57,285.88 276.57,182.83 276.57,76.5 
		276.57,38.33 276.57,37.72 	"/>
	<line class="st2" x1="304.07" y1="321.18" x2="304.07" y2="37.72"/>
	<g>
		<line class="st5" x1="20.94" y1="136.67" x2="20.94" y2="79.97"/>
		<line class="st2" x1="21.24" y1="80.27" x2="7.06" y2="80.27"/>
		<line class="st2" x1="21.24" y1="136.98" x2="7.06" y2="136.98"/>
	</g>
	<g>
		<line class="st5" x1="21.53" y1="277.99" x2="21.53" y2="221.3"/>
		<line class="st2" x1="21.83" y1="221.59" x2="7.66" y2="221.59"/>
		<line class="st2" x1="21.83" y1="278.31" x2="7.66" y2="278.31"/>
	</g>
	<g>
		<line class="st5" x1="560.96" y1="136.67" x2="560.96" y2="79.97"/>
		<line class="st2" x1="560.66" y1="80.27" x2="574.83" y2="80.27"/>
		<line class="st2" x1="560.66" y1="136.98" x2="574.83" y2="136.98"/>
	</g>
	<g>
		<line class="st5" x1="560.36" y1="277.99" x2="560.36" y2="221.3"/>
		<line class="st2" x1="560.06" y1="221.59" x2="574.24" y2="221.59"/>
		<line class="st2" x1="560.06" y1="278.31" x2="574.24" y2="278.31"/>
	</g>
	<g>
		<path class="st5" d="M123.87,168.81h0.3l21.22-0.11c0.01,0,0.01,0,0.02,0s0.01,0,0.02,0c0.01,0,0.01,0,0.02,0
			c0.01,0,0.01,0,0.02,0l35.1-0.19"/>
		<polyline class="st2" points="124.24,182.68 124.24,181.98 124.2,175.1 124.17,168.81 124.17,168.51 		"/>
		<line class="st2" x1="180.88" y1="168.2" x2="180.96" y2="182.37"/>
	</g>
	<g>
		<line class="st5" x1="453.62" y1="168.79" x2="396.93" y2="169.09"/>
		<line class="st2" x1="397.22" y1="168.79" x2="397.3" y2="182.97"/>
		<line class="st2" x1="453.93" y1="168.48" x2="454.01" y2="182.66"/>
	</g>
	<polyline class="st2" points="35.07,182.83 64.93,182.83 107.69,182.83 121.65,182.83 184.28,182.83 193.32,182.83 250.04,182.83 
		276.25,182.83 276.57,182.83 289.77,182.83 304.07,182.83 353.45,182.83 358.79,182.83 358.8,182.83 395.26,182.83 397.29,182.83 
		397.3,182.83 545.31,182.83 	"/>
	<polyline class="st2" points="545.63,306.32 397.3,306.32 397.29,306.32 304.28,306.32 304.07,306.32 289.77,306.32 276.57,306.32 
		229.58,306.32 179.23,306.32 84.16,306.32 35.4,306.32 	"/>
	<polyline class="st2" points="35.4,306.31 35.4,264.23 35.4,208.14 35.4,182.89 	"/>
	<line class="st2" x1="545.31" y1="182.82" x2="545.31" y2="306.24"/>
	<g>
		<line class="st5" x1="180.57" y1="320.66" x2="123.88" y2="320.36"/>
		<line class="st2" x1="124.17" y1="320.66" x2="124.25" y2="306.48"/>
		<line class="st2" x1="180.88" y1="320.97" x2="180.96" y2="306.79"/>
	</g>
	<g>
		<line class="st5" x1="453.62" y1="320.38" x2="396.93" y2="320.07"/>
		<line class="st2" x1="397.22" y1="320.37" x2="397.3" y2="306.2"/>
		<line class="st2" x1="453.93" y1="320.68" x2="454.01" y2="306.5"/>
	</g>
	<text transform="matrix(1 0 0 1 399.1832 14.7825)" class="st6 st7">front</text>
	<path class="st2" d="M304.07,285.73c0.07,0,0.14-0.01,0.21-0.03c0.46-0.05,0.92-0.12,1.39-0.2c0.01,0,0.02-0.01,0.03-0.01"/>
	<path class="st2" d="M395.26,182.83c0.02-0.54,0.02-1.09,0.02-1.64c0-52.54-38.41-96.12-88.69-104.17
		c-0.02-0.01-0.05-0.01-0.08-0.01c-0.81-0.14-1.63-0.25-2.44-0.36"/>
	<line class="st2" x1="185.43" y1="196.93" x2="185.43" y2="196.92"/>
	<path class="st2" d="M184.28,182.83c-0.01-0.26-0.01-0.52-0.01-0.78c-0.01-0.28-0.01-0.57-0.01-0.86c0-17.34,4.18-33.7,11.59-48.13
		c0,0,0-0.01,0-0.02c3.51-6.81,7.73-13.18,12.56-19.04l0.03-0.03c7.95-9.61,17.57-17.78,28.42-24.08
		c6.38-3.71,13.18-6.76,20.31-9.07l0.05-0.02c6.22-2.02,12.68-3.47,19.35-4.3"/>
	<path class="st2" d="M94.86,38.82c0,0,13.47,35.54,50.88,31.42s66.59,37.78,66.59,37.78l-16.46,25.06c0,0-9.35-23.19-49.38-20.2
		S24.16,96.81,22.29,68.75s-0.75-30.68-0.75-30.68L94.86,38.82z"/>
	<path class="st2" d="M35.4,208.15c-0.17-0.02-0.33-0.03-0.49-0.05"/>
	<path class="st2" d="M21.56,114.8c1.39,1.25,54.5,48.74,103.6,30.65c49.76-18.33,63.22,4.49,63.22,4.49l-3.36,14.21
		c0,0-17.57-0.5-39.55,4.55c-0.01,0-0.01,0-0.02,0c-0.01,0-0.01,0-0.02,0c-0.01,0-0.01,0-0.02,0s-0.01,0-0.02,0"/>
	<path class="st2" d="M107.69,182.83c0.52-0.3,1.04-0.59,1.56-0.86h0.01h0.01c4.91-2.67,9.92-4.94,14.93-6.87"/>
	<polyline class="st2" points="21.56,318.68 20.79,318.65 21.56,299.39 	"/>
	<line class="st2" x1="185.43" y1="196.93" x2="185.43" y2="196.92"/>
	<path class="st2" d="M35.4,264.23c-0.17,0.09-0.33,0.18-0.49,0.26"/>
	<path class="st2" d="M169.21,320.6c-0.06,0.09-0.11,0.17-0.15,0.26"/>
	<path class="st2" d="M229.28,38.33c-2.44,6.9-1.24,14.54,15.69,14.89c31.12,0.65,18.8,24.64,18.8,24.64l-6.6,2.95l-20.31,9.07
		l-3.56,1.59c0,0,20.75-23.34-22.04-29.17c-27.04-3.68-26.12-15.66-21.78-23.97"/>
	<line class="st2" x1="424.89" y1="109.73" x2="424.89" y2="109.73"/>
	<path class="st2" d="M420.61,120.4l3.29-6.02c0.49-0.91,1.79-0.91,2.29,0l3.3,6.02c0.12,0.22,0.3,0.4,0.52,0.52l6.02,3.29
		c0.91,0.49,0.91,1.79,0,2.29l-6.02,3.3c-0.22,0.12-0.4,0.3-0.52,0.52l-3.29,6.02c-0.49,0.91-1.79,0.91-2.29,0l-3.3-6.02
		c-0.12-0.22-0.3-0.4-0.52-0.52l-6.02-3.29c-0.91-0.49-0.91-1.79,0-2.29l6.02-3.3C420.31,120.8,420.49,120.61,420.61,120.4z"/>
	<line class="st2" x1="480.39" y1="225.69" x2="480.39" y2="225.69"/>
	<line class="st2" x1="409.05" y1="66.76" x2="409.05" y2="66.76"/>
	<path class="st2" d="M447.08,62.81l1.94-3.55c0.29-0.53,1.06-0.53,1.35,0l1.94,3.55c0.07,0.13,0.18,0.24,0.31,0.31l3.55,1.94
		c0.53,0.29,0.53,1.06,0,1.35l-3.55,1.94c-0.13,0.07-0.24,0.18-0.31,0.31l-1.94,3.55c-0.29,0.53-1.06,0.53-1.35,0l-1.94-3.55
		c-0.07-0.13-0.18-0.24-0.31-0.31l-3.55-1.94c-0.53-0.29-0.53-1.06,0-1.35l3.55-1.94C446.9,63.05,447.01,62.94,447.08,62.81z"/>
	<line class="st2" x1="420.83" y1="261.44" x2="420.83" y2="261.44"/>
	<line class="st2" x1="363.73" y1="55.21" x2="363.73" y2="55.21"/>
	<path class="st2" d="M361.2,61.5l1.94-3.55c0.29-0.53,1.06-0.53,1.35,0l1.94,3.55c0.07,0.13,0.18,0.24,0.31,0.31l3.55,1.94
		c0.53,0.29,0.53,1.06,0,1.35l-3.55,1.94c-0.13,0.07-0.24,0.18-0.31,0.31l-1.94,3.55c-0.29,0.53-1.06,0.53-1.35,0l-1.94-3.55
		c-0.07-0.13-0.18-0.24-0.31-0.31l-3.55-1.94c-0.53-0.29-0.53-1.06,0-1.35l3.55-1.94C361.03,61.74,361.13,61.63,361.2,61.5z"/>
	<line class="st2" x1="514.04" y1="143.56" x2="514.04" y2="143.56"/>
	<path class="st2" d="M511.52,149.85l1.94-3.55c0.29-0.53,1.06-0.53,1.35,0l1.94,3.55c0.07,0.13,0.18,0.24,0.31,0.31l3.55,1.94
		c0.53,0.29,0.53,1.06,0,1.35l-3.55,1.94c-0.13,0.07-0.24,0.18-0.31,0.31l-1.94,3.55c-0.29,0.53-1.06,0.53-1.35,0l-1.94-3.55
		c-0.07-0.13-0.18-0.24-0.31-0.31l-3.55-1.94c-0.53-0.29-0.53-1.06,0-1.35l3.55-1.94C511.34,150.09,511.45,149.98,511.52,149.85z"/>
	<line class="st2" x1="385.96" y1="96.19" x2="385.96" y2="96.19"/>
	<path class="st2" d="M384.52,99.79l1.11-2.03c0.17-0.31,0.6-0.31,0.77,0l1.11,2.03c0.04,0.07,0.1,0.13,0.17,0.17l2.03,1.11
		c0.31,0.17,0.31,0.6,0,0.77l-2.03,1.11c-0.07,0.04-0.13,0.1-0.17,0.17l-1.11,2.03c-0.17,0.31-0.6,0.31-0.77,0l-1.11-2.03
		c-0.04-0.07-0.1-0.13-0.17-0.17l-2.03-1.11c-0.31-0.17-0.31-0.6,0-0.77l2.03-1.11C384.42,99.92,384.48,99.86,384.52,99.79z"/>
	<line class="st2" x1="511.22" y1="60.41" x2="511.22" y2="60.41"/>
	<path class="st2" d="M509.78,64l1.11-2.03c0.17-0.31,0.6-0.31,0.77,0l1.11,2.03c0.04,0.07,0.1,0.13,0.17,0.17l2.03,1.11
		c0.31,0.17,0.31,0.6,0,0.77l-2.03,1.11c-0.07,0.04-0.13,0.1-0.17,0.17l-1.11,2.03c-0.17,0.31-0.6,0.31-0.77,0l-1.11-2.03
		c-0.04-0.07-0.1-0.13-0.17-0.17l-2.03-1.11c-0.31-0.17-0.31-0.6,0-0.77l2.03-1.11C509.68,64.14,509.74,64.08,509.78,64z"/>
	<line class="st2" x1="416.59" y1="218.46" x2="416.59" y2="218.46"/>
	<path class="st2" d="M304.26,76.6"/>
	<path class="st2" d="M303.89,286.43c0.06-0.03,0.12-0.06,0.18-0.09c0.54-0.28,1.07-0.55,1.6-0.84c0.01,0,0.02-0.01,0.03-0.01"/>
	<path class="st2" d="M358.8,182.83c0.66-50.1-20.88-99.1-52.21-105.81c-0.02-0.01-0.05-0.01-0.08-0.01
		c-0.74-0.17-1.49-0.3-2.25-0.41"/>
</g>
</svg>
