<?xml version="1.0" encoding="utf-8"?>
<!-- Generator: Adobe Illustrator 27.3.1, SVG Export Plug-In . SVG Version: 6.00 Build 0)  -->
<svg version="1.1" id="Layer_1" xmlns="http://www.w3.org/2000/svg" xmlns:xlink="http://www.w3.org/1999/xlink" x="0px" y="0px"
	 viewBox="0 0 1190.55 841.89" style="enable-background:new 0 0 1190.55 841.89;" xml:space="preserve">
<style type="text/css">
	.st0{fill:none;stroke:#009640;stroke-miterlimit:10;}
	.st1{fill:none;stroke:#E52421;stroke-miterlimit:10;}
	.st2{fill:none;stroke:#009FE3;stroke-miterlimit:10;}
	.st3{font-family:'MyriadPro-Regular';}
	.st4{font-size:12px;}
</style>
<line class="st0" x1="383.79" y1="477.25" x2="170.53" y2="477.67"/>
<line class="st0" x1="170.53" y1="477.66" x2="170.53" y2="174.36"/>
<line class="st0" x1="383.79" y1="477.25" x2="383.79" y2="173.94"/>
<g>
	<line class="st1" x1="156.49" y1="425.48" x2="156.49" y2="368.78"/>
	<line class="st2" x1="156.19" y1="369.08" x2="170.36" y2="369.08"/>
	<line class="st2" x1="156.19" y1="425.79" x2="170.36" y2="425.79"/>
</g>
<g>
	<line class="st1" x1="157.2" y1="257.09" x2="157.2" y2="200.39"/>
	<line class="st2" x1="156.9" y1="200.69" x2="171.07" y2="200.69"/>
	<line class="st2" x1="156.9" y1="257.4" x2="171.07" y2="257.4"/>
</g>
<g>
	<line class="st1" x1="398.23" y1="425.48" x2="398.23" y2="368.78"/>
	<line class="st2" x1="398.53" y1="369.08" x2="384.36" y2="369.08"/>
	<line class="st2" x1="398.53" y1="425.79" x2="384.36" y2="425.79"/>
</g>
<g>
	<line class="st1" x1="398.07" y1="257.09" x2="398.07" y2="200.39"/>
	<line class="st2" x1="398.37" y1="200.69" x2="384.2" y2="200.69"/>
	<line class="st2" x1="398.37" y1="257.4" x2="384.2" y2="257.4"/>
</g>
<g>
	<line class="st1" x1="370.57" y1="491.9" x2="313.88" y2="492.1"/>
	<line class="st2" x1="314.18" y1="492.4" x2="314.13" y2="478.22"/>
	<line class="st2" x1="370.89" y1="492.2" x2="370.84" y2="478.02"/>
</g>
<g>
	<line class="st1" x1="241.91" y1="491.82" x2="185.21" y2="492.02"/>
	<line class="st2" x1="185.51" y1="492.32" x2="185.46" y2="478.15"/>
	<line class="st2" x1="242.23" y1="492.12" x2="242.18" y2="477.95"/>
</g>
<line class="st0" x1="137.3" y1="478.65" x2="137.3" y2="175.35"/>
<line class="st2" x1="14.46" y1="478.51" x2="137.88" y2="478.51"/>
<line class="st0" x1="15.3" y1="478.65" x2="15.3" y2="175.35"/>
<line class="st2" x1="14.46" y1="175.51" x2="137.88" y2="175.51"/>
<g>
	<line class="st1" x1="105.01" y1="492.4" x2="48.31" y2="492.6"/>
	<line class="st2" x1="48.61" y1="492.9" x2="48.56" y2="478.72"/>
	<line class="st2" x1="105.32" y1="492.7" x2="105.28" y2="478.52"/>
</g>
<g>
	<line class="st1" x1="105.01" y1="162.02" x2="48.31" y2="161.82"/>
	<line class="st2" x1="48.61" y1="161.52" x2="48.56" y2="175.7"/>
	<line class="st2" x1="105.32" y1="161.72" x2="105.28" y2="175.9"/>
</g>
<g>
	<line class="st1" x1="122.49" y1="425.48" x2="122.49" y2="368.78"/>
	<line class="st2" x1="122.19" y1="369.08" x2="136.36" y2="369.08"/>
	<line class="st2" x1="122.19" y1="425.79" x2="136.36" y2="425.79"/>
</g>
<g>
	<line class="st1" x1="123.2" y1="257.09" x2="123.2" y2="200.39"/>
	<line class="st2" x1="122.9" y1="200.69" x2="137.07" y2="200.69"/>
	<line class="st2" x1="122.9" y1="257.4" x2="137.07" y2="257.4"/>
</g>
<line class="st0" x1="425.04" y1="478.65" x2="425.04" y2="175.35"/>
<line class="st2" x1="547.88" y1="478.51" x2="424.46" y2="478.51"/>
<line class="st0" x1="547.04" y1="478.65" x2="547.04" y2="175.35"/>
<line class="st2" x1="547.88" y1="175.51" x2="424.46" y2="175.51"/>
<g>
	<line class="st1" x1="457.33" y1="492.4" x2="514.03" y2="492.6"/>
	<line class="st2" x1="513.73" y1="492.9" x2="513.78" y2="478.72"/>
	<line class="st2" x1="457.01" y1="492.7" x2="457.06" y2="478.52"/>
</g>
<g>
	<line class="st1" x1="457.33" y1="162.02" x2="514.03" y2="161.82"/>
	<line class="st2" x1="513.73" y1="161.52" x2="513.78" y2="175.7"/>
	<line class="st2" x1="457.01" y1="161.72" x2="457.06" y2="175.9"/>
</g>
<g>
	<line class="st1" x1="439.85" y1="425.48" x2="439.85" y2="368.78"/>
	<line class="st2" x1="440.15" y1="369.08" x2="425.98" y2="369.08"/>
	<line class="st2" x1="440.15" y1="425.79" x2="425.98" y2="425.79"/>
</g>
<g>
	<line class="st1" x1="439.14" y1="257.09" x2="439.14" y2="200.39"/>
	<line class="st2" x1="439.44" y1="200.69" x2="425.27" y2="200.69"/>
	<line class="st2" x1="439.44" y1="257.4" x2="425.27" y2="257.4"/>
</g>
<text transform="matrix(1 0 0 1 264.3934 266.3684)" class="st3 st4">drawer 1</text>
<g>
	<line class="st1" x1="370.57" y1="161.44" x2="313.88" y2="161.25"/>
	<line class="st2" x1="314.18" y1="160.95" x2="314.13" y2="175.12"/>
	<line class="st2" x1="370.89" y1="161.15" x2="370.84" y2="175.32"/>
</g>
<g>
	<line class="st1" x1="241.91" y1="161.52" x2="185.21" y2="161.32"/>
	<line class="st2" x1="185.51" y1="161.02" x2="185.46" y2="175.2"/>
	<line class="st2" x1="242.23" y1="161.22" x2="242.18" y2="175.4"/>
</g>
<line class="st0" x1="383.79" y1="174.41" x2="170.53" y2="174.83"/>
<line class="st2" x1="158.6" y1="142.18" x2="158.6" y2="18.75"/>
<line class="st2" x1="399.95" y1="142.11" x2="399.95" y2="18.68"/>
<g>
	<line class="st1" x1="385.42" y1="53.75" x2="385.63" y2="110.44"/>
	<line class="st2" x1="385.33" y1="110.14" x2="399.51" y2="110.09"/>
	<line class="st2" x1="385.12" y1="53.43" x2="399.3" y2="53.38"/>
</g>
<line class="st0" x1="400.42" y1="19.42" x2="159.27" y2="19.46"/>
<g>
	<line class="st1" x1="173.7" y1="53.75" x2="173.49" y2="110.44"/>
	<line class="st2" x1="173.79" y1="110.14" x2="159.62" y2="110.09"/>
	<line class="st2" x1="174" y1="53.43" x2="159.83" y2="53.38"/>
</g>
<g>
	<line class="st1" x1="373.47" y1="128.08" x2="316.77" y2="127.88"/>
	<line class="st2" x1="317.07" y1="127.58" x2="317.02" y2="141.75"/>
	<line class="st2" x1="373.78" y1="127.78" x2="373.73" y2="141.95"/>
</g>
<g>
	<line class="st1" x1="245.08" y1="128.2" x2="188.38" y2="128"/>
	<line class="st2" x1="188.68" y1="127.7" x2="188.63" y2="141.88"/>
	<line class="st2" x1="245.39" y1="127.9" x2="245.34" y2="142.07"/>
</g>
<line class="st0" x1="399.95" y1="142.1" x2="157.63" y2="142.39"/>
<line class="st0" x1="937.51" y1="475.49" x2="724.25" y2="475.91"/>
<line class="st0" x1="724.25" y1="475.91" x2="724.25" y2="172.6"/>
<line class="st0" x1="937.51" y1="475.49" x2="937.51" y2="172.18"/>
<g>
	<line class="st1" x1="710.21" y1="423.72" x2="710.21" y2="367.03"/>
	<line class="st2" x1="709.91" y1="367.32" x2="724.08" y2="367.32"/>
	<line class="st2" x1="709.91" y1="424.04" x2="724.08" y2="424.04"/>
</g>
<g>
	<line class="st1" x1="710.92" y1="255.33" x2="710.92" y2="198.64"/>
	<line class="st2" x1="710.62" y1="198.94" x2="724.79" y2="198.94"/>
	<line class="st2" x1="710.62" y1="255.65" x2="724.79" y2="255.65"/>
</g>
<g>
	<line class="st1" x1="951.95" y1="423.72" x2="951.95" y2="367.03"/>
	<line class="st2" x1="952.25" y1="367.32" x2="938.08" y2="367.32"/>
	<line class="st2" x1="952.25" y1="424.04" x2="938.08" y2="424.04"/>
</g>
<g>
	<line class="st1" x1="951.79" y1="255.33" x2="951.79" y2="198.64"/>
	<line class="st2" x1="952.09" y1="198.94" x2="937.92" y2="198.94"/>
	<line class="st2" x1="952.09" y1="255.65" x2="937.92" y2="255.65"/>
</g>
<g>
	<line class="st1" x1="924.29" y1="490.14" x2="867.6" y2="490.34"/>
	<line class="st2" x1="867.9" y1="490.64" x2="867.85" y2="476.47"/>
	<line class="st2" x1="924.61" y1="490.44" x2="924.56" y2="476.27"/>
</g>
<g>
	<line class="st1" x1="795.63" y1="490.07" x2="738.93" y2="490.27"/>
	<line class="st2" x1="739.23" y1="490.57" x2="739.18" y2="476.39"/>
	<line class="st2" x1="795.95" y1="490.37" x2="795.9" y2="476.19"/>
</g>
<line class="st0" x1="691.02" y1="476.9" x2="691.02" y2="173.59"/>
<line class="st2" x1="568.18" y1="476.76" x2="691.6" y2="476.76"/>
<line class="st0" x1="569.02" y1="476.9" x2="569.02" y2="173.59"/>
<line class="st2" x1="568.18" y1="173.76" x2="691.6" y2="173.76"/>
<g>
	<line class="st1" x1="658.73" y1="490.64" x2="602.03" y2="490.84"/>
	<line class="st2" x1="602.33" y1="491.14" x2="602.28" y2="476.97"/>
	<line class="st2" x1="659.05" y1="490.94" x2="659" y2="476.77"/>
</g>
<g>
	<line class="st1" x1="658.73" y1="160.27" x2="602.03" y2="160.07"/>
	<line class="st2" x1="602.33" y1="159.77" x2="602.28" y2="173.94"/>
	<line class="st2" x1="659.05" y1="159.97" x2="659" y2="174.14"/>
</g>
<g>
	<line class="st1" x1="676.21" y1="423.72" x2="676.21" y2="367.03"/>
	<line class="st2" x1="675.91" y1="367.32" x2="690.08" y2="367.32"/>
	<line class="st2" x1="675.91" y1="424.04" x2="690.08" y2="424.04"/>
</g>
<g>
	<line class="st1" x1="676.92" y1="255.33" x2="676.92" y2="198.64"/>
	<line class="st2" x1="676.62" y1="198.94" x2="690.79" y2="198.94"/>
	<line class="st2" x1="676.62" y1="255.65" x2="690.79" y2="255.65"/>
</g>
<line class="st0" x1="978.76" y1="476.9" x2="978.76" y2="173.59"/>
<line class="st2" x1="1101.6" y1="476.76" x2="978.18" y2="476.76"/>
<line class="st0" x1="1100.76" y1="476.9" x2="1100.76" y2="173.59"/>
<line class="st2" x1="1101.6" y1="173.76" x2="978.18" y2="173.76"/>
<g>
	<line class="st1" x1="1011.05" y1="490.64" x2="1067.75" y2="490.84"/>
	<line class="st2" x1="1067.45" y1="491.14" x2="1067.5" y2="476.97"/>
	<line class="st2" x1="1010.73" y1="490.94" x2="1010.78" y2="476.77"/>
</g>
<g>
	<line class="st1" x1="1011.05" y1="160.27" x2="1067.75" y2="160.07"/>
	<line class="st2" x1="1067.45" y1="159.77" x2="1067.5" y2="173.94"/>
	<line class="st2" x1="1010.73" y1="159.97" x2="1010.78" y2="174.14"/>
</g>
<g>
	<line class="st1" x1="993.57" y1="423.72" x2="993.57" y2="367.03"/>
	<line class="st2" x1="993.87" y1="367.32" x2="979.7" y2="367.32"/>
	<line class="st2" x1="993.87" y1="424.04" x2="979.7" y2="424.04"/>
</g>
<g>
	<line class="st1" x1="992.86" y1="255.33" x2="992.86" y2="198.64"/>
	<line class="st2" x1="993.16" y1="198.94" x2="978.99" y2="198.94"/>
	<line class="st2" x1="993.16" y1="255.65" x2="978.99" y2="255.65"/>
</g>
<text transform="matrix(1 0 0 1 818.1139 264.6152)" class="st3 st4">drawer 1</text>
<g>
	<line class="st1" x1="924.29" y1="159.69" x2="867.6" y2="159.49"/>
	<line class="st2" x1="867.9" y1="159.19" x2="867.85" y2="173.37"/>
	<line class="st2" x1="924.61" y1="159.39" x2="924.56" y2="173.57"/>
</g>
<g>
	<line class="st1" x1="795.63" y1="159.77" x2="738.93" y2="159.57"/>
	<line class="st2" x1="739.23" y1="159.27" x2="739.18" y2="173.44"/>
	<line class="st2" x1="795.95" y1="159.47" x2="795.9" y2="173.64"/>
</g>
<line class="st0" x1="937.51" y1="172.66" x2="724.25" y2="173.08"/>
<line class="st2" x1="712.32" y1="140.42" x2="712.32" y2="17"/>
<line class="st2" x1="953.67" y1="140.35" x2="953.67" y2="16.93"/>
<g>
	<line class="st1" x1="939.14" y1="51.99" x2="939.36" y2="108.68"/>
	<line class="st2" x1="939.05" y1="108.39" x2="953.23" y2="108.34"/>
	<line class="st2" x1="938.84" y1="51.68" x2="953.02" y2="51.62"/>
</g>
<line class="st0" x1="954.14" y1="17.66" x2="712.99" y2="17.71"/>
<g>
	<line class="st1" x1="727.42" y1="51.99" x2="727.21" y2="108.68"/>
	<line class="st2" x1="727.51" y1="108.39" x2="713.34" y2="108.34"/>
	<line class="st2" x1="727.72" y1="51.68" x2="713.55" y2="51.62"/>
</g>
<g>
	<line class="st1" x1="927.19" y1="126.33" x2="870.49" y2="126.13"/>
	<line class="st2" x1="870.79" y1="125.83" x2="870.74" y2="140"/>
	<line class="st2" x1="927.5" y1="126.03" x2="927.45" y2="140.2"/>
</g>
<g>
	<line class="st1" x1="798.8" y1="126.45" x2="742.1" y2="126.25"/>
	<line class="st2" x1="742.4" y1="125.95" x2="742.35" y2="140.12"/>
	<line class="st2" x1="799.11" y1="126.15" x2="799.07" y2="140.32"/>
</g>
<line class="st0" x1="953.67" y1="140.35" x2="711.35" y2="140.64"/>
<g>
	<line class="st1" x1="976.69" y1="571.91" x2="976.69" y2="571.61"/>
	<line class="st2" x1="990.56" y1="571.91" x2="990.02" y2="571.91"/>
	<line class="st2" x1="976.69" y1="571.91" x2="976.39" y2="571.91"/>
	<line class="st2" x1="990.56" y1="628.62" x2="990.02" y2="628.62"/>
</g>
<polyline class="st2" points="166.43,652.47 215.19,652.47 310.26,652.47 360.61,652.47 407.59,652.47 "/>
<polyline class="st2" points="961.96,656.63 961.95,656.63 813.62,656.63 720.61,656.63 720.4,656.63 "/>
<polyline class="st2" points="166.43,529.05 166.43,554.3 166.43,610.39 166.43,652.47 "/>
<line class="st2" x1="961.63" y1="533.13" x2="961.63" y2="656.56"/>
<g>
	<polyline class="st2" points="165.94,528.24 165.94,554.25 165.94,610.65 165.94,651.67 	"/>
	<polyline class="st2" points="407.28,651.73 407.28,651 407.28,631.99 407.28,528.98 407.28,528.31 	"/>
	<g>
		<line class="st1" x1="392.75" y1="616.67" x2="392.97" y2="559.98"/>
		<line class="st2" x1="392.66" y1="560.27" x2="406.84" y2="560.33"/>
		<line class="st2" x1="392.45" y1="616.99" x2="406.63" y2="617.04"/>
	</g>
	<line class="st0" x1="407.75" y1="651" x2="166.6" y2="650.96"/>
	<g>
		<line class="st1" x1="181.03" y1="616.67" x2="180.82" y2="559.98"/>
		<line class="st2" x1="181.12" y1="560.27" x2="166.95" y2="560.33"/>
		<line class="st2" x1="181.33" y1="616.99" x2="167.16" y2="617.04"/>
	</g>
	<g>
		<line class="st1" x1="380.8" y1="542.34" x2="324.1" y2="542.54"/>
		<line class="st2" x1="324.4" y1="542.84" x2="324.35" y2="528.66"/>
		<line class="st2" x1="381.12" y1="542.64" x2="381.07" y2="528.46"/>
	</g>
	<g>
		<polyline class="st1" points="252.41,542.22 218.56,542.34 196.01,542.42 195.72,542.42 		"/>
		<polyline class="st2" points="196.01,542.72 196.01,542.42 195.96,528.98 195.96,528.54 		"/>
		<line class="st2" x1="252.73" y1="542.52" x2="252.68" y2="528.34"/>
	</g>
	<polyline class="st0" points="164.96,528.03 240.28,528.12 240.29,528.12 240.3,528.12 255.27,528.13 311.99,528.2 315.3,528.2 
		407.28,528.31 	"/>
</g>
<g>
	<line class="st2" x1="720.6" y1="533.3" x2="720.6" y2="656.72"/>
	<line class="st2" x1="961.95" y1="533.37" x2="961.95" y2="656.79"/>
	<g>
		<line class="st1" x1="947.43" y1="621.73" x2="947.64" y2="565.03"/>
		<line class="st2" x1="947.34" y1="565.33" x2="961.51" y2="565.38"/>
		<line class="st2" x1="947.12" y1="622.04" x2="961.3" y2="622.1"/>
	</g>
	<line class="st0" x1="962.42" y1="656.06" x2="721.27" y2="656.01"/>
	<g>
		<line class="st1" x1="735.7" y1="621.73" x2="735.49" y2="565.03"/>
		<line class="st2" x1="735.79" y1="565.33" x2="721.62" y2="565.38"/>
		<line class="st2" x1="736" y1="622.04" x2="721.83" y2="622.1"/>
	</g>
	<g>
		<line class="st1" x1="935.47" y1="547.39" x2="878.77" y2="547.59"/>
		<line class="st2" x1="879.07" y1="547.89" x2="879.02" y2="533.72"/>
		<line class="st2" x1="935.79" y1="547.69" x2="935.74" y2="533.52"/>
	</g>
	<g>
		<line class="st1" x1="807.08" y1="547.27" x2="750.38" y2="547.47"/>
		<line class="st2" x1="750.68" y1="547.77" x2="750.63" y2="533.6"/>
		<line class="st2" x1="807.4" y1="547.57" x2="807.35" y2="533.4"/>
	</g>
	<polyline class="st0" points="719.63,533.08 720.4,533.08 769.77,533.14 769.78,533.14 775.12,533.15 811.59,533.19 813.62,533.19 
		961.64,533.37 961.95,533.37 	"/>
</g>
<path class="st2" d="M720.4,636.04c0.07,0,0.14-0.01,0.21-0.03c0.46-0.05,0.91-0.12,1.38-0.2c0,0,0,0,0.01,0s0.02,0,0.03-0.01
	c50.17-7.58,88.75-50.51,89.56-102.61c0.01-0.01,0.01-0.03,0-0.05"/>
<path class="st2" d="M407.6,632.03L407.6,632.03c-0.11-0.01-0.21-0.02-0.32-0.04c-7.35-0.94-14.46-2.64-21.26-5.01
	c-9.44-3.29-18.27-7.89-26.27-13.57c-13.22-9.4-24.19-21.77-31.92-36.14c-5.63-10.46-9.55-21.98-11.37-34.19v-0.01
	c-0.69-4.6-1.08-9.31-1.15-14.09c-0.01-0.26-0.01-0.52-0.01-0.78"/>
<path class="st2" d="M218.56,542.34c-20.03,12.1-39.45,13.16-52.13,11.96c-0.17-0.02-0.33-0.03-0.49-0.05"/>
<path class="st2" d="M276.42,514.85c0.01,0,0.01,0,0.02,0c0.01,0,0.01,0,0.02,0s0.01,0,0.02,0c0.01,0,0.01,0,0.02,0"/>
<path class="st2" d="M240.3,528.12L240.3,528.12h-0.02c-0.52,0.27-1.04,0.56-1.56,0.86"/>
<path class="st2" d="M215.19,652.47c0.37-0.5,0.76-1,1.17-1.5c10.67-13.31,31.44-30.03,67.89-28.44
	c39.05,1.71,44.51-25.88,43.58-45.26"/>
<path class="st2" d="M316.46,543.08v-0.01l-1.53-2.84c0,0-6.36,49.01-59.86,46.76c-28.38-1.19-55.18,7.62-74.09,16.16"/>
<path class="st2" d="M166.43,610.39c-0.17,0.09-0.33,0.18-0.49,0.26"/>
<path class="st2" d="M359.75,613.41c1.61,7.18-1.15,14.38-15.64,17.73c-14.2,3.27-24.9,11.44-32.53,19.84
	c-0.45,0.5-0.89,0.99-1.32,1.49"/>
<path class="st2" d="M386.02,626.98c-2.26,3.98-5.76,8.02-10.86,12.01c-5.7,4.47-10.02,8.45-13.24,12c-0.46,0.5-0.89,1-1.31,1.48"/>
<path class="st2" d="M896.71,576L896.71,576"/>
<path class="st2" d="M892.44,586.67l3.29-6.02c0.49-0.91,1.79-0.91,2.29,0l3.3,6.02c0.12,0.22,0.3,0.4,0.52,0.52l6.02,3.29
	c0.91,0.49,0.91,1.79,0,2.29l-6.02,3.3c-0.22,0.12-0.4,0.3-0.52,0.52l-3.29,6.02c-0.49,0.91-1.79,0.91-2.29,0l-3.3-6.02
	c-0.12-0.22-0.3-0.4-0.52-0.52l-6.02-3.29c-0.91-0.49-0.91-1.79,0-2.29l6.02-3.3C892.14,587.07,892.32,586.89,892.44,586.67z"/>
<path class="st2" d="M837.15,611.76L837.15,611.76"/>
<path class="st2" d="M834.63,618.05l1.94-3.55c0.29-0.53,1.06-0.53,1.35,0l1.94,3.55c0.07,0.13,0.18,0.24,0.31,0.31l3.55,1.94
	c0.53,0.29,0.53,1.06,0,1.35l-3.55,1.95c-0.13,0.07-0.24,0.18-0.31,0.31l-1.94,3.55c-0.29,0.53-1.06,0.53-1.35,0l-1.95-3.55
	c-0.07-0.13-0.18-0.24-0.31-0.31l-3.55-1.94c-0.53-0.29-0.53-1.06,0-1.35l3.55-1.94C834.45,618.29,834.56,618.18,834.63,618.05z"/>
<path class="st2" d="M832.92,568.77L832.92,568.77"/>
<path class="st2" d="M831.48,572.37l1.11-2.03c0.17-0.31,0.6-0.31,0.77,0l1.11,2.03c0.04,0.07,0.1,0.13,0.17,0.17l2.03,1.11
	c0.31,0.17,0.31,0.6,0,0.77l-2.03,1.11c-0.07,0.04-0.13,0.1-0.17,0.17l-1.11,2.03c-0.17,0.31-0.6,0.31-0.77,0l-1.11-2.03
	c-0.04-0.07-0.1-0.13-0.17-0.17l-2.03-1.11c-0.31-0.17-0.31-0.6,0-0.77l2.03-1.11C831.37,572.5,831.43,572.44,831.48,572.37z"/>
<path class="st2" d="M720.21,636.74c0.06-0.03,0.13-0.06,0.19-0.1c0.07-0.03,0.14-0.07,0.21-0.11c0.46-0.23,0.92-0.47,1.38-0.72
	c0,0,0,0,0.01,0c32.85-17.57,48.72-52.26,52.33-88.42c0.47-4.74,0.73-9.49,0.79-14.24c0.01-0.01,0-0.01,0-0.01"/>
</svg>
