0
SECTION
2
HEADER
9
$INSUNITS
70
4
9
$ACADVER
1
AC1014
9
$HANDSEED
5
FFFF
0
ENDSEC
0
SECTION
2
TABLES
0
TABLE
2
VPORT
5
8
100
AcDbSymbolTable
0
ENDTAB
0
TABLE
2
LTYPE
5
5
100
AcDbSymbolTable
0
LTYPE
5
14
100
AcDbSymbolTableRecord
100
AcDbLinetypeTableRecord
2
BYBLOCK
70
0
0
LTYPE
5
15
100
AcDbSymbolTableRecord
100
AcDbLinetypeTableRecord
2
BYLAYER
70
0
0
ENDTAB
0
TABLE
2
LAYER
5
2
100
AcDbSymbolTable
70
2
0
LAYER
5
50
100
AcDbSymbolTableRecord
100
AcDbLayerTableRecord
2
0
70
0
6
CONTINUOUS
0
ENDTAB
0
TABLE
2
STYLE
5
3
100
AcDbSymbolTable
70
1
0
STYLE
5
11
100
AcDbSymbolTableRecord
100
AcDbTextStyleTableRecord
2
STANDARD
70
0
0
ENDTAB
0
TABLE
2
VIEW
5
6
100
AcDbSymbolTable
70
0
0
ENDTAB
0
TABLE
2
UCS
5
7
100
AcDbSymbolTable
70
0
0
ENDTAB
0
TABLE
2
APPID
5
9
100
AcDbSymbolTable
70
2
0
APPID
5
12
100
AcDbSymbolTableRecord
100
AcDbRegAppTableRecord
2
ACAD
70
0
0
ENDTAB
0
TABLE
2
DIMSTYLE
5
A
100
AcDbSymbolTable
70
1
0
ENDTAB
0
TABLE
2
BLOCK_RECORD
5
1
100
AcDbSymbolTable
70
1
0
BLOCK_RECORD
5
1F
100
AcDbSymbolTableRecord
100
AcDbBlockTableRecord
2
*MODEL_SPACE
0
BLOCK_RECORD
5
1B
100
AcDbSymbolTableRecord
100
AcDbBlockTableRecord
2
*PAPER_SPACE
0
ENDTAB
0
ENDSEC
0
SECTION
2
BLOCKS
0
BLOCK
5
20
100
AcDbEntity
100
AcDbBlockBegin
2
*MODEL_SPACE
0
ENDBLK
5
21
100
AcDbEntity
100
AcDbBlockEnd
0
BLOCK
5
1C
100
AcDbEntity
100
AcDbBlockBegin
2
*PAPER_SPACE
0
ENDBLK
5
1D
100
AcDbEntity
100
AcDbBlockEnd
0
ENDSEC
0
SECTION
2
ENTITIES
0
ARC
5
100
100
AcDbEntity
8
0
100
AcDbCircle
10
280.00000000000006
20
-170.00000000000003
30
0
40
9.2400861312881695
210
0
220
-0
230
1
100
AcDbArc
50
32.349251019647895
51
164.38781864347527
0
LINE
5
101
100
AcDbEntity
8
0
100
AcDbLine
10
347.54870141617431
20
-145.50001166062427
30
0
11
350.54870141617425
21
-145.50001166062427
31
0
0
ARC
5
102
100
AcDbEntity
8
0
100
AcDbCircle
10
422.98022750087802
20
-158.88409733728162
30
0
40
7.9438911507998888
210
0
220
-0
230
1
100
AcDbArc
50
1.2565244724304836
51
230.00630813117468
0
ARC
5
103
100
AcDbEntity
8
0
100
AcDbCircle
10
430.95244492738527
20
-175.50001166062427
30
0
40
16.790141003708456
210
0
220
0
230
1
100
AcDbArc
50
141.15965155772423
51
141.5345402397725
0
LWPOLYLINE
5
104
100
AcDbEntity
8
0
100
AcDbPolyline
90
7
70
1
43
0.0
10
104.99971724744256
20
-100.00022385657303
10
132.45658336153727
20
-100.00022385657306
10
162.45658336153727
20
-100.00022385657302
10
190
20
-100.00022385657302
10
190.00000000000003
20
-54.999999989140221
10
190
20
-4.9997762179328014
10
104.99971724744256
20
-4.9997762179327863
0
CIRCLE
5
105
100
AcDbEntity
8
0
100
AcDbCircle
10
215.54870467952856
20
-137.49951892090684
30
0
40
2.8284249436478373
210
0
220
0
230
1
0
LWPOLYLINE
5
106
100
AcDbEntity
8
0
100
AcDbPolyline
90
6
70
1
43
0.0
10
217.54870141617431
20
-175.50001166062427
10
217.54870141617431
20
-142.79102286658056
42
-2.4142124518859585
10
220.8402073241862
20
-135.4995187420929
42
2.4142124518859585
10
217.54870141617431
20
-142.79102286658056
10
217.54870141617431
20
-175.50001166062427
10
220.54870141617431
20
-175.50001166062427
0
ARC
5
107
100
AcDbEntity
8
0
100
AcDbCircle
10
215.54870467952856
20
-137.49951892090684
30
0
40
2.8284249436478621
210
0
220
-0
230
1
100
AcDbArc
50
45.000049305465275
51
314.99995069453513
0
LINE
5
108
100
AcDbEntity
8
0
100
AcDbLine
10
217.54870141617431
20
-175.50001166062427
30
0
11
220.54870141617431
21
-175.50001166062427
31
0
0
LINE
5
109
100
AcDbEntity
8
0
100
AcDbLine
10
347.54870141617431
20
-175.50001166062427
30
0
11
350.54870141617425
21
-175.50001166062427
31
0
0
LWPOLYLINE
5
110
100
AcDbEntity
8
0
100
AcDbPolyline
90
6
70
1
43
0.0
10
324.54870141617437
20
-175.50001166062427
10
327.54870141617431
20
-175.50001166062427
10
327.54870141617431
20
-145.50001166062427
10
324.54870141617437
20
-145.50001166062427
10
327.54870141617431
20
-145.50001166062427
10
327.54870141617431
20
-175.50001166062427
0
LINE
5
111
100
AcDbEntity
8
0
100
AcDbLine
10
327.54870141617431
20
-175.50001166062427
30
0
11
324.54870141617437
21
-175.50001166062427
31
0
0
LINE
5
112
100
AcDbEntity
8
0
100
AcDbLine
10
347.54870141617431
20
-145.50001166062427
30
0
11
350.54870141617425
21
-145.50001166062427
31
0
0
ARC
5
113
100
AcDbEntity
8
0
100
AcDbCircle
10
292.98022750087802
20
-158.88409733728162
30
0
40
7.9438911507998888
210
0
220
-0
230
1
100
AcDbArc
50
1.2565244724304836
51
230.00630813117468
0
LINE
5
114
100
AcDbEntity
8
0
100
AcDbLine
10
347.54870141617431
20
-175.50001166062427
30
0
11
347.54870141617431
21
-145.50001166062427
31
0
0
ARC
5
115
100
AcDbEntity
8
0
100
AcDbCircle
10
300.95244492738527
20
-175.50001166062427
30
0
40
16.790141003708399
210
0
220
0
230
1
100
AcDbArc
50
141.15965155772423
51
141.53454023977258
0
LINE
5
116
100
AcDbEntity
8
0
100
AcDbLine
10
347.54870141617431
20
-175.50001166062427
30
0
11
350.54870141617425
21
-175.50001166062427
31
0
0
LINE
5
117
100
AcDbEntity
8
0
100
AcDbLine
10
324.54870141617437
20
-145.50001166062427
30
0
11
324.54870141617437
21
-135.4995187420929
31
0
0
LINE
5
118
100
AcDbEntity
8
0
100
AcDbLine
10
347.54870141617431
20
-175.50001166062427
30
0
11
350.54870141617425
21
-175.50001166062427
31
0
0
LINE
5
119
100
AcDbEntity
8
0
100
AcDbLine
10
104.99971724744256
20
-60.000000823445909
30
0
11
132.49971724744262
21
-60.000000823445902
31
0
0
LINE
5
120
100
AcDbEntity
8
0
100
AcDbLine
10
350.54870141617425
20
-145.50001166062427
30
0
11
350.54870141617425
21
-135.4995187420929
31
0
0
CIRCLE
5
121
100
AcDbEntity
8
0
100
AcDbCircle
10
459.5487046795285
20
-137.49951892090684
30
0
40
2.8284249436478373
210
0
220
0
230
1
0
LINE
5
122
100
AcDbEntity
8
0
100
AcDbLine
10
457.54870141617431
20
-145.50001166062427
30
0
11
457.54870141617431
21
-142.79102039971667
31
0
0
LINE
5
123
100
AcDbEntity
8
0
100
AcDbLine
10
457.54870141617431
20
-175.50001166062427
30
0
11
454.54870141617437
21
-175.50001166062427
31
0
0
LWPOLYLINE
5
124
100
AcDbEntity
8
0
100
AcDbPolyline
90
30
70
1
43
0.0
10
132.45658336153727
20
-110
10
67.500000074511277
20
-110
10
67.500000074511277
20
-107
10
37.500000074505806
20
-107
10
37.500000074505813
20
-110
10
0
20
-110
10
0
20
-105.00022385657302
10
0
20
-100.00000149011612
10
3.000000074505806
20
-100.00006820005436
10
3.0000000745058064
20
-70.000001490116119
10
0
20
-70.000001490116119
10
0
20
-40
10
3.0000000745058104
20
-40
10
3.0000000745058113
20
-10
10
0
20
-10
10
0
20
0
10
200
20
0
10
200
20
-10.000000149011612
10
197
20
-10.000000149011612
10
197
20
-25.000000149011612
10
197
20
-40.000000149011612
10
200
20
-40.000000149011612
10
200
20
-70
10
197
20
-70.000000000000014
10
197
20
-100.00000000000001
10
200
20
-100
10
200
20
-110
10
162.45658336153727
20
-110
10
162.45658336153727
20
-106.99999995529652
10
132.45658336153727
20
-107
0
LINE
5
125
100
AcDbEntity
8
0
100
AcDbLine
10
132.45658336153727
20
-245.5000116606243
30
0
11
67.500000074511263
21
-245.5000116606243
31
0
0
ARC
5
126
100
AcDbEntity
8
0
100
AcDbCircle
10
100.0000000011045
20
-55.000000024801722
30
0
40
35.03082220879611
210
0
220
-0
230
1
100
AcDbArc
50
0
51
81.794532866523269
0
LINE
5
127
100
AcDbEntity
8
0
100
AcDbLine
10
3.5479154899213904e-09
20
-135.50001166062427
30
0
11
200.00000000354791
21
-135.50001166062427
31
0
0
LWPOLYLINE
5
128
100
AcDbEntity
8
0
100
AcDbPolyline
90
2
70
1
43
0.0
10
454.25720203487089
20
-135.4995187420929
10
452.54870141617431
20
-135.4995187420929
0
LINE
5
129
100
AcDbEntity
8
0
100
AcDbLine
10
457.54870141617431
20
-145.50001166062427
30
0
11
457.54870141617431
21
-175.50001166062427
31
0
0
LWPOLYLINE
5
130
100
AcDbEntity
8
0
100
AcDbPolyline
90
7
70
1
43
0.0
10
10.000000074505806
20
-4.9997762179327676
10
95.000001414044334
20
-4.9997762179327685
10
95.000001414044362
20
-100.00022385657266
10
67.500000074511263
20
-100.00022385657302
10
37.500000074505799
20
-100.00022385657302
10
10.000000074495903
20
-100.00022385657303
10
10.000000074505806
20
-55
0
LINE
5
131
100
AcDbEntity
8
0
100
AcDbLine
10
197
20
-10.000000149011612
30
0
11
197
21
-40.000000149011612
31
0
0
SPLINE
5
132
100
AcDbEntity
8
0
100
AcDbSpline
70
4
71
5
72
26
73
20
74
0
42
0.000000001
43
0.0000000001
44
0.0000000001
40
0
40
0
40
0
40
0
40
0
40
0
40
0.066666666666666666
40
0.13333333333333333
40
0.20000000000000001
40
0.26666666666666666
40
0.33333333333333331
40
0.39999999999999997
40
0.46666666666666662
40
0.53333333333333333
40
0.59999999999999998
40
0.66666666666666663
40
0.73333333333333328
40
0.79999999999999993
40
0.86666666666666659
40
0.93333333333333324
40
1
40
1
40
1
40
1
40
1
40
1
41
1
41
1
41
1
41
1
41
1
41
1
41
1
41
1
41
1
41
1
41
1
41
1
41
1
41
1
41
1
41
1
41
1
41
1
41
1
41
1
10
81.826440226778743
20
-25.052041345658665
30
0
10
81.722949961683327
20
-24.778407400640173
30
0
10
81.454746672515796
20
-24.277085980148755
30
0
10
80.868791389912417
20
-23.662925329114049
30
0
10
79.717389922763047
20
-23.121848353088289
30
0
10
77.666324474401648
20
-22.897808084424494
30
0
10
75.044430168767363
20
-23.07520696554295
30
0
10
71.963393945820144
20
-23.528112340210168
30
0
10
68.58993924682747
20
-24.072276087723385
30
0
10
65.118574390978324
20
-24.49406400007458
30
0
10
61.750169861655195
20
-24.573987747412911
30
0
10
58.669436598659999
20
-24.111818612932254
30
0
10
56.021459756723161
20
-22.953538244267918
30
0
10
53.889623428240235
20
-21.016983821701245
30
0
10
52.314463911144756
20
-18.268441524314536
30
0
10
51.307498839222987
20
-14.705608924017442
30
0
10
50.95281051003019
20
-11.214673274910599
30
0
10
50.935919565590417
20
-8.2434990237730599
30
0
10
51.034580570183422
20
-6.1069742425989109
30
0
10
51.1113915735814
20
-4.9997762179327783
30
0
0
SPLINE
5
133
100
AcDbEntity
8
0
100
AcDbSpline
70
6
71
5
72
51
73
45
74
0
42
0.000000001
43
0.0000000001
44
0.0000000001
40
0
40
0
40
0
40
0
40
0
40
0
40
0.025000000000000001
40
0.050000000000000003
40
0.075000000000000011
40
0.10000000000000001
40
0.125
40
0.14999999999999999
40
0.17499999999999999
40
0.19999999999999998
40
0.22499999999999998
40
0.24999999999999997
40
0.27499999999999997
40
0.29999999999999999
40
0.32500000000000001
40
0.35000000000000003
40
0.37500000000000006
40
0.40000000000000008
40
0.4250000000000001
40
0.45000000000000012
40
0.47500000000000014
40
0.50000000000000011
40
0.52500000000000013
40
0.55000000000000016
40
0.57500000000000018
40
0.6000000000000002
40
0.62500000000000022
40
0.65000000000000024
40
0.67500000000000027
40
0.70000000000000029
40
0.72500000000000031
40
0.75000000000000033
40
0.77500000000000036
40
0.80000000000000038
40
0.8250000000000004
40
0.85000000000000042
40
0.87500000000000044
40
0.90000000000000047
40
0.92500000000000049
40
0.95000000000000051
40
0.97500000000000053
40
1
40
1
40
1
40
1
40
1
40
1
41
1
41
1
41
1
41
1
41
1
41
1
41
1
41
1
41
1
41
1
41
1
41
1
41
1
41
1
41
1
41
1
41
1
41
1
41
1
41
1
41
1
41
1
41
1
41
1
41
1
41
1
41
1
41
1
41
1
41
1
41
1
41
1
41
1
41
1
41
1
41
1
41
1
41
1
41
1
41
1
41
1
41
1
41
1
41
1
41
1
10
175.15021674157043
20
-11.782035063471916
30
0
10
175.12065541740671
20
-11.777094896708594
30
0
10
175.05819392045692
20
-11.816856893136842
30
0
10
174.94455537434612
20
-12.02373036832692
30
0
10
174.71552377469783
20
-12.558848436307912
30
0
10
174.22884162538966
20
-13.484932384055996
30
0
10
173.50723696374587
20
-14.463162530105929
30
0
10
172.5636995022254
20
-15.309690415117236
30
0
10
171.47721259355313
20
-15.926807712311922
30
0
10
170.38550955021412
20
-16.320575964307327
30
0
10
169.44710387577231
20
-16.560480377651515
30
0
10
168.80971592115711
20
-16.753392075428238
30
0
10
168.57941174411039
20
-17.013522814777318
30
0
10
168.78122239688864
20
-17.430290434657042
30
0
10
169.35256851893473
20
-18.051304439497628
30
0
10
170.18009937898603
20
-18.887461893712839
30
0
10
171.12624887245244
20
-19.911743093163949
30
0
10
172.05795329210514
20
-21.061540290770289
30
0
10
172.87889836146809
20
-22.236529361146388
30
0
10
173.54424249304262
20
-23.308182646760716
30
0
10
174.04862150224244
20
-24.144659880308833
30
0
10
174.42105658360134
20
-24.632700159446642
30
0
10
174.7168306971183
20
-24.699233138416297
30
0
10
175.01174533140255
20
-24.336976746863591
30
0
10
175.39253342594179
20
-23.617087430795223
30
0
10
175.93689766568818
20
-22.657755433734266
30
0
10
176.69455840246215
20
-21.600030989415178
30
0
10
177.66912321108592
20
-20.581640955447696
30
0
10
178.7963128402761
20
-19.710067323003987
30
0
10
179.93270684869066
20
-19.040701688058498
30
0
10
180.90094328128814
20
-18.585444792755411
30
0
10
181.52823933564554
20
-18.317131675653705
30
0
10
181.68638288455324
20
-18.175662683380924
30
0
10
181.33382519336328
20
-18.072617166977459
30
0
10
180.54983149427798
20
-17.898167056620899
30
0
10
179.48767702722787
20
-17.546439404858607
30
0
10
178.33440956743522
20
-16.939968383583171
30
0
10
177.2692689175546
20
-16.053460207621555
30
0
10
176.42047774853481
20
-14.94070221586966
30
0
10
175.82905973004887
20
-13.752760197202225
30
0
10
175.47224617105982
20
-12.685926926820311
30
0
10
175.31915077388075
20
-12.086405388116368
30
0
10
175.23556186543885
20
-11.846497893716798
30
0
10
175.17977806573407
20
-11.786975230235244
30
0
10
175.15021674157043
20
-11.782035063471916
30
0
0
LWPOLYLINE
5
134
100
AcDbEntity
8
0
100
AcDbPolyline
90
5
70
1
43
0.0
10
37.499855983252374
20
-192.49904679078358
10
67.499855969005708
20
-192.49904679078358
10
67.499855969005708
20
-195.49946505904003
10
52.499855973754599
20
-195.49908761150161
10
37.499855983252374
20
-195.49871016396327
0
LINE
5
135
100
AcDbEntity
8
0
100
AcDbLine
10
197
20
0
30
0
11
197
21
-4.9997762179328022
31
0
0
LINE
5
136
100
AcDbEntity
8
0
100
AcDbLine
10
454.54870141617437
20
-175.50001166062427
30
0
11
457.54870141617431
21
-175.50001166062427
31
0
0
LINE
5
137
100
AcDbEntity
8
0
100
AcDbLine
10
200
20
-10.000000149011612
30
0
11
197
21
-10.000000149011612
31
0
0
LINE
5
138
100
AcDbEntity
8
0
100
AcDbLine
10
37.500002323630653
20
-57.000000823445951
30
0
11
67.499997843317544
21
-57.00000082344593
31
0
0
LINE
5
139
100
AcDbEntity
8
0
100
AcDbLine
10
457.54870794288274
20
-135.4995187420929
30
0
11
457.54870141617431
21
-135.49932649521702
31
0
0
SPLINE
5
140
100
AcDbEntity
8
0
100
AcDbSpline
70
4
71
5
72
26
73
20
74
0
42
0.000000001
43
0.0000000001
44
0.0000000001
40
0
40
0
40
0
40
0
40
0
40
0
40
0.066666666666666666
40
0.13333333333333333
40
0.20000000000000001
40
0.26666666666666666
40
0.33333333333333331
40
0.39999999999999997
40
0.46666666666666662
40
0.53333333333333333
40
0.59999999999999998
40
0.66666666666666663
40
0.73333333333333328
40
0.79999999999999993
40
0.86666666666666659
40
0.93333333333333324
40
1
40
1
40
1
40
1
40
1
40
1
41
1
41
1
41
1
41
1
41
1
41
1
41
1
41
1
41
1
41
1
41
1
41
1
41
1
41
1
41
1
41
1
41
1
41
1
41
1
41
1
10
72.615248909908871
20
-33.154315970187511
30
0
10
72.262839971708217
20
-32.504439015692675
30
0
10
71.458750502069847
20
-31.31473195807828
30
0
10
69.95495919628587
20
-29.86014241704757
30
0
10
67.34888988085072
20
-28.586904579914332
30
0
10
63.125683758093992
20
-28.068016385688516
30
0
10
58.066711995522638
20
-28.483893141191018
30
0
10
52.516469713764558
20
-29.466383656036797
30
0
10
46.999113800309445
20
-30.45440514402091
30
0
10
42.589835474501371
20
-30.294498307562385
30
0
10
39.643217774417742
20
-28.606824441953389
30
0
10
37.962606487284049
20
-25.60339884103341
30
0
10
37.079432250097383
20
-21.787931812383157
30
0
10
36.44856064221733
20
-17.745866802865674
30
0
10
35.701885076514188
20
-13.871577490042649
30
0
10
34.637054755553564
20
-10.380909832497604
30
0
10
33.45527373151797
20
-7.9750780949599518
30
0
10
32.372704821106041
20
-6.3991784627884396
30
0
10
31.564364105484501
20
-5.449435910074766
30
0
10
31.138539250257658
20
-4.9997762179327783
30
0
0
LINE
5
141
100
AcDbEntity
8
0
100
AcDbLine
10
457.54870141617431
20
-145.50001166062427
30
0
11
457.54870141617431
21
-175.50001166062427
31
0
0
SPLINE
5
142
100
AcDbEntity
8
0
100
AcDbSpline
70
6
71
5
72
51
73
45
74
0
42
0.000000001
43
0.0000000001
44
0.0000000001
40
0
40
0
40
0
40
0
40
0
40
0
40
0.025000000000000001
40
0.050000000000000003
40
0.075000000000000011
40
0.10000000000000001
40
0.125
40
0.14999999999999999
40
0.17499999999999999
40
0.19999999999999998
40
0.22499999999999998
40
0.24999999999999997
40
0.27499999999999997
40
0.29999999999999999
40
0.32500000000000001
40
0.35000000000000003
40
0.37500000000000006
40
0.40000000000000008
40
0.4250000000000001
40
0.45000000000000012
40
0.47500000000000014
40
0.50000000000000011
40
0.52500000000000013
40
0.55000000000000016
40
0.57500000000000018
40
0.6000000000000002
40
0.62500000000000022
40
0.65000000000000024
40
0.67500000000000027
40
0.70000000000000029
40
0.72500000000000031
40
0.75000000000000033
40
0.77500000000000036
40
0.80000000000000038
40
0.8250000000000004
40
0.85000000000000042
40
0.87500000000000044
40
0.90000000000000047
40
0.92500000000000049
40
0.95000000000000051
40
0.97500000000000053
40
1
40
1
40
1
40
1
40
1
40
1
41
1
41
1
41
1
41
1
41
1
41
1
41
1
41
1
41
1
41
1
41
1
41
1
41
1
41
1
41
1
41
1
41
1
41
1
41
1
41
1
41
1
41
1
41
1
41
1
41
1
41
1
41
1
41
1
41
1
41
1
41
1
41
1
41
1
41
1
41
1
41
1
41
1
41
1
41
1
41
1
41
1
41
1
41
1
41
1
41
1
10
153.72089736181215
20
-9.7011544962336451
30
0
10
153.7150789317582
20
-9.6992304203377184
30
0
10
153.70288142144992
20
-9.7056012841662724
30
0
10
153.68083176273296
20
-9.7455483224259307
30
0
10
153.63602010462424
20
-9.8527516986347443
30
0
10
153.53906028053692
20
-10.041642972549864
30
0
10
153.3932706795735
20
-10.243802919347665
30
0
10
153.20047330813429
20
-10.421329337460417
30
0
10
152.97590279661338
20
-10.552708667495468
30
0
10
152.74761844928253
20
-10.637919751841807
30
0
10
152.54855186820424
20
-10.690282810298648
30
0
10
152.40995057674292
20
-10.731213188805528
30
0
10
152.35485956251955
20
-10.784124437230416
30
0
10
152.39011986778891
20
-10.868058915557391
30
0
10
152.50381220116449
20
-10.993657080990239
30
0
10
152.67295669228042
20
-11.164042243008009
30
0
10
152.8690485691985
20
-11.374470316563306
30
0
10
153.06409628537699
20
-11.612657770515957
30
0
10
153.23723017476649
20
-11.858262745149158
30
0
10
153.37842328549465
20
-12.084431606587358
30
0
10
153.48600833482854
20
-12.263183049903608
30
0
10
153.5656006186469
20
-12.370102901887652
30
0
10
153.62842304119465
20
-12.389053716433532
30
0
10
153.69007825627568
20
-12.317556290256801
30
0
10
153.76866133045257
20
-12.16998912762017
30
0
10
153.88058044895192
20
-11.970997221581015
30
0
10
154.03657801730682
20
-11.750286395237273
30
0
10
154.23787752352592
20
-11.537029345262731
30
0
10
154.47171256514301
20
-11.354161479097378
30
0
10
154.70860123892894
20
-11.213535708434197
30
0
10
154.91166002006472
20
-11.117736434024071
30
0
10
155.04470394667015
20
-11.061119717745287
30
0
10
155.08062347543142
20
-11.0311565110648
30
0
10
155.01010819620154
20
-11.009511650394984
30
0
10
154.84906023492044
20
-10.973492714366071
30
0
10
154.6290349228683
20
-10.901197387499233
30
0
10
154.38884368010821
20
-10.776510037414681
30
0
10
154.16592050582744
20
-10.593986575128909
30
0
10
153.98742176732827
20
-10.364269708700455
30
0
10
153.8624868696331
20
-10.118076145521183
30
0
10
153.78691274942909
20
-9.8956716222628192
30
0
10
153.75479580862722
20
-9.7691698418622295
30
0
10
153.73779200177339
20
-9.7171457395418503
30
0
10
153.72671579186607
20
-9.7030785721295736
30
0
10
153.72089736181215
20
-9.7011544962336451
30
0
0
CIRCLE
5
143
100
AcDbEntity
8
0
100
AcDbCircle
10
156.49921797421234
20
-16.462204395477265
30
0
40
1.4983243906998815
210
0
220
0
230
1
0
LINE
5
144
100
AcDbEntity
8
0
100
AcDbLine
10
454.54870141617437
20
-175.50001166062427
30
0
11
457.54870141617431
21
-175.50001166062427
31
0
0
ARC
5
145
100
AcDbEntity
8
0
100
AcDbCircle
10
459.5487046795285
20
-137.49951892090684
30
0
40
5.656854333786077
210
0
220
0
230
1
100
AcDbArc
50
-110.70484606716533
51
159.29518733188405
0
ARC
5
146
100
AcDbEntity
8
0
100
AcDbCircle
10
410
20
-170.00000000000003
30
0
40
9.2400861312882299
210
0
220
-0
230
1
100
AcDbArc
50
32.349251019647511
51
164.38781864347521
0
LINE
5
147
100
AcDbEntity
8
0
100
AcDbLine
10
350.54870141617425
20
-135.4995187420929
30
0
11
452.54870141617431
21
-135.4995187420929
31
0
0
ARC
5
148
100
AcDbEntity
8
0
100
AcDbCircle
10
266.00000396370893
20
-177.0000026375055
30
0
40
10.771097348696655
210
0
220
-0
230
1
100
AcDbArc
50
61.734013023943632
51
301.73136362091634
0
LINE
5
149
100
AcDbEntity
8
0
100
AcDbLine
10
220.8402073241862
20
-135.4995187420929
30
0
11
324.54870141617437
21
-135.4995187420929
31
0
0
LINE
5
150
100
AcDbEntity
8
0
100
AcDbLine
10
220.8402073241862
20
-135.4995187420929
30
0
11
322.54870141617431
21
-135.4995187420929
31
0
0
LINE
5
151
100
AcDbEntity
8
0
100
AcDbLine
10
37.500000074505799
20
-242.51572144801682
30
0
11
67.500000074511263
21
-242.5000116606243
31
0
0
SPLINE
5
152
100
AcDbEntity
8
0
100
AcDbSpline
70
4
71
5
72
25
73
19
74
0
42
0.000000001
43
0.0000000001
44
0.0000000001
40
0
40
0
40
0
40
0
40
0
40
0
40
0.066666666666666666
40
0.13333333333333333
40
0.20000000000000001
40
0.26666666666666666
40
0.33333333333333331
40
0.39999999999999997
40
0.46666666666666662
40
0.53333333333333333
40
0.59999999999999998
40
0.66666666666666663
40
0.73333333333333328
40
0.79999999999999993
40
0.86666666666666659
40
0.89274987070115075
40
0.89274987070115075
40
0.89274987070115075
40
0.89274987070115075
40
0.89274987070115075
40
0.89274987070115075
41
1
41
1
41
1
41
1
41
1
41
1
41
1
41
1
41
1
41
1
41
1
41
1
41
1
41
1
41
1
41
1
41
1
41
1
41
1
10
66.689926180549094
20
-44.155762545985304
30
0
10
66.038717455755645
20
-43.692956371191045
30
0
10
64.704298610919153
20
-42.839314181530497
30
0
10
62.606668963887955
20
-41.774752596197125
30
0
10
59.616406042902746
20
-40.790357760586559
30
0
10
55.556601342120011
20
-40.272073251767409
30
0
10
51.190521780919568
20
-40.395030511454749
30
0
10
46.562724079480226
20
-40.986254053631882
30
0
10
41.758770084581052
20
-41.732436799694419
30
0
10
36.886528876793513
20
-42.244820460689439
30
0
10
32.059753764090203
20
-42.118031705289624
30
0
10
27.382972515915853
20
-40.984639391080293
30
0
10
22.931942052232159
20
-38.588538490017321
30
0
10
18.748986836820187
20
-34.800710786808082
30
0
10
15.32912469205125
20
-30.207019719813278
30
0
10
12.857522666037326
20
-25.830882340378551
30
0
10
11.198445377771309
20
-22.339214381476985
30
0
10
10.261318858169183
20
-20.171614849338827
30
0
10
10.000000074821871
20
-19.551303726504518
30
0
0
LINE
5
153
100
AcDbEntity
8
0
100
AcDbLine
10
162.45658336153727
20
-110
30
0
11
162.45658336153727
21
-106.99999995529652
31
0
0
LINE
5
154
100
AcDbEntity
8
0
100
AcDbLine
10
200.00000000354791
20
-145.50001166062427
30
0
11
197.00000000354791
21
-145.50001166062427
31
0
0
LWPOLYLINE
5
155
100
AcDbEntity
8
0
100
AcDbPolyline
90
2
70
1
43
0.0
10
67.500000074511263
20
-245.5000116606243
10
67.500000074511263
20
-242.5000116606243
0
SPLINE
5
156
100
AcDbEntity
8
0
100
AcDbSpline
70
4
71
5
72
22
73
16
74
0
42
0.000000001
43
0.0000000001
44
0.0000000001
40
0
40
0
40
0
40
0
40
0
40
0
40
0.066666666666666666
40
0.13333333333333333
40
0.20000000000000001
40
0.26666666666666666
40
0.33333333333333331
40
0.39999999999999997
40
0.46666666666666662
40
0.53333333333333333
40
0.59999999999999998
40
0.66666666666666663
40
0.73123836039379819
40
0.73123836039379819
40
0.73123836039379819
40
0.73123836039379819
40
0.73123836039379819
40
0.73123836039379819
41
1
41
1
41
1
41
1
41
1
41
1
41
1
41
1
41
1
41
1
41
1
41
1
41
1
41
1
41
1
41
1
10
65.304589862869463
20
-50.163987212561267
30
0
10
63.766301185849045
20
-49.792206294476991
30
0
10
60.785100463538456
20
-49.10877144800282
30
0
10
56.599429627383778
20
-48.264000284312843
30
0
10
51.594953002960253
20
-47.501022479001236
30
0
10
46.315658632527146
20
-47.163488726698226
30
0
10
42.015172189958648
20
-47.445886325321126
30
0
10
38.662851096180653
20
-48.333243490530364
30
0
10
36.169570126402853
20
-49.776761750146591
30
0
10
34.36382342936983
20
-51.679452401670396
30
0
10
32.951046879364789
20
-53.871758607847504
30
0
10
31.579730873331226
20
-56.130741640896993
30
0
10
30.229374653526765
20
-57.83549140039041
30
0
10
28.954091697116375
20
-58.98327509188897
30
0
10
27.971743291784371
20
-59.676462454009197
30
0
10
27.453538024729696
20
-59.999998844864912
30
0
0
LINE
5
157
100
AcDbEntity
8
0
100
AcDbLine
10
200.00000000354791
20
-135.50001166062427
30
0
11
200.00000000354791
21
-145.50001166062427
31
0
0
LINE
5
158
100
AcDbEntity
8
0
100
AcDbLine
10
454.54870141617437
20
-195.49904679078361
30
0
11
454.54870141617437
21
-175.50001166062427
31
0
0
ARC
5
159
100
AcDbEntity
8
0
100
AcDbCircle
10
275.00000409781939
20
-180.00000268220899
30
0
40
7.0058208585806794
210
0
220
0
230
1
100
AcDbArc
50
241.57266053852442
51
279.4363729528913
0
LINE
5
160
100
AcDbEntity
8
0
100
AcDbLine
10
197.00000000354791
20
-145.50001166062427
30
0
11
200.00000000354791
21
-145.50001166062427
31
0
0
ARC
5
161
100
AcDbEntity
8
0
100
AcDbCircle
10
280.00000000000006
20
-170.00000000000003
30
0
40
9.240086131289134
210
0
220
0
230
1
100
AcDbArc
50
248.7423139586657
51
252.37628047138804
0
ARC
5
162
100
AcDbEntity
8
0
100
AcDbCircle
10
286.55816346285735
20
-184.14370855745938
30
0
40
10.771097348696664
210
0
220
0
230
1
100
AcDbArc
50
194.88740513858056
51
216.15958292808594
0
LINE
5
163
100
AcDbEntity
8
0
100
AcDbLine
10
95.000001415610313
20
-192.49904679078358
30
0
11
95.001477608773797
21
-192.49904679078358
31
0
0
LWPOLYLINE
5
164
100
AcDbEntity
8
0
100
AcDbPolyline
90
4
70
1
43
0.0
10
251.51456587127089
20
-201.05356146015609
42
1.1848303555338611
10
235.27949549705298
20
-205.71312517739341
42
1.7747534734180552
10
245.14105688561199
20
-216.31425152477104
42
0.83116136940436058
10
257.3177617144155
20
-209.38805094721403
42
0.91288543993618443
0
LINE
5
165
100
AcDbEntity
8
0
100
AcDbLine
10
132.45658336153727
20
-110
30
0
11
132.45658336153727
21
-107
31
0
0
LINE
5
166
100
AcDbEntity
8
0
100
AcDbLine
10
195.00000000000003
20
-54.999999989140214
30
0
11
190.00000000000003
21
-54.999999989140221
31
0
0
LINE
5
167
100
AcDbEntity
8
0
100
AcDbLine
10
217.54870141617431
20
-205.5000116606243
30
0
11
220.54870141617431
21
-205.5000116606243
31
0
0
LWPOLYLINE
5
168
100
AcDbEntity
8
0
100
AcDbPolyline
90
2
70
1
43
0.0
10
257.54870141617431
20
-195.49904679078361
10
257.54870141617431
20
-192.49904679078358
0
LINE
5
169
100
AcDbEntity
8
0
100
AcDbLine
10
190.00000000000003
20
-54.999999989140221
30
0
11
190.00000000000003
21
-60.000000823445816
31
0
0
LWPOLYLINE
5
170
100
AcDbEntity
8
0
100
AcDbPolyline
90
3
70
1
43
0.0
10
272.54870141617431
20
-195.49904679078361
10
257.54870141617431
20
-195.49904679078361
10
287.54870141617431
20
-195.49904679078361
0
LINE
5
171
100
AcDbEntity
8
0
100
AcDbLine
10
220.54870141617431
20
-195.49904679078361
30
0
11
220.54870141617431
21
-205.5000116606243
31
0
0
SPLINE
5
172
100
AcDbEntity
8
0
100
AcDbSpline
70
4
71
5
72
16
73
10
74
0
42
0.000000001
43
0.0000000001
44
0.0000000001
40
0
40
0
40
0
40
0
40
0
40
0
40
0.10000000000000001
40
0.20000000000000001
40
0.30000000000000004
40
0.40000000000000002
40
0.42600498846356494
40
0.42600498846356494
40
0.42600498846356494
40
0.42600498846356494
40
0.42600498846356494
40
0.42600498846356494
41
1
41
1
41
1
41
1
41
1
41
1
41
1
41
1
41
1
41
1
10
277.86183009556123
20
-190.49904679078361
30
0
10
277.95277434703485
20
-190.59765054019488
30
0
10
278.14429069812536
20
-190.79380888743043
30
0
10
278.46044963676667
20
-191.08489885898368
30
0
10
278.94070665587105
20
-191.46662096939477
30
0
10
279.54062049167419
20
-191.86352306555648
30
0
10
280.0585448502419
20
-192.16084560585827
30
0
10
280.44680887202537
20
-192.3637833085578
30
0
10
280.67233950022103
20
-192.47594016180977
30
0
10
280.71927012729776
20
-192.49904515807083
30
0
0
CIRCLE
5
173
100
AcDbEntity
8
0
100
AcDbCircle
10
146.00000217556953
20
-25.00000037252903
30
0
40
1.9578508426617571
210
0
220
0
230
1
0
LINE
5
174
100
AcDbEntity
8
0
100
AcDbLine
10
132.49971724744262
20
-57.000000823445902
30
0
11
162.49971724744259
21
-57.000000823445859
31
0
0
SPLINE
5
175
100
AcDbEntity
8
0
100
AcDbSpline
70
4
71
5
72
12
73
6
74
0
42
0.000000001
43
0.0000000001
44
0.0000000001
40
0
40
0
40
0
40
0
40
0
40
0
40
1.4198075722762796e-06
40
1.4198075722762796e-06
40
1.4198075722762796e-06
40
1.4198075722762796e-06
40
1.4198075722762796e-06
40
1.4198075722762796e-06
41
1
41
1
41
1
41
1
41
1
41
1
10
87.255694970680196
20
-87.630372299057342
30
0
10
87.255698966791542
20
-87.630374855586155
30
0
10
87.255702962901296
20
-87.630377412115593
30
0
10
87.255706959009473
20
-87.63037996864557
30
0
10
87.255710955116044
20
-87.630382525176174
30
0
10
87.255714951221037
20
-87.630385081707374
30
0
0
LINE
5
176
100
AcDbEntity
8
0
100
AcDbLine
10
162.50046395476329
20
-195.49904679078361
30
0
11
162.50046395476329
21
-192.49904679078358
31
0
0
LINE
5
177
100
AcDbEntity
8
0
100
AcDbLine
10
200.00000000354791
20
-245.5000116606243
30
0
11
162.45646395476328
21
-245.5000116606243
31
0
0
ARC
5
178
100
AcDbEntity
8
0
100
AcDbCircle
10
254.02833598761561
20
-232.66847122494448
30
0
40
7.0781869820919887
210
0
220
0
230
1
100
AcDbArc
50
-111.59801073596896
51
90.103181045880845
0
LWPOLYLINE
5
179
100
AcDbEntity
8
0
100
AcDbPolyline
90
2
70
1
43
0.0
10
132.45658336153727
20
-245.5000116606243
10
132.45658336153727
20
-242.5000116606243
0
LWPOLYLINE
5
180
100
AcDbEntity
8
0
100
AcDbPolyline
90
2
70
1
43
0.0
10
132.49971724744262
20
-60.000000823445902
10
132.49971724744262
20
-57.000000823445902
0
ARC
5
181
100
AcDbEntity
8
0
100
AcDbCircle
10
247.9601668366665
20
-236.31237766020399
30
0
40
4.5407504927773932
210
0
220
0
230
1
100
AcDbArc
50
194.88740513858113
51
319.69330177741477
0
LWPOLYLINE
5
182
100
AcDbEntity
8
0
100
AcDbPolyline
90
2
70
1
43
0.0
10
67.499997843317544
20
-60.000000823445923
10
67.499997843317544
20
-57.00000082344593
0
ARC
5
183
100
AcDbEntity
8
0
100
AcDbCircle
10
245.19545466188632
20
-230.34984204077114
30
0
40
3.8953250811560998
210
0
220
-0
230
1
100
AcDbArc
50
32.349251019648086
51
164.38781864347513
0
LWPOLYLINE
5
184
100
AcDbEntity
8
0
100
AcDbPolyline
90
2
70
1
43
0.0
10
197.00000000354791
20
-235.5000116606243
10
197.00000000354791
20
-205.5000116606243
0
LWPOLYLINE
5
185
100
AcDbEntity
8
0
100
AcDbPolyline
90
2
70
1
43
0.0
10
162.49971724744259
20
-60.000000823445852
10
162.49971724744259
20
-57.000000823445859
0
ARC
5
186
100
AcDbEntity
8
0
100
AcDbCircle
10
239.29350364959117
20
-233.30081949429319
30
0
40
4.5407504927773212
210
0
220
-0
230
1
100
AcDbArc
50
61.734013023943433
51
301.73136362091623
0
LINE
5
187
100
AcDbEntity
8
0
100
AcDbLine
10
147.50046395476329
20
-195.49904679078361
30
0
11
132.50046395476329
21
-195.49904679078361
31
0
0
LINE
5
188
100
AcDbEntity
8
0
100
AcDbLine
10
67.499997843317544
20
-60.000000823445923
30
0
11
95.000001414044348
21
-60.000000823445909
31
0
0
ARC
5
189
100
AcDbEntity
8
0
100
AcDbCircle
10
243.08761614537167
20
-234.56552365955338
30
0
40
2.9534302296283204
210
0
220
0
230
1
100
AcDbArc
50
241.57266053852533
51
279.43637295289153
0
ARC
5
190
100
AcDbEntity
8
0
100
AcDbCircle
10
603621074.06434071
20
-55.427361974224389
30
0
40
603621009.09516299
210
0
220
0
230
1
100
AcDbArc
50
180
51
180
0
LINE
5
191
100
AcDbEntity
8
0
100
AcDbLine
10
147.50046395476329
20
-195.49904679078361
30
0
11
162.50046395476329
21
-195.49904679078361
31
0
0
ARC
5
192
100
AcDbEntity
8
0
100
AcDbCircle
10
250.66750384247479
20
-225.66373264454401
30
0
40
3.3488906923609987
210
0
220
-0
230
1
100
AcDbArc
50
1.2565244724301936
51
230.00630813117456
0
LINE
5
193
100
AcDbEntity
8
0
100
AcDbLine
10
132.50046395476329
20
-192.49904679078358
30
0
11
162.50046395476329
21
-192.49904679078358
31
0
0
SPLINE
5
194
100
AcDbEntity
8
0
100
AcDbSpline
70
6
71
5
72
51
73
45
74
0
42
0.000000001
43
0.0000000001
44
0.0000000001
40
0
40
0
40
0
40
0
40
0
40
0
40
0.025000000000000001
40
0.050000000000000003
40
0.075000000000000011
40
0.10000000000000001
40
0.125
40
0.14999999999999999
40
0.17499999999999999
40
0.19999999999999998
40
0.22499999999999998
40
0.24999999999999997
40
0.27499999999999997
40
0.29999999999999999
40
0.32500000000000001
40
0.35000000000000003
40
0.37500000000000006
40
0.40000000000000008
40
0.4250000000000001
40
0.45000000000000012
40
0.47500000000000014
40
0.50000000000000011
40
0.52500000000000013
40
0.55000000000000016
40
0.57500000000000018
40
0.6000000000000002
40
0.62500000000000022
40
0.65000000000000024
40
0.67500000000000027
40
0.70000000000000029
40
0.72500000000000031
40
0.75000000000000033
40
0.77500000000000036
40
0.80000000000000038
40
0.8250000000000004
40
0.85000000000000042
40
0.87500000000000044
40
0.90000000000000047
40
0.92500000000000049
40
0.95000000000000051
40
0.97500000000000053
40
1
40
1
40
1
40
1
40
1
40
1
41
1
41
1
41
1
41
1
41
1
41
1
41
1
41
1
41
1
41
1
41
1
41
1
41
1
41
1
41
1
41
1
41
1
41
1
41
1
41
1
41
1
41
1
41
1
41
1
41
1
41
1
41
1
41
1
41
1
41
1
41
1
41
1
41
1
41
1
41
1
41
1
41
1
41
1
41
1
41
1
41
1
41
1
41
1
41
1
41
1
10
136.55529862081903
20
-21.535555755240541
30
0
10
136.54406990449436
20
-21.53285299087208
30
0
10
136.52042755822859
20
-21.54669782502485
30
0
10
136.47753459160563
20
-21.62463067621745
30
0
10
136.39075483373304
20
-21.829581954412355
30
0
10
136.20482592573211
20
-22.187200447292636
30
0
10
135.9273752294261
20
-22.567250513811153
30
0
10
135.56269519513373
20
-22.89837634145611
30
0
10
135.1405319439815
20
-23.141455640522445
30
0
10
134.71405992802738
20
-23.297745851733698
30
0
10
134.3450207827363
20
-23.393339240566352
30
0
10
134.09143470883157
20
-23.469178289287495
30
0
10
133.99549160997506
20
-23.569477808152769
30
0
10
134.06835733415153
20
-23.729475985668724
30
0
10
134.28657880810366
20
-23.968362691243449
30
0
10
134.60649558047527
20
-24.291126291143783
30
0
10
134.97458923360031
20
-24.687992228133059
30
0
10
135.33873108850932
20
-25.135199932640919
30
0
10
135.66066714513155
20
-25.594100603605831
30
0
10
135.92232796492229
20
-26.014499932550969
30
0
10
136.12115067695322
20
-26.344542207280391
30
0
10
136.26808468317512
20
-26.539358152598535
30
0
10
136.38443606898699
20
-26.569670057780812
30
0
10
136.4996019984325
20
-26.431815549331688
30
0
10
136.6474271020667
20
-26.153165828451748
30
0
10
136.85840061017328
20
-25.779829232425623
30
0
10
137.15224111547548
20
-25.367082993897853
30
0
10
137.53076166422511
20
-24.969043038899716
30
0
10
137.96943628229226
20
-24.628084609377495
30
0
10
138.41268021292913
20
-24.366071448105391
30
0
10
138.79139097901199
20
-24.18773227172376
30
0
10
139.03803135809221
20
-24.082486992658549
30
0
10
139.10226292448615
20
-24.026894645130447
30
0
10
138.96731892296557
20
-23.986554344862352
30
0
10
138.6635805348825
20
-23.91880663094787
30
0
10
138.25048949762916
20
-23.782504332891197
30
0
10
137.80084710893976
20
-23.547462240850606
30
0
10
137.38462567656421
20
-23.203666188085844
30
0
10
137.05220853021592
20
-22.771599550667002
30
0
10
136.82010558918088
20
-22.309511477798956
30
0
10
136.67990759938482
20
-21.893395386808088
30
0
10
136.6200286002011
20
-21.658234826042143
30
0
10
136.58779985617684
20
-21.562914411235631
30
0
10
136.56652733714373
20
-21.538258519609002
30
0
10
136.55529862081903
20
-21.535555755240541
30
0
0
LINE
5
195
100
AcDbEntity
8
0
100
AcDbLine
10
104.99971724744256
20
-59.204074336223663
30
0
11
105
21
-59.204074336223663
31
0
0
LINE
5
196
100
AcDbEntity
8
0
100
AcDbLine
10
220.54870141617431
20
-235.5000116606243
30
0
11
220.54870141617431
21
-245.4995187420929
31
0
0
LINE
5
197
100
AcDbEntity
8
0
100
AcDbLine
10
197.00000000354791
20
-205.5000116606243
30
0
11
200.00000000354791
21
-205.5000116606243
31
0
0
SPLINE
5
198
100
AcDbEntity
8
0
100
AcDbSpline
70
6
71
5
72
51
73
45
74
0
42
0.000000001
43
0.0000000001
44
0.0000000001
40
0
40
0
40
0
40
0
40
0
40
0
40
0.025000000000000001
40
0.050000000000000003
40
0.075000000000000011
40
0.10000000000000001
40
0.125
40
0.14999999999999999
40
0.17499999999999999
40
0.19999999999999998
40
0.22499999999999998
40
0.24999999999999997
40
0.27499999999999997
40
0.29999999999999999
40
0.32500000000000001
40
0.35000000000000003
40
0.37500000000000006
40
0.40000000000000008
40
0.4250000000000001
40
0.45000000000000012
40
0.47500000000000014
40
0.50000000000000011
40
0.52500000000000013
40
0.55000000000000016
40
0.57500000000000018
40
0.6000000000000002
40
0.62500000000000022
40
0.65000000000000024
40
0.67500000000000027
40
0.70000000000000029
40
0.72500000000000031
40
0.75000000000000033
40
0.77500000000000036
40
0.80000000000000038
40
0.8250000000000004
40
0.85000000000000042
40
0.87500000000000044
40
0.90000000000000047
40
0.92500000000000049
40
0.95000000000000051
40
0.97500000000000053
40
1
40
1
40
1
40
1
40
1
40
1
41
1
41
1
41
1
41
1
41
1
41
1
41
1
41
1
41
1
41
1
41
1
41
1
41
1
41
1
41
1
41
1
41
1
41
1
41
1
41
1
41
1
41
1
41
1
41
1
41
1
41
1
41
1
41
1
41
1
41
1
41
1
41
1
41
1
41
1
41
1
41
1
41
1
41
1
41
1
41
1
41
1
41
1
41
1
41
1
41
1
10
146.55529862081903
20
-42.535555755240537
30
0
10
146.54406990449354
20
-42.532852990869962
30
0
10
146.5204275582264
20
-42.54669782501918
30
0
10
146.47753459160069
20
-42.624630676205122
30
0
10
146.39075483372744
20
-42.829581954398463
30
0
10
146.2048259257275
20
-43.18720044728142
30
0
10
145.92737522942423
20
-43.567250513807316
30
0
10
145.56269519513509
20
-43.898376341459205
30
0
10
145.14053194398548
20
-44.141455640529763
30
0
10
144.71405992803233
20
-44.29774585174173
30
0
10
144.34502078274025
20
-44.393339240572047
30
0
10
144.09143470883305
20
-44.469178289289424
30
0
10
143.99549160997387
20
-44.569477808151262
30
0
10
144.06835733414894
20
-44.729475985665211
30
0
10
144.28657880810084
20
-44.968362691239705
30
0
10
144.60649558047345
20
-45.291126291141111
30
0
10
144.97458923359977
20
-45.687992228132103
30
0
10
145.33873108850969
20
-46.135199932641598
30
0
10
145.66066714513278
20
-46.594100603607586
30
0
10
145.92232796492394
20
-47.014499932553086
30
0
10
146.12115067695453
20
-47.34454220728211
30
0
10
146.2680846831756
20
-47.53935815259937
30
0
10
146.3844360689867
20
-47.569670057780556
30
0
10
146.4996019984317
20
-47.431815549330423
30
0
10
146.64742710206531
20
-47.153165828449737
30
0
10
146.858400610172
20
-46.779829232423594
30
0
10
147.15224111547479
20
-46.367082993896574
30
0
10
147.53076166422522
20
-45.969043038899883
30
0
10
147.96943628229306
20
-45.6280846093794
30
0
10
148.41268021293018
20
-45.366071448108684
30
0
10
148.7913909790129
20
-45.187732271727427
30
0
10
149.03803135809278
20
-45.082486992661153
30
0
10
149.10226292448618
20
-45.026894645130383
30
0
10
148.96731892296475
20
-44.986554344858696
30
0
10
148.66358053488059
20
-44.918806630940992
30
0
10
148.25048949762692
20
-44.782504332883242
30
0
10
147.80084710893811
20
-44.547462240844951
30
0
10
147.38462567656413
20
-44.203666188086061
30
0
10
147.05220853021865
20
-43.771599550675269
30
0
10
146.82010558918597
20
-43.309511477813736
30
0
10
146.6799075993911
20
-42.893395386825134
30
0
10
146.62002860020519
20
-42.658234826053885
30
0
10
146.58779985617954
20
-42.56291441124263
30
0
10
146.56652733714455
20
-42.538258519611105
30
0
10
146.55529862081903
20
-42.535555755240537
30
0
0
LINE
5
199
100
AcDbEntity
8
0
100
AcDbLine
10
217.54870141617431
20
-235.5000116606243
30
0
11
220.54870141617431
21
-235.5000116606243
31
0
0
LINE
5
200
100
AcDbEntity
8
0
100
AcDbLine
10
132.50046395476329
20
-195.49904679078361
30
0
11
132.50046395476329
21
-192.49904679078358
31
0
0
LINE
5
201
100
AcDbEntity
8
0
100
AcDbLine
10
162.49971724744259
20
-60.000000823445852
30
0
11
190.00000000000003
21
-60.000000823445816
31
0
0
LWPOLYLINE
5
202
100
AcDbEntity
8
0
100
AcDbPolyline
90
3
70
1
43
0.0
10
197.00000000354791
20
-165
10
197.00000000354791
20
-175.50001166062427
10
197.00000000354791
20
-145.50001166062427
0
CIRCLE
5
203
100
AcDbEntity
8
0
100
AcDbCircle
10
166.36648217489707
20
-40.740933651782996
30
0
40
2.2447518638864619
210
0
220
0
230
1
0
CIRCLE
5
204
100
AcDbEntity
8
0
100
AcDbCircle
10
127.00000189244759
20
-21.000000312924399
30
0
40
1.0461138374641088
210
0
220
0
230
1
0
LINE
5
205
100
AcDbEntity
8
0
100
AcDbLine
10
132.50058336153728
20
-192.49904679078358
30
0
11
132.50058336153728
21
-195.49904679078361
31
0
0
LINE
5
206
100
AcDbEntity
8
0
100
AcDbLine
10
217.54870141617431
20
-235.5000116606243
30
0
11
217.54870141617431
21
-205.5000116606243
31
0
0
LWPOLYLINE
5
207
100
AcDbEntity
8
0
100
AcDbPolyline
90
2
70
1
43
0.0
10
162.45646395476328
20
-242.5000116606243
10
162.45646395476328
20
-245.5000116606243
0
LINE
5
208
100
AcDbEntity
8
0
100
AcDbLine
10
220.54870141617431
20
-195.49904679078361
30
0
11
220.54870141617431
21
-175.50001166062427
31
0
0
LINE
5
209
100
AcDbEntity
8
0
100
AcDbLine
10
200.00000000354791
20
-235.5000116606243
30
0
11
200.00000000354791
21
-245.5000116606243
31
0
0
ARC
5
210
100
AcDbEntity
8
0
100
AcDbCircle
10
430.95244492738527
20
-175.50001166062427
30
0
40
16.790141003708364
210
0
220
0
230
1
100
AcDbArc
50
-111.59801073596942
51
90.103181045881016
0
LINE
5
211
100
AcDbEntity
8
0
100
AcDbLine
10
132.45658336153727
20
-242.5000116606243
30
0
11
162.45646395476328
21
-242.5000116606243
31
0
0
LINE
5
212
100
AcDbEntity
8
0
100
AcDbLine
10
197.00000000354791
20
-235.5000116606243
30
0
11
200.00000000354791
21
-235.5000116606243
31
0
0
LINE
5
213
100
AcDbEntity
8
0
100
AcDbLine
10
197.00000000354791
20
-175.50001166062427
30
0
11
200.00000000354791
21
-175.50001166062427
31
0
0
LINE
5
214
100
AcDbEntity
8
0
100
AcDbLine
10
200.00000000354791
20
-175.50001166062427
30
0
11
200.00000000354791
21
-205.5000116606243
31
0
0
LINE
5
215
100
AcDbEntity
8
0
100
AcDbLine
10
347.54870141617431
20
-235.5000116606243
30
0
11
347.54870141617431
21
-205.5000116606243
31
0
0
LINE
5
216
100
AcDbEntity
8
0
100
AcDbLine
10
324.54870141617437
20
-235.5000116606243
30
0
11
327.54870141617431
21
-235.5000116606243
31
0
0
LWPOLYLINE
5
217
100
AcDbEntity
8
0
100
AcDbPolyline
90
2
70
1
43
0.0
10
287.54870141617431
20
-195.49904679078361
10
287.54870141617431
20
-192.49904679078358
0
LINE
5
218
100
AcDbEntity
8
0
100
AcDbLine
10
347.54870141617431
20
-235.5000116606243
30
0
11
350.54870141617425
21
-235.5000116606243
31
0
0
LINE
5
219
100
AcDbEntity
8
0
100
AcDbLine
10
350.54870141617425
20
-195.49904679078361
30
0
11
350.54870141617425
21
-175.50001166062427
31
0
0
ARC
5
220
100
AcDbEntity
8
0
100
AcDbCircle
10
396.00000396370893
20
-177.0000026375055
30
0
40
10.771097348696655
210
0
220
-0
230
1
100
AcDbArc
50
61.734013023943632
51
301.73136362091634
0
LINE
5
221
100
AcDbEntity
8
0
100
AcDbLine
10
347.54870141617431
20
-205.5000116606243
30
0
11
350.54870141617425
21
-205.5000116606243
31
0
0
SPLINE
5
222
100
AcDbEntity
8
0
100
AcDbSpline
70
6
71
5
72
51
73
45
74
0
42
0.000000001
43
0.0000000001
44
0.0000000001
40
0
40
0
40
0
40
0
40
0
40
0
40
0.025000000000000001
40
0.050000000000000003
40
0.075000000000000011
40
0.10000000000000001
40
0.125
40
0.14999999999999999
40
0.17499999999999999
40
0.19999999999999998
40
0.22499999999999998
40
0.24999999999999997
40
0.27499999999999997
40
0.29999999999999999
40
0.32500000000000001
40
0.35000000000000003
40
0.37500000000000006
40
0.40000000000000008
40
0.4250000000000001
40
0.45000000000000012
40
0.47500000000000014
40
0.50000000000000011
40
0.52500000000000013
40
0.55000000000000016
40
0.57500000000000018
40
0.6000000000000002
40
0.62500000000000022
40
0.65000000000000024
40
0.67500000000000027
40
0.70000000000000029
40
0.72500000000000031
40
0.75000000000000033
40
0.77500000000000036
40
0.80000000000000038
40
0.8250000000000004
40
0.85000000000000042
40
0.87500000000000044
40
0.90000000000000047
40
0.92500000000000049
40
0.95000000000000051
40
0.97500000000000053
40
1
40
1
40
1
40
1
40
1
40
1
41
1
41
1
41
1
41
1
41
1
41
1
41
1
41
1
41
1
41
1
41
1
41
1
41
1
41
1
41
1
41
1
41
1
41
1
41
1
41
1
41
1
41
1
41
1
41
1
41
1
41
1
41
1
41
1
41
1
41
1
41
1
41
1
41
1
41
1
41
1
41
1
41
1
41
1
41
1
41
1
41
1
41
1
41
1
41
1
41
1
10
119.72089736181215
20
-9.7011544962336451
30
0
10
119.71507893176202
20
-9.6992304203377184
30
0
10
119.70288142146016
20
-9.7056012841662724
30
0
10
119.68083176275493
20
-9.7455483224259307
30
0
10
119.63602010464902
20
-9.8527516986347443
30
0
10
119.53906028055682
20
-10.041642972549864
30
0
10
119.39327067958033
20
-10.243802919347665
30
0
10
119.20047330812947
20
-10.421329337460417
30
0
10
118.97590279660182
20
-10.552708667495468
30
0
10
118.74761844927006
20
-10.637919751841807
30
0
10
118.54855186819542
20
-10.690282810298648
30
0
10
118.40995057673986
20
-10.731213188805528
30
0
10
118.35485956252168
20
-10.784124437230416
30
0
10
118.39011986779369
20
-10.868058915557391
30
0
10
118.50381220116952
20
-10.993657080990239
30
0
10
118.67295669228403
20
-11.164042243008009
30
0
10
118.86904856919996
20
-11.374470316563306
30
0
10
119.06409628537608
20
-11.612657770515957
30
0
10
119.23723017476412
20
-11.858262745149158
30
0
10
119.37842328549155
20
-12.084431606587358
30
0
10
119.48600833482581
20
-12.263183049903608
30
0
10
119.56560061864533
20
-12.370102901887652
30
0
10
119.62842304119503
20
-12.389053716433532
30
0
10
119.690078256278
20
-12.317556290256801
30
0
10
119.7686613304562
20
-12.16998912762017
30
0
10
119.88058044895567
20
-11.970997221581015
30
0
10
120.03657801730918
20
-11.750286395237273
30
0
10
120.23787752352573
20
-11.537029345262731
30
0
10
120.47171256513964
20
-11.354161479097378
30
0
10
120.70860123892317
20
-11.213535708434197
30
0
10
120.91166002005833
20
-11.117736434024071
30
0
10
121.04470394666572
20
-11.061119717745287
30
0
10
121.08062347543142
20
-11.0311565110648
30
0
10
121.01010819620781
20
-11.009511650394984
30
0
10
120.84906023493213
20
-10.973492714366071
30
0
10
120.62903492288191
20
-10.901197387499233
30
0
10
120.38884368011804
20
-10.776510037414681
30
0
10
120.16592050582727
20
-10.593986575128909
30
0
10
119.98742176731412
20
-10.364269708700455
30
0
10
119.86248686960727
20
-10.118076145521183
30
0
10
119.78691274939899
20
-9.8956716222628192
30
0
10
119.75479580860595
20
-9.7691698418622295
30
0
10
119.73779200176088
20
-9.7171457395418503
30
0
10
119.72671579186226
20
-9.7030785721295736
30
0
10
119.72089736181215
20
-9.7011544962336451
30
0
0
LINE
5
223
100
AcDbEntity
8
0
100
AcDbLine
10
324.54870141617437
20
-195.49904679078361
30
0
11
324.54870141617437
21
-175.50001166062427
31
0
0
LINE
5
224
100
AcDbEntity
8
0
100
AcDbLine
10
324.54870141617437
20
-235.5000116606243
30
0
11
324.54870141617437
21
-245.4995187420929
31
0
0
LINE
5
225
100
AcDbEntity
8
0
100
AcDbLine
10
350.54870141617425
20
-195.49904679078361
30
0
11
350.54870141617425
21
-205.5000116606243
31
0
0
LINE
5
226
100
AcDbEntity
8
0
100
AcDbLine
10
324.54870141617437
20
-195.49904679078361
30
0
11
324.54870141617437
21
-205.5000116606243
31
0
0
ARC
5
227
100
AcDbEntity
8
0
100
AcDbCircle
10
300.95244492738527
20
-175.50001166062427
30
0
40
16.790141003708335
210
0
220
0
230
1
100
AcDbArc
50
-111.5980107359692
51
90.103181045881016
0
LINE
5
228
100
AcDbEntity
8
0
100
AcDbLine
10
3.0000000745058113
20
-10
30
0
11
3.0000000745058104
21
-40
31
0
0
CIRCLE
5
229
100
AcDbEntity
8
0
100
AcDbCircle
10
125.33318691023659
20
-12.73583111608886
30
0
40
1.4292535447322852
210
0
220
0
230
1
0
LINE
5
230
100
AcDbEntity
8
0
100
AcDbLine
10
327.54870141617431
20
-205.5000116606243
30
0
11
327.54870141617431
21
-235.5000116606243
31
0
0
ARC
5
231
100
AcDbEntity
8
0
100
AcDbCircle
10
100.0000000011045
20
-55.000000024801722
30
0
40
35.030822208796117
210
0
220
0
230
1
100
AcDbArc
50
98.205932052356246
51
180
0
SPLINE
5
232
100
AcDbEntity
8
0
100
AcDbSpline
70
4
71
5
72
21
73
15
74
0
42
0.000000001
43
0.0000000001
44
0.0000000001
40
0
40
0
40
0
40
0
40
0
40
0
40
0.10000000000000001
40
0.20000000000000001
40
0.30000000000000004
40
0.40000000000000002
40
0.5
40
0.59999999999999998
40
0.69999999999999996
40
0.79999999999999993
40
0.89999999999999991
40
1
40
1
40
1
40
1
40
1
40
1
41
1
41
1
41
1
41
1
41
1
41
1
41
1
41
1
41
1
41
1
41
1
41
1
41
1
41
1
41
1
10
104.99971724545023
20
-20.327801765953531
30
0
10
105.79081772581247
20
-21.380161203201553
30
0
10
107.32676912947238
20
-23.459017054391929
30
0
10
109.49195248550043
20
-26.499714551239386
30
0
10
112.09676816936624
20
-30.39622803234866
30
0
10
114.85189898695705
20
-34.987791796027878
30
0
10
117.06475415993913
20
-39.280243225085535
30
0
10
118.69800409062481
20
-43.259070937995304
30
0
10
119.73935190197166
20
-46.928243471899556
30
0
10
120.23263923412438
20
-50.329004234503252
30
0
10
120.31445084991334
20
-53.561492198675978
30
0
10
120.18320816364495
20
-56.107320287476554
30
0
10
120.03792662202601
20
-58.039393594422535
30
0
10
119.92894994678659
20
-59.343746839715237
30
0
10
119.87143255116882
20
-60.000000823445902
30
0
0
ARC
5
233
100
AcDbEntity
8
0
100
AcDbCircle
10
286.55816346285735
20
-184.14370855745938
30
0
40
10.771097348696673
210
0
220
0
230
1
100
AcDbArc
50
275.27652324372093
51
319.69330177741494
0
LINE
5
234
100
AcDbEntity
8
0
100
AcDbLine
10
322.54870141617431
20
-245.4995187420929
30
0
11
222.54870141617431
21
-245.4995187420929
31
0
0
SPLINE
5
235
100
AcDbEntity
8
0
100
AcDbSpline
70
4
71
5
72
26
73
20
74
0
42
0.000000001
43
0.0000000001
44
0.0000000001
40
0
40
0
40
0
40
0
40
0
40
0
40
0.066666666666666666
40
0.13333333333333333
40
0.20000000000000001
40
0.26666666666666666
40
0.33333333333333331
40
0.39999999999999997
40
0.46666666666666662
40
0.53333333333333333
40
0.59999999999999998
40
0.66666666666666663
40
0.73333333333333328
40
0.79999999999999993
40
0.86666666666666659
40
0.93333333333333324
40
1
40
1
40
1
40
1
40
1
40
1
41
1
41
1
41
1
41
1
41
1
41
1
41
1
41
1
41
1
41
1
41
1
41
1
41
1
41
1
41
1
41
1
41
1
41
1
41
1
41
1
10
89.215686739507092
20
-21.670477206527622
30
0
10
88.839625342835035
20
-20.936434067378158
30
0
10
88.073936544254877
20
-19.537492805795551
30
0
10
86.884706089198062
20
-17.646513325605302
30
0
10
85.217072437400702
20
-15.543111261841577
30
0
10
82.996493635748706
20
-13.620428069493371
30
0
10
80.647964949512513
20
-12.402822374004373
30
0
10
78.193135332936194
20
-11.860571008777343
30
0
10
75.673382297791704
20
-11.918131335695186
30
0
10
73.157910133857229
20
-12.430549919354906
30
0
10
70.749121236409152
20
-13.16628613205202
30
0
10
68.565170871850881
20
-13.851454914582714
30
0
10
66.724007145429979
20
-14.208143276211718
30
0
10
65.328251054000816
20
-13.990385174955048
30
0
10
64.443643370347104
20
-13.032474979149651
30
0
10
64.094956436650264
20
-11.25970739407715
30
0
10
64.247263286080468
20
-9.1710748212559636
30
0
10
64.600750398537073
20
-7.2300564956845452
30
0
10
64.941991475496593
20
-5.770750697013308
30
0
10
65.139006946558524
20
-4.9997762179327792
30
0
0
LINE
5
236
100
AcDbEntity
8
0
100
AcDbLine
10
350.54870141617425
20
-235.5000116606243
30
0
11
350.54870141617425
21
-245.4995187420929
31
0
0
LINE
5
237
100
AcDbEntity
8
0
100
AcDbLine
10
324.54870141617437
20
-245.4995187420929
30
0
11
220.54870141617431
21
-245.4995187420929
31
0
0
LINE
5
238
100
AcDbEntity
8
0
100
AcDbLine
10
324.54870141617437
20
-205.5000116606243
30
0
11
327.54870141617431
21
-205.5000116606243
31
0
0
LINE
5
239
100
AcDbEntity
8
0
100
AcDbLine
10
257.54870141617431
20
-192.49904679078358
30
0
11
287.54870141617431
21
-192.49904679078358
31
0
0
LINE
5
240
100
AcDbEntity
8
0
100
AcDbLine
10
454.54870141617437
20
-245.4995187420929
30
0
11
350.54870141617425
21
-245.4995187420929
31
0
0
LINE
5
241
100
AcDbEntity
8
0
100
AcDbLine
10
452.54870141617431
20
-245.4995187420929
30
0
11
352.54870141617431
21
-245.4995187420929
31
0
0
LINE
5
242
100
AcDbEntity
8
0
100
AcDbLine
10
0
20
-10
30
0
11
3.0000000000000009
21
-10
31
0
0
LINE
5
243
100
AcDbEntity
8
0
100
AcDbLine
10
3.0000000035478931
20
-205.5000116606243
30
0
11
3.5479154900444621e-09
21
-205.5000116606243
31
0
0
LWPOLYLINE
5
244
100
AcDbEntity
8
0
100
AcDbPolyline
90
2
70
1
43
0.0
10
37.500000074505799
20
-242.51572144801682
10
37.500000074505799
20
-245.51572144801682
0
LWPOLYLINE
5
245
100
AcDbEntity
8
0
100
AcDbPolyline
90
2
70
1
43
0.0
10
3.0000000035478931
20
-235.5000116606243
10
3.0000000035478931
20
-205.5000116606243
0
LWPOLYLINE
5
246
100
AcDbEntity
8
0
100
AcDbPolyline
90
4
70
1
43
0.0
10
365.27949549705295
20
-205.71312517739341
42
1.7747534734180559
10
375.14105688561199
20
-216.31425152477104
42
0.83116136940435725
10
387.3177617144155
20
-209.38805094721403
42
0.91288543993618754
10
381.51456587127086
20
-201.05356146015609
42
1.1848303555338604
0
ARC
5
247
100
AcDbEntity
8
0
100
AcDbCircle
10
373.08761614537167
20
-234.56552365955338
30
0
40
2.9534302296283204
210
0
220
0
230
1
100
AcDbArc
50
241.57266053852533
51
279.43637295289153
0
LINE
5
248
100
AcDbEntity
8
0
100
AcDbLine
10
3.5479154899213904e-09
20
-245.5000116606243
30
0
11
3.5479154900444621e-09
21
-235.5000116606243
31
0
0
LINE
5
249
100
AcDbEntity
8
0
100
AcDbLine
10
15
20
-213.00000317394733
30
0
11
16.520365660215131
21
-213.00000317394733
31
0
0
LWPOLYLINE
5
250
100
AcDbEntity
8
0
100
AcDbPolyline
90
3
70
1
43
0.0
10
3.0000000035478931
20
-160.00000238418579
10
3.0000000035481418
20
-175.5000116606243
10
3.0000000035481418
20
-145.50001166062427
0
SPLINE
5
251
100
AcDbEntity
8
0
100
AcDbSpline
70
4
71
5
72
13
73
7
74
0
42
0.000000001
43
0.0000000001
44
0.0000000001
40
0
40
0
40
0
40
0
40
0
40
0
40
0.10000000000000001
40
0.19130980923543486
40
0.19130980923543486
40
0.19130980923543486
40
0.19130980923543486
40
0.19130980923543486
40
0.19130980923543486
41
1
41
1
41
1
41
1
41
1
41
1
41
1
10
407.86183009556123
20
-190.49904679078361
30
0
10
408.24898709972933
20
-190.7336254295048
30
0
10
408.97880969954718
20
-191.16984936853555
30
0
10
409.68788168055676
20
-191.58206800796057
30
0
10
410.37587560006961
20
-191.9699025465579
30
0
10
411.04175144584565
20
-192.33214984886985
30
0
10
411.35437986495435
20
-192.49904671933166
30
0
0
LINE
5
252
100
AcDbEntity
8
0
100
AcDbLine
10
3.5479154900444621e-09
20
-145.50001166062427
30
0
11
3.0000000035479157
21
-145.50001166062427
31
0
0
LINE
5
253
100
AcDbEntity
8
0
100
AcDbLine
10
457.54870141617431
20
-205.5000116606243
30
0
11
457.54870141617431
21
-235.5000116606243
31
0
0
LINE
5
254
100
AcDbEntity
8
0
100
AcDbLine
10
3.5479154900444621e-09
20
-145.50001166062427
30
0
11
3.5479154899213904e-09
21
-135.50001166062427
31
0
0
LINE
5
255
100
AcDbEntity
8
0
100
AcDbLine
10
37.500000074505799
20
-245.5000116606243
30
0
11
3.5479154899213904e-09
21
-245.5000116606243
31
0
0
LINE
5
256
100
AcDbEntity
8
0
100
AcDbLine
10
10.000000074505806
20
-55
30
0
11
10.000000074582026
21
-60.00000082344598
31
0
0
LINE
5
257
100
AcDbEntity
8
0
100
AcDbLine
10
3.0000000035478931
20
-235.5000116606243
30
0
11
3.5479154900444621e-09
21
-235.5000116606243
31
0
0
LINE
5
258
100
AcDbEntity
8
0
100
AcDbLine
10
3.0000000745058064
20
-100.00000149011612
30
0
11
3.0000000745058064
21
-70.000001490116119
31
0
0
ARC
5
259
100
AcDbEntity
8
0
100
AcDbCircle
10
416.55816346285735
20
-184.14370855745938
30
0
40
10.771097348696664
210
0
220
0
230
1
100
AcDbArc
50
194.88740513858048
51
216.15958292808594
0
LWPOLYLINE
5
260
100
AcDbEntity
8
0
100
AcDbPolyline
90
2
70
1
43
0.0
10
37.50000232363066
20
-60.000000823445951
10
37.500002323630653
20
-57.000000823445951
0
LINE
5
261
100
AcDbEntity
8
0
100
AcDbLine
10
50.87761524492219
20
-195.49904679078361
30
0
11
52.499855973754599
21
-195.49908761150161
31
0
0
ARC
5
262
100
AcDbEntity
8
0
100
AcDbCircle
10
380.66750384247479
20
-225.66373264454401
30
0
40
3.3488906923609632
210
0
220
-0
230
1
100
AcDbArc
50
1.2565244724301936
51
230.00630813117499
0
LINE
5
263
100
AcDbEntity
8
0
100
AcDbLine
10
10.000000074582026
20
-60.00000082344598
30
0
11
37.50000232363066
21
-60.000000823445951
31
0
0
LINE
5
264
100
AcDbEntity
8
0
100
AcDbLine
10
3.0000000035481418
20
-175.5000116606243
30
0
11
3.5479154857076534e-09
21
-175.5000116606243
31
0
0
LWPOLYLINE
5
265
100
AcDbEntity
8
0
100
AcDbPolyline
90
2
70
1
43
0.0
10
417.54870141617431
20
-195.49904679078361
10
417.54870141617431
20
-192.49904679078358
0
LINE
5
266
100
AcDbEntity
8
0
100
AcDbLine
10
3.5479154900444621e-09
20
-205.5000116606243
30
0
11
3.5479154857076534e-09
21
-175.5000116606243
31
0
0
ARC
5
267
100
AcDbEntity
8
0
100
AcDbCircle
10
416.55816346285735
20
-184.14370855745938
30
0
40
10.771097594703624
210
0
220
0
230
1
100
AcDbArc
50
283.09883458520716
51
319.69330177741477
0
LWPOLYLINE
5
268
100
AcDbEntity
8
0
100
AcDbPolyline
90
3
70
1
43
0.0
10
387.54870141617431
20
-195.49904679078361
10
417.54870141617431
20
-195.49904679078361
10
402.54870141617431
20
-195.49904679078361
0
LINE
5
269
100
AcDbEntity
8
0
100
AcDbLine
10
37.500000074505806
20
-192.49904679078358
30
0
11
37.500000074505806
21
-195.49871016758908
31
0
0
LINE
5
270
100
AcDbEntity
8
0
100
AcDbLine
10
3.0000000035481418
20
-145.50001166062427
30
0
11
3.5479154900444621e-09
21
-145.50001166062427
31
0
0
LINE
5
271
100
AcDbEntity
8
0
100
AcDbLine
10
387.54870141617431
20
-195.49904679078361
30
0
11
387.54870141617431
21
-192.49904679078358
31
0
0
LINE
5
272
100
AcDbEntity
8
0
100
AcDbLine
10
454.54870141617437
20
-195.49904679078361
30
0
11
454.54870141617437
21
-205.5000116606243
31
0
0
LINE
5
273
100
AcDbEntity
8
0
100
AcDbLine
10
5.000000074505806
20
-105.00022385657303
30
0
11
6.2518895486661741
21
-105.00022385657303
31
0
0
LINE
5
274
100
AcDbEntity
8
0
100
AcDbLine
10
3.5479154900444621e-09
20
-145.50001166062427
30
0
11
3.0000000447034836
21
-145.50001166062427
31
0
0
LINE
5
275
100
AcDbEntity
8
0
100
AcDbLine
10
454.54870141617437
20
-205.5000116606243
30
0
11
457.54870141617431
21
-205.5000116606243
31
0
0
LINE
5
276
100
AcDbEntity
8
0
100
AcDbLine
10
6.2518895486661741
20
-105.00022385657303
30
0
11
6.2518895486661741
21
-105
31
0
0
ARC
5
277
100
AcDbEntity
8
0
100
AcDbCircle
10
410
20
-170.00000000000003
30
0
40
9.240086131289134
210
0
220
0
230
1
100
AcDbArc
50
248.7423139586657
51
252.37628047138841
0
LINE
5
278
100
AcDbEntity
8
0
100
AcDbLine
10
417.54870141617431
20
-192.49904679078358
30
0
11
387.54870141617431
21
-192.49904679078358
31
0
0
ARC
5
279
100
AcDbEntity
8
0
100
AcDbCircle
10
375.19545466188629
20
-230.34984204077114
30
0
40
3.8953250811560998
210
0
220
-0
230
1
100
AcDbArc
50
32.349251019648086
51
164.38781864347501
0
ARC
5
280
100
AcDbEntity
8
0
100
AcDbCircle
10
384.02833598761561
20
-232.66847122494448
30
0
40
7.0781869820919754
210
0
220
0
230
1
100
AcDbArc
50
-111.59801073596856
51
90.103181045881286
0
LINE
5
281
100
AcDbEntity
8
0
100
AcDbLine
10
454.54870141617437
20
-235.5000116606243
30
0
11
457.54870141617431
21
-235.5000116606243
31
0
0
LINE
5
282
100
AcDbEntity
8
0
100
AcDbLine
10
454.54870141617437
20
-235.5000116606243
30
0
11
454.54870141617437
21
-245.4995187420929
31
0
0
SPLINE
5
283
100
AcDbEntity
8
0
100
AcDbSpline
70
4
71
5
72
14
73
8
74
0
42
0.000000001
43
0.0000000001
44
0.0000000001
40
0.64097717999389925
40
0.64097717999389925
40
0.64097717999389925
40
0.64097717999389925
40
0.64097717999389925
40
0.64097717999389925
40
0.69999999999999996
40
0.79999999999999993
40
0.82031776208153018
40
0.82031776208153018
40
0.82031776208153018
40
0.82031776208153018
40
0.82031776208153018
40
0.82031776208153018
41
1
41
1
41
1
41
1
41
1
41
1
41
1
41
1
10
417.54870141618494
20
-194.86916298410978
30
0
10
417.66486330714156
20
-194.87764715744876
30
0
10
417.96863495605322
20
-194.8898642550796
30
0
10
418.28315255046834
20
-194.87117438852584
30
0
10
418.56598944321968
20
-194.81583478443247
30
0
10
418.81797258139602
20
-194.72480209439769
30
0
10
418.97339575224095
20
-194.6479616655256
30
0
10
418.99925423990726
20
-194.63453760654414
30
0
0
LINE
5
284
100
AcDbEntity
8
0
100
AcDbLine
10
387.54870141617431
20
-195.49904679078361
30
0
11
387.54870141617431
21
-192.49904679078358
31
0
0
ARC
5
285
100
AcDbEntity
8
0
100
AcDbCircle
10
405.00000409781939
20
-180.00000268220899
30
0
40
7.0058208585806794
210
0
220
0
230
1
100
AcDbArc
50
241.57266053852442
51
279.43637295289085
0
ARC
5
286
100
AcDbEntity
8
0
100
AcDbCircle
10
377.96016683666653
20
-236.31237766020399
30
0
40
4.5407504927773932
210
0
220
0
230
1
100
AcDbArc
50
194.88740513858107
51
319.693301777415
0
ARC
5
287
100
AcDbEntity
8
0
100
AcDbCircle
10
369.29350364959123
20
-233.30081949429319
30
0
40
4.5407504927773044
210
0
220
-0
230
1
100
AcDbArc
50
61.734013023944073
51
301.7313636209156
0
ENDSEC
0
SECTION
2
OBJECTS
0
DICTIONARY
5
C
100
AcDbDictionary
3
ACAD_GROUP
350
D
3
ACAD_MLINESTYLE
350
17
0
DICTIONARY
5
D
100
AcDbDictionary
0
DICTIONARY
5
1A
330
C
100
AcDbDictionary
0
DICTIONARY
5
17
100
AcDbDictionary
0
ENDSEC
0
EOF
