0
SECTION
2
HEADER
9
$INSUNITS
70
4
9
$ACADVER
1
AC1014
9
$HANDSEED
5
FFFF
0
ENDSEC
0
SECTION
2
TABLES
0
TABLE
2
VPORT
5
8
100
AcDbSymbolTable
0
ENDTAB
0
TABLE
2
LTYPE
5
5
100
AcDbSymbolTable
0
LTYPE
5
14
100
AcDbSymbolTableRecord
100
AcDbLinetypeTableRecord
2
BYBLOCK
70
0
0
LTYPE
5
15
100
AcDbSymbolTableRecord
100
AcDbLinetypeTableRecord
2
BYLAYER
70
0
0
ENDTAB
0
TABLE
2
LAYER
5
2
100
AcDbSymbolTable
70
2
0
LAYER
5
50
100
AcDbSymbolTableRecord
100
AcDbLayerTableRecord
2
0
70
0
6
CONTINUOUS
0
ENDTAB
0
TABLE
2
STYLE
5
3
100
AcDbSymbolTable
70
1
0
STYLE
5
11
100
AcDbSymbolTableRecord
100
AcDbTextStyleTableRecord
2
STANDARD
70
0
0
ENDTAB
0
TABLE
2
VIEW
5
6
100
AcDbSymbolTable
70
0
0
ENDTAB
0
TABLE
2
UCS
5
7
100
AcDbSymbolTable
70
0
0
ENDTAB
0
TABLE
2
APPID
5
9
100
AcDbSymbolTable
70
2
0
APPID
5
12
100
AcDbSymbolTableRecord
100
AcDbRegAppTableRecord
2
ACAD
70
0
0
ENDTAB
0
TABLE
2
DIMSTYLE
5
A
100
AcDbSymbolTable
70
1
0
ENDTAB
0
TABLE
2
BLOCK_RECORD
5
1
100
AcDbSymbolTable
70
1
0
BLOCK_RECORD
5
1F
100
AcDbSymbolTableRecord
100
AcDbBlockTableRecord
2
*MODEL_SPACE
0
BLOCK_RECORD
5
1B
100
AcDbSymbolTableRecord
100
AcDbBlockTableRecord
2
*PAPER_SPACE
0
ENDTAB
0
ENDSEC
0
SECTION
2
BLOCKS
0
BLOCK
5
20
100
AcDbEntity
100
AcDbBlockBegin
2
*MODEL_SPACE
0
ENDBLK
5
21
100
AcDbEntity
100
AcDbBlockEnd
0
BLOCK
5
1C
100
AcDbEntity
100
AcDbBlockBegin
2
*PAPER_SPACE
0
ENDBLK
5
1D
100
AcDbEntity
100
AcDbBlockEnd
0
ENDSEC
0
SECTION
2
ENTITIES
0
LINE
5
100
100
AcDbEntity
8
0
100
AcDbLine
10
-155.04700641746214
20
-129.18498624829542
30
0
11
-70.047006417462143
21
-129.18498624829542
31
0
0
LWPOLYLINE
5
101
100
AcDbEntity
8
0
100
AcDbPolyline
90
2
70
1
43
0.0
10
-150.00000223517418
20
0
10
-140.00000208616257
20
0
0
LWPOLYLINE
5
102
100
AcDbEntity
8
0
100
AcDbPolyline
90
36
70
1
43
0.0
10
-155
20
-10.000000149011612
10
-151.99999995529652
20
-10.000000149011612
10
-152.00000157207251
20
-3.0000000447034836
10
-150.00000223517418
20
-3.0000000447034836
10
-150.00000223517418
20
0
10
-120.00000223517418
20
0
10
-120.00000178813934
20
-3.0000000447034836
10
-105.00000111758709
20
-3.0000000447034836
10
-105.00000111758709
20
0
10
-75.00000111758709
20
0
10
-75.00000111758709
20
-3.0000000447034836
10
-73.000000761450167
20
-2.9999914512011125
10
-72.999999999999659
20
-10.000000149011612
10
-70
20
-10.000000149011612
10
-70
20
-40.000000149011612
10
-72.999999999999659
20
-40.000000149011612
10
-73
20
-67.000000000000014
10
-70
20
-67.000000000000014
10
-70
20
-97.000000000000014
10
-73
20
-97.000001445412636
10
-73.000001087784767
20
-104.00000154972076
10
-75.000001175919678
20
-104.00000009722106
10
-75.000001060889986
20
-107.00000009722102
10
-105.00000111758709
20
-107.00000068054698
10
-105.00000117591968
20
-104.00000068054698
10
-120.00000229350678
20
-104.00000097220979
10
-120.00000005013473
20
-107.00000097220992
10
-150.00000223517418
20
-107.00000155553589
10
-150.00000229350678
20
-104.00000155553587
10
-151.99999995529652
20
-104.00000159442425
10
-151.99999995529652
20
-97
10
-155
20
-97
10
-155
20
-67
10
-152.0000022649765
20
-67
10
-151.99999995529652
20
-40.000000596046448
10
-155
20
-40.000000149011612
0
LINE
5
103
100
AcDbEntity
8
0
100
AcDbLine
10
-150.00000223517418
20
-107.00000155553589
30
0
11
-150.00000217684158
21
-110.0000015555359
31
0
0
LWPOLYLINE
5
104
100
AcDbEntity
8
0
100
AcDbPolyline
90
2
70
1
43
0.0
10
-150.00000217684158
20
-176.18498624829542
10
-150.00000217684158
20
-179.18498624829542
0
LINE
5
105
100
AcDbEntity
8
0
100
AcDbLine
10
-120.00000217684159
20
-176.18498624829542
30
0
11
-120.00000217684159
21
-179.18498624829542
31
0
0
LWPOLYLINE
5
106
100
AcDbEntity
8
0
100
AcDbPolyline
90
2
70
1
43
0.0
10
-105.0000010592545
20
-176.18498624829542
10
-105.0000010592545
20
-179.18498624829542
0
LINE
5
107
100
AcDbEntity
8
0
100
AcDbLine
10
-75.000001059254501
20
-176.18498624829542
30
0
11
-75.000001059254501
21
-179.18498624829542
31
0
0
LINE
5
108
100
AcDbEntity
8
0
100
AcDbLine
10
-150.00000217684158
20
-176.18498624829542
30
0
11
-120.00000217684159
21
-176.18498624829542
31
0
0
LINE
5
109
100
AcDbEntity
8
0
100
AcDbLine
10
-150.00000217684158
20
-179.18498624829542
30
0
11
-155.04700641746214
21
-179.18498624829542
31
0
0
LINE
5
110
100
AcDbEntity
8
0
100
AcDbLine
10
-105.0000010592545
20
-176.18498624829542
30
0
11
-75.000001059254501
21
-176.18498624829542
31
0
0
LINE
5
111
100
AcDbEntity
8
0
100
AcDbLine
10
-70.047006417462143
20
-179.18498624829542
30
0
11
-75.000001059254501
21
-179.18498624829542
31
0
0
LINE
5
112
100
AcDbEntity
8
0
100
AcDbLine
10
-105.0000010592545
20
-179.18498624829542
30
0
11
-120.00000217684159
21
-179.18498624829542
31
0
0
LINE
5
113
100
AcDbEntity
8
0
100
AcDbLine
10
-155.04700641746214
20
-179.18498624829542
30
0
11
-155.04700641746214
21
-169.18498624829542
31
0
0
LINE
5
114
100
AcDbEntity
8
0
100
AcDbLine
10
-155.04700641746214
20
-169.18498624829542
30
0
11
-152.04700641746214
21
-169.18498624829542
31
0
0
LINE
5
115
100
AcDbEntity
8
0
100
AcDbLine
10
-152.04700641746214
20
-169.18498624829542
30
0
11
-152.04700641746214
21
-139.18498624829542
31
0
0
LINE
5
116
100
AcDbEntity
8
0
100
AcDbLine
10
-152.04700641746214
20
-139.18498624829542
30
0
11
-155.04700641746214
21
-139.18498624829542
31
0
0
LINE
5
117
100
AcDbEntity
8
0
100
AcDbLine
10
-155.04700641746214
20
-179.18498624829542
30
0
11
-155.04700641746214
21
-169.18498624829542
31
0
0
LINE
5
118
100
AcDbEntity
8
0
100
AcDbLine
10
-155.04700641746214
20
-139.18498624829542
30
0
11
-155.04700641746214
21
-129.18498624829542
31
0
0
LWPOLYLINE
5
119
100
AcDbEntity
8
0
100
AcDbPolyline
90
2
70
1
43
0.0
10
-73.047006417462143
20
-139.18498624829542
10
-70.047006417462143
20
-139.18498624829542
0
LINE
5
120
100
AcDbEntity
8
0
100
AcDbLine
10
-73.047006417462143
20
-169.18498624829542
30
0
11
-70.045769098725472
21
-169.18498624829542
31
0
0
LINE
5
121
100
AcDbEntity
8
0
100
AcDbLine
10
-73.047006417462143
20
-139.18498624829542
30
0
11
-73.047006417462143
21
-169.18498624829542
31
0
0
LINE
5
122
100
AcDbEntity
8
0
100
AcDbLine
10
-70.047006417462143
20
-129.18498624829542
30
0
11
-70.047006417462143
21
-139.18498624829542
31
0
0
LINE
5
123
100
AcDbEntity
8
0
100
AcDbLine
10
-70.047006417462143
20
-169.18498624829542
30
0
11
-70.047006417462143
21
-179.18498624829542
31
0
0
SPLINE
5
124
100
AcDbEntity
8
0
100
AcDbSpline
70
4
71
5
72
26
73
20
74
0
42
0.000000001
43
0.0000000001
44
0.0000000001
40
0
40
0
40
0
40
0
40
0
40
0
40
0.066666666666666666
40
0.13333333333333333
40
0.20000000000000001
40
0.26666666666666666
40
0.33333333333333331
40
0.39999999999999997
40
0.46666666666666662
40
0.53333333333333333
40
0.59999999999999998
40
0.66666666666666663
40
0.73333333333333328
40
0.79999999999999993
40
0.86666666666666659
40
0.93333333333333324
40
1
40
1
40
1
40
1
40
1
40
1
41
1
41
1
41
1
41
1
41
1
41
1
41
1
41
1
41
1
41
1
41
1
41
1
41
1
41
1
41
1
41
1
41
1
41
1
41
1
41
1
10
-98.133170324007054
20
-141.37328139773194
30
0
10
-98.980910361519378
20
-141.59691846645549
30
0
10
-100.60457053701894
20
-142.08105589809654
30
0
10
-102.8245886408028
20
-142.91785722911069
30
0
10
-105.35064274401554
20
-144.25634507160248
30
0
10
-107.78506651709434
20
-146.30259540795581
30
0
10
-109.53235986603728
20
-148.70959344311026
30
0
10
-110.68867665852579
20
-151.43998114470895
30
0
10
-111.45272411857952
20
-154.41274697346071
30
0
10
-112.11313156231273
20
-157.50824947492279
30
0
10
-112.98716547966387
20
-160.5940855020325
30
0
10
-114.37817138253419
20
-163.54277438404506
30
0
10
-116.5174937685026
20
-166.25563260514181
30
0
10
-119.53324209593865
20
-168.67568390404466
30
0
10
-123.48700792757663
20
-170.77335310939762
30
0
10
-128.39386922407829
20
-172.53868961624735
30
0
10
-133.07419201595621
20
-173.68593218114128
30
0
10
-137.00119200670085
20
-174.3997022020682
30
0
10
-139.80308229126348
20
-174.8108355047535
30
0
10
-141.24999992549914
20
-175.00022385657303
30
0
0
LINE
5
125
100
AcDbEntity
8
0
100
AcDbLine
10
-154.99999992419805
20
-175.00022385657502
30
0
11
-141.24999992549914
21
-175.00022385657303
31
0
0
SPLINE
5
126
100
AcDbEntity
8
0
100
AcDbSpline
70
4
71
5
72
26
73
20
74
0
42
0.000000001
43
0.0000000001
44
0.0000000001
40
0
40
0
40
0
40
0
40
0
40
0
40
0.066666666666666666
40
0.13333333333333333
40
0.20000000000000001
40
0.26666666666666666
40
0.33333333333333331
40
0.39999999999999997
40
0.46666666666666662
40
0.53333333333333333
40
0.59999999999999998
40
0.66666666666666663
40
0.73333333333333328
40
0.79999999999999993
40
0.86666666666666659
40
0.93333333333333324
40
1
40
1
40
1
40
1
40
1
40
1
41
1
41
1
41
1
41
1
41
1
41
1
41
1
41
1
41
1
41
1
41
1
41
1
41
1
41
1
41
1
41
1
41
1
41
1
41
1
41
1
10
-94.59319420945161
20
-148.74570250757827
30
0
10
-94.882269503795641
20
-149.16407323844425
30
0
10
-95.434476680651642
20
-149.99611107048594
30
0
10
-96.184958121553336
20
-151.23005723454366
30
0
10
-97.028801940410716
20
-152.84688981981273
30
0
10
-97.816561782138592
20
-154.81951488650429
30
0
10
-98.331990434856436
20
-156.74274942334753
30
0
10
-98.574405294297932
20
-158.61647618907929
30
0
10
-98.552218230075752
20
-160.44214665127049
30
0
10
-98.289377979180387
20
-162.22418891526638
30
0
10
-97.829384960879509
20
-163.96991845753135
30
0
10
-97.232400818610984
20
-165.68607410212542
30
0
10
-96.575197469085836
20
-167.37596106706906
30
0
10
-95.950192700073956
20
-169.03679065923723
30
0
10
-95.467586519469023
20
-170.65589861872445
30
0
10
-95.250313892342589
20
-172.2104788929596
30
0
10
-95.38007710473984
20
-173.38249994811392
30
0
10
-95.687019387302229
20
-174.21180047960135
30
0
10
-95.989689164563373
20
-174.74130933427375
30
0
10
-96.165535386624157
20
-175.00022385657303
30
0
0
ARC
5
127
100
AcDbEntity
8
0
100
AcDbCircle
10
-65
20
-130.0000000372529
30
0
40
35.030822208796089
210
0
220
0
230
1
100
AcDbArc
50
178.66685789304637
51
256.71987302174
0
SPLINE
5
128
100
AcDbEntity
8
0
100
AcDbSpline
70
4
71
5
72
16
73
10
74
0
42
0.000000001
43
0.0000000001
44
0.0000000001
40
0
40
0
40
0
40
0
40
0
40
0
40
0.20000000000000001
40
0.40000000000000002
40
0.60000000000000009
40
0.80000000000000004
40
1
40
1
40
1
40
1
40
1
40
1
41
1
41
1
41
1
41
1
41
1
41
1
41
1
41
1
41
1
41
1
10
-137.54646187515525
20
-135.00000050897091
30
0
10
-137.97783882050493
20
-135.26932647034579
30
0
10
-138.91845006997943
20
-135.76799583553532
30
0
10
-140.56272890207742
20
-136.39616011402535
30
0
10
-143.15744081783981
20
-137.02709633440296
30
0
10
-146.84719271555227
20
-137.58654364675357
30
0
10
-150.01805218223413
20
-137.92160735126328
30
0
10
-152.47893790197
20
-138.13041458496068
30
0
10
-154.15391277428222
20
-138.25196178361801
30
0
10
-154.9999999241935
20
-138.30831912023706
30
0
0
SPLINE
5
129
100
AcDbEntity
8
0
100
AcDbSpline
70
4
71
5
72
26
73
20
74
0
42
0.000000001
43
0.0000000001
44
0.0000000001
40
0
40
0
40
0
40
0
40
0
40
0
40
0.066666666666666666
40
0.13333333333333333
40
0.20000000000000001
40
0.26666666666666666
40
0.33333333333333331
40
0.39999999999999997
40
0.46666666666666662
40
0.53333333333333333
40
0.59999999999999998
40
0.66666666666666663
40
0.73333333333333328
40
0.79999999999999993
40
0.86666666666666659
40
0.93333333333333324
40
1
40
1
40
1
40
1
40
1
40
1
41
1
41
1
41
1
41
1
41
1
41
1
41
1
41
1
41
1
41
1
41
1
41
1
41
1
41
1
41
1
41
1
41
1
41
1
41
1
41
1
10
-83.950582684089156
20
-159.46241542631739
30
0
10
-84.19900440498273
20
-159.61662450721616
30
0
10
-84.664258255308269
20
-159.93222001513973
30
0
10
-85.267369164095257
20
-160.42714560332118
30
0
10
-85.880608792850921
20
-161.13042164390575
30
0
10
-86.324154111697368
20
-162.08272512620826
30
0
10
-86.445064641213577
20
-163.10760386124349
30
0
10
-86.255633978840009
20
-164.20116620899205
30
0
10
-85.789640714358896
20
-165.35385794912546
30
0
10
-85.107847465293645
20
-166.5490947378652
30
0
10
-84.287524745270929
20
-167.76592778920724
30
0
10
-83.41584854919715
20
-168.98075758108544
30
0
10
-82.582499959241446
20
-170.16928487901799
30
0
10
-81.873424707601231
20
-171.30818767890432
30
0
10
-81.363017952711886
20
-172.37727953974786
30
0
10
-81.109769867076821
20
-173.360704939188
30
0
10
-81.147946293244999
20
-174.06938315666534
30
0
10
-81.324580278578736
20
-174.55354825450405
30
0
10
-81.509496655565869
20
-174.85490241524718
30
0
10
-81.618744917286278
20
-175.00022385658568
30
0
0
SPLINE
5
130
100
AcDbEntity
8
0
100
AcDbSpline
70
4
71
5
72
26
73
20
74
0
42
0.000000001
43
0.0000000001
44
0.0000000001
40
0
40
0
40
0
40
0
40
0
40
0
40
0.066666666666666666
40
0.13333333333333333
40
0.20000000000000001
40
0.26666666666666666
40
0.33333333333333331
40
0.39999999999999997
40
0.46666666666666662
40
0.53333333333333333
40
0.59999999999999998
40
0.66666666666666663
40
0.73333333333333328
40
0.79999999999999993
40
0.86666666666666659
40
0.93333333333333324
40
0.97059576428353522
40
0.97059576428353522
40
0.97059576428353522
40
0.97059576428353522
40
0.97059576428353522
40
0.97059576428353522
41
1
41
1
41
1
41
1
41
1
41
1
41
1
41
1
41
1
41
1
41
1
41
1
41
1
41
1
41
1
41
1
41
1
41
1
41
1
41
1
10
-99.879225854362176
20
-133.25547364714055
30
0
10
-100.96046927074282
20
-133.18566437064072
30
0
10
-103.05844796140755
20
-133.11140383609549
30
0
10
-106.01188796166406
20
-133.19609037838251
30
0
10
-109.55996880246261
20
-133.7039833009357
30
0
10
-113.34147596201811
20
-135.00245948740297
30
0
10
-116.48846027957234
20
-136.94951683008102
30
0
10
-119.06264436628743
20
-139.49118984127171
30
0
10
-121.19567192607965
20
-142.50879945946923
30
0
10
-123.10475262175898
20
-145.80393648072751
30
0
10
-125.047371269211
20
-149.14046838177924
30
0
10
-127.28435520274584
20
-152.27846573925675
30
0
10
-130.04406458529618
20
-155.00706266818244
30
0
10
-133.47509778617734
20
-157.18741036606576
30
0
10
-137.65178634088369
20
-158.74809626047639
30
0
10
-142.1656943366267
20
-159.5795873114368
30
0
10
-146.17915112725254
20
-159.81658853578682
30
0
10
-149.31478666798867
20
-159.77645310916421
30
0
10
-151.31722663496919
20
-159.674332478786
30
0
10
-152.04700641746129
20
-159.62774870871516
30
0
0
SPLINE
5
131
100
AcDbEntity
8
0
100
AcDbSpline
70
4
71
5
72
13
73
7
74
0
42
0.000000001
43
0.0000000001
44
0.0000000001
40
0
40
0
40
0
40
0
40
0
40
0
40
0.20000000000000001
40
0.24109227549989132
40
0.24109227549989132
40
0.24109227549989132
40
0.24109227549989132
40
0.24109227549989132
40
0.24109227549989132
41
1
41
1
41
1
41
1
41
1
41
1
41
1
10
-96.165535386624157
20
-175.00022385657303
30
0
10
-96.297848719959958
20
-175.19504091373236
30
0
10
-96.455911705944544
20
-175.43079709228385
30
0
10
-96.612245655751053
20
-175.66765135004843
30
0
10
-96.766994331269245
20
-175.90551238648132
30
0
10
-96.92033554147568
20
-176.1442672783574
30
0
10
-96.946431351313592
20
-176.18498656165755
30
0
0
SPLINE
5
132
100
AcDbEntity
8
0
100
AcDbSpline
70
4
71
5
72
13
73
7
74
0
42
0.000000001
43
0.0000000001
44
0.0000000001
40
0
40
0
40
0
40
0
40
0
40
0
40
0.20000000000000001
40
0.2399033300995661
40
0.2399033300995661
40
0.2399033300995661
40
0.2399033300995661
40
0.2399033300995661
40
0.2399033300995661
41
1
41
1
41
1
41
1
41
1
41
1
41
1
10
-81.618744917286278
20
-175.00022385658568
30
0
10
-81.766314213163284
20
-175.19651972835919
30
0
10
-81.942427936833468
20
-175.43262828123841
30
0
10
-82.117465339114716
20
-175.66951388458199
30
0
10
-82.291515470154479
20
-175.90711224861514
30
0
10
-82.464688365817238
20
-176.14534393292087
30
0
10
-82.493468611599909
20
-176.1849863651766
30
0
0
SPLINE
5
133
100
AcDbEntity
8
0
100
AcDbSpline
70
4
71
5
72
16
73
10
74
0
42
0.000000001
43
0.0000000001
44
0.0000000001
40
0
40
0
40
0
40
0
40
0
40
0
40
0.10000000000000001
40
0.20000000000000001
40
0.30000000000000004
40
0.40000000000000002
40
0.46249777551867688
40
0.46249777551867688
40
0.46249777551867688
40
0.46249777551867688
40
0.46249777551867688
40
0.46249777551867688
41
1
41
1
41
1
41
1
41
1
41
1
41
1
41
1
41
1
41
1
10
-77.744305029319804
20
-162.63037229905734
30
0
10
-77.462850596119992
20
-162.81043394065875
30
0
10
-76.915718302743997
20
-163.17641904575839
30
0
10
-76.142347889357808
20
-163.7429815402856
30
0
10
-75.207415296076448
20
-164.53415191815162
30
0
10
-74.284863739172991
20
-165.50781409298389
30
0
10
-73.684506085688923
20
-166.31655146983917
30
0
10
-73.318792556983368
20
-166.92783472762437
30
0
10
-73.119579589979139
20
-167.31634496915362
30
0
10
-73.047006419478464
20
-167.46727183567546
30
0
0
LINE
5
134
100
AcDbEntity
8
0
100
AcDbLine
10
-155.4934579903757
20
73.938886678939355
30
0
11
-70.493457990375703
21
73.938886678939355
31
0
0
LINE
5
135
100
AcDbEntity
8
0
100
AcDbLine
10
-105.44645263216806
20
23.938886678939362
30
0
11
-105.44645263216806
21
26.938886678939369
31
0
0
LINE
5
136
100
AcDbEntity
8
0
100
AcDbLine
10
-75.446452632168061
20
26.938886678939369
30
0
11
-75.446452632168061
21
23.938886678939362
31
0
0
LINE
5
137
100
AcDbEntity
8
0
100
AcDbLine
10
-105.44645263216806
20
26.938886678939369
30
0
11
-75.446452632168061
21
26.938886678939369
31
0
0
LINE
5
138
100
AcDbEntity
8
0
100
AcDbLine
10
-70.493457990375703
20
33.938886678939362
30
0
11
-70.493457990375703
21
23.938886678939362
31
0
0
LINE
5
139
100
AcDbEntity
8
0
100
AcDbLine
10
-73.493457990375703
20
33.938886678939362
30
0
11
-70.492220671639032
21
33.938886678939362
31
0
0
LINE
5
140
100
AcDbEntity
8
0
100
AcDbLine
10
-70.493457990375703
20
73.938886678939355
30
0
11
-70.493457990375703
21
63.938886678939362
31
0
0
LWPOLYLINE
5
141
100
AcDbEntity
8
0
100
AcDbPolyline
90
2
70
1
43
0.0
10
-70.493457990375703
20
63.938886678939362
10
-73.493457990375703
20
63.938886678939362
0
LINE
5
142
100
AcDbEntity
8
0
100
AcDbLine
10
-155.4934579903757
20
23.938886678939362
30
0
11
-155.4934579903757
21
33.938886678939362
31
0
0
LINE
5
143
100
AcDbEntity
8
0
100
AcDbLine
10
-70.493457990375703
20
23.938886678939362
30
0
11
-75.446452632168061
21
23.938886678939362
31
0
0
LINE
5
144
100
AcDbEntity
8
0
100
AcDbLine
10
-152.4934579903757
20
33.938886678939362
30
0
11
-152.4934579903757
21
63.938886678939362
31
0
0
LWPOLYLINE
5
145
100
AcDbEntity
8
0
100
AcDbPolyline
90
2
70
1
43
0.0
10
-150.44645374975516
20
26.938886678939387
10
-150.44645374975516
20
23.938886678939379
0
LINE
5
146
100
AcDbEntity
8
0
100
AcDbLine
10
-152.4934579903757
20
63.938886678939362
30
0
11
-155.4934579903757
21
63.938886678939362
31
0
0
LINE
5
147
100
AcDbEntity
8
0
100
AcDbLine
10
-105.44645263216806
20
26.938886678939369
30
0
11
-105.44645263216806
21
23.938886678939362
31
0
0
LINE
5
148
100
AcDbEntity
8
0
100
AcDbLine
10
-120.44645374975515
20
26.938886678939369
30
0
11
-120.44645374975515
21
23.938886678939362
31
0
0
LINE
5
149
100
AcDbEntity
8
0
100
AcDbLine
10
-73.493457990375703
20
63.938886678939362
30
0
11
-73.493457990375703
21
33.938886678939362
31
0
0
LINE
5
150
100
AcDbEntity
8
0
100
AcDbLine
10
-155.4934579903757
20
33.938886678939362
30
0
11
-152.4934579903757
21
33.938886678939362
31
0
0
LINE
5
151
100
AcDbEntity
8
0
100
AcDbLine
10
-155.4934579903757
20
23.938886678939362
30
0
11
-155.4934579903757
21
33.938886678939362
31
0
0
LINE
5
152
100
AcDbEntity
8
0
100
AcDbLine
10
-105.44645263216806
20
23.938886678939362
30
0
11
-120.44645374975515
21
23.938886678939362
31
0
0
LINE
5
153
100
AcDbEntity
8
0
100
AcDbLine
10
-155.4934579903757
20
63.938886678939362
30
0
11
-155.4934579903757
21
73.938886678939355
31
0
0
LINE
5
154
100
AcDbEntity
8
0
100
AcDbLine
10
-150.44645374975516
20
26.938886678939387
30
0
11
-120.44645374975515
21
26.938886678939369
31
0
0
LINE
5
155
100
AcDbEntity
8
0
100
AcDbLine
10
-150.44645374975516
20
23.938886678939379
30
0
11
-155.4934579903757
21
23.938886678939362
31
0
0
LWPOLYLINE
5
156
100
AcDbEntity
8
0
100
AcDbPolyline
90
20
70
1
43
0.0
10
-185
20
0
10
-215
20
0
10
-215
20
-3.0000000000000004
10
-225.00000335276127
20
-3.0000000000000004
10
-225
20
-104
10
-215
20
-104
10
-215
20
-107.00000000000001
10
-185.00000275671482
20
-107.00000000000001
10
-185
20
-104
10
-175.00000260770321
20
-104
10
-175.00000243218471
20
-97.000000250738566
10
-178.00000990855887
20
-97.000000175516178
10
-178.00000167996268
20
-67.000000175518437
10
-175.00000260770321
20
-67.0000009983778
10
-175.00000100296276
20
-40.000000250740669
10
-178.00000100296276
20
-40.000000175518466
10
-178.0000002507407
20
-10.000000175518483
10
-175.0000002507407
20
-10.00000025074069
10
-175.0000000752222
20
-3.0000002507406922
10
-185
20
-3.0000000000000004
0
LINE
5
157
100
AcDbEntity
8
0
100
AcDbLine
10
-215
20
-3.0000000000000004
30
0
11
-215
21
0
31
0
0
LINE
5
158
100
AcDbEntity
8
0
100
AcDbLine
10
-175.0000000752222
20
-3.0000002507406922
30
0
11
-175.0000002507407
21
-10.00000025074069
31
0
0
LINE
5
159
100
AcDbEntity
8
0
100
AcDbLine
10
-178.00000167996268
20
-67.000000175518437
30
0
11
-181.00000167996268
21
-67.000000100296234
31
0
0
LINE
5
160
100
AcDbEntity
8
0
100
AcDbLine
10
-178.00000167996268
20
-67.000000175518437
30
0
11
-178.00000990855887
21
-97.000000175516178
31
0
0
LWPOLYLINE
5
161
100
AcDbEntity
8
0
100
AcDbPolyline
90
20
70
1
43
0.0
10
-24.999999999999858
20
-3.0000034302582805
10
-14.999999925709311
20
-3.0000036809989759
10
-15.000000101227826
20
-10.000003680998974
10
-18.000000101227691
20
-10.00000360577677
10
-18.000000853449762
20
-40.00000360577674
10
-15.000000853449791
20
-40.000003680998958
10
-15.000001530449723
20
-67.000003680998873
10
-18.000001022075942
20
-67.000003605776811
10
-18.000001774298013
20
-97.000003605775746
10
-15.000002282671687
20
-97.000003680997821
10
-15.000002458190238
20
-103.99999970589064
10
-25.000000010381367
20
-103.99999945515
10
-25.000002767384135
20
-106.99999944297292
10
-55.000000010381328
20
-106.99999944297292
10
-55.000000010381328
20
-103.99999944297292
10
-64.999999999999886
20
-103.99999944297292
10
-65.000003352761127
20
-3.0000016929785582
10
-54.999999999999929
20
-3.000001361021885
10
-54.999999999999929
20
-1.3610218842105719e-06
10
-24.999999999999858
20
-1.3610218840831578e-06
0
LINE
5
162
100
AcDbEntity
8
0
100
AcDbLine
10
-15.000000101227826
20
-10.000003680998974
30
0
11
-14.999999925709311
21
-3.0000036809989759
31
0
0
LINE
5
163
100
AcDbEntity
8
0
100
AcDbLine
10
-18.000001022075942
20
-67.000003605776811
30
0
11
-18.000001774298013
21
-97.000003605775746
31
0
0
LINE
5
164
100
AcDbEntity
8
0
100
AcDbLine
10
-54.999999999999929
20
-1.3610218842105719e-06
30
0
11
-54.999999999999929
21
-3.000001361021885
31
0
0
LINE
5
165
100
AcDbEntity
8
0
100
AcDbLine
10
-18.000001022075942
20
-67.000003605776811
30
0
11
-21.000001022075629
21
-67.0000035846993
31
0
0
LINE
5
166
100
AcDbEntity
8
0
100
AcDbLine
10
-155.04700641746214
20
-129.18498624829542
30
0
11
-70.047006417462143
21
-129.18498624829542
31
0
0
LWPOLYLINE
5
167
100
AcDbEntity
8
0
100
AcDbPolyline
90
2
70
1
43
0.0
10
-150.00000217684158
20
-179.18498624829542
10
-150.00000217684158
20
-176.18498624829542
0
LINE
5
168
100
AcDbEntity
8
0
100
AcDbLine
10
-120.00000217684159
20
-176.18498624829542
30
0
11
-120.00000217684159
21
-179.18498624829542
31
0
0
ARC
5
169
100
AcDbEntity
8
0
100
AcDbCircle
10
-65
20
-130.0000000372529
30
0
40
35.030822208796089
210
0
220
0
230
1
100
AcDbArc
50
178.66685789304637
51
256.71987302174
0
SPLINE
5
170
100
AcDbEntity
8
0
100
AcDbSpline
70
4
71
5
72
16
73
10
74
0
42
0.000000001
43
0.0000000001
44
0.0000000001
40
0
40
0
40
0
40
0
40
0
40
0
40
0.10000000000000001
40
0.20000000000000001
40
0.30000000000000004
40
0.40000000000000002
40
0.46249777551867688
40
0.46249777551867688
40
0.46249777551867688
40
0.46249777551867688
40
0.46249777551867688
40
0.46249777551867688
41
1
41
1
41
1
41
1
41
1
41
1
41
1
41
1
41
1
41
1
10
-77.744305029319804
20
-162.63037229905734
30
0
10
-77.462850596119992
20
-162.81043394065875
30
0
10
-76.915718302743997
20
-163.17641904575839
30
0
10
-76.142347889357808
20
-163.7429815402856
30
0
10
-75.207415296076448
20
-164.53415191815162
30
0
10
-74.284863739172991
20
-165.50781409298389
30
0
10
-73.684506085688923
20
-166.31655146983917
30
0
10
-73.318792556983368
20
-166.92783472762437
30
0
10
-73.119579589979139
20
-167.31634496915362
30
0
10
-73.047006419478464
20
-167.46727183567546
30
0
0
LINE
5
171
100
AcDbEntity
8
0
100
AcDbLine
10
-75.000001059254501
20
-176.18498624829542
30
0
11
-75.000001059254501
21
-179.18498624829542
31
0
0
LINE
5
172
100
AcDbEntity
8
0
100
AcDbLine
10
-70.047006417462143
20
-179.18498624829542
30
0
11
-75.000001059254501
21
-179.18498624829542
31
0
0
LINE
5
173
100
AcDbEntity
8
0
100
AcDbLine
10
-70.047006417462143
20
-129.18498624829542
30
0
11
-70.047006417462143
21
-139.18498624829542
31
0
0
LWPOLYLINE
5
174
100
AcDbEntity
8
0
100
AcDbPolyline
90
2
70
1
43
0.0
10
-73.047006417462143
20
-139.18498624829542
10
-70.047006417462143
20
-139.18498624829542
0
SPLINE
5
175
100
AcDbEntity
8
0
100
AcDbSpline
70
4
71
5
72
26
73
20
74
0
42
0.000000001
43
0.0000000001
44
0.0000000001
40
0
40
0
40
0
40
0
40
0
40
0
40
0.066666666666666666
40
0.13333333333333333
40
0.20000000000000001
40
0.26666666666666666
40
0.33333333333333331
40
0.39999999999999997
40
0.46666666666666662
40
0.53333333333333333
40
0.59999999999999998
40
0.66666666666666663
40
0.73333333333333328
40
0.79999999999999993
40
0.86666666666666659
40
0.93333333333333324
40
1
40
1
40
1
40
1
40
1
40
1
41
1
41
1
41
1
41
1
41
1
41
1
41
1
41
1
41
1
41
1
41
1
41
1
41
1
41
1
41
1
41
1
41
1
41
1
41
1
41
1
10
-83.950582684089156
20
-159.46241542631739
30
0
10
-84.19900440498273
20
-159.61662450721616
30
0
10
-84.664258255308269
20
-159.93222001513973
30
0
10
-85.267369164095257
20
-160.42714560332118
30
0
10
-85.880608792850921
20
-161.13042164390575
30
0
10
-86.324154111697368
20
-162.08272512620826
30
0
10
-86.445064641213577
20
-163.10760386124349
30
0
10
-86.255633978840009
20
-164.20116620899205
30
0
10
-85.789640714358896
20
-165.35385794912546
30
0
10
-85.107847465293645
20
-166.5490947378652
30
0
10
-84.287524745270929
20
-167.76592778920724
30
0
10
-83.41584854919715
20
-168.98075758108544
30
0
10
-82.582499959241446
20
-170.16928487901799
30
0
10
-81.873424707601231
20
-171.30818767890432
30
0
10
-81.363017952711886
20
-172.37727953974786
30
0
10
-81.109769867076821
20
-173.360704939188
30
0
10
-81.147946293244999
20
-174.06938315666534
30
0
10
-81.324580278578736
20
-174.55354825450405
30
0
10
-81.509496655565869
20
-174.85490241524718
30
0
10
-81.618744917286278
20
-175.00022385658568
30
0
0
LINE
5
176
100
AcDbEntity
8
0
100
AcDbLine
10
-73.047006417462143
20
-139.18498624829542
30
0
11
-73.047006417462143
21
-169.18498624829542
31
0
0
LINE
5
177
100
AcDbEntity
8
0
100
AcDbLine
10
-152.04700641746214
20
-169.18498624829542
30
0
11
-152.04700641746214
21
-139.18498624829542
31
0
0
LINE
5
178
100
AcDbEntity
8
0
100
AcDbLine
10
-105.0000010592545
20
-179.18498624829542
30
0
11
-120.00000217684159
21
-179.18498624829542
31
0
0
LINE
5
179
100
AcDbEntity
8
0
100
AcDbLine
10
-105.0000010592545
20
-176.18498624829542
30
0
11
-75.000001059254501
21
-176.18498624829542
31
0
0
LINE
5
180
100
AcDbEntity
8
0
100
AcDbLine
10
-70.047006417462143
20
-169.18498624829542
30
0
11
-70.047006417462143
21
-179.18498624829542
31
0
0
SPLINE
5
181
100
AcDbEntity
8
0
100
AcDbSpline
70
4
71
5
72
13
73
7
74
0
42
0.000000001
43
0.0000000001
44
0.0000000001
40
0
40
0
40
0
40
0
40
0
40
0
40
0.20000000000000001
40
0.24109227549989132
40
0.24109227549989132
40
0.24109227549989132
40
0.24109227549989132
40
0.24109227549989132
40
0.24109227549989132
41
1
41
1
41
1
41
1
41
1
41
1
41
1
10
-96.165535386624157
20
-175.00022385657303
30
0
10
-96.297848719959958
20
-175.19504091373236
30
0
10
-96.455911705944544
20
-175.43079709228385
30
0
10
-96.612245655751053
20
-175.66765135004843
30
0
10
-96.766994331269245
20
-175.90551238648132
30
0
10
-96.92033554147568
20
-176.1442672783574
30
0
10
-96.946431351313592
20
-176.18498656165755
30
0
0
SPLINE
5
182
100
AcDbEntity
8
0
100
AcDbSpline
70
4
71
5
72
13
73
7
74
0
42
0.000000001
43
0.0000000001
44
0.0000000001
40
0
40
0
40
0
40
0
40
0
40
0
40
0.20000000000000001
40
0.2399033300995661
40
0.2399033300995661
40
0.2399033300995661
40
0.2399033300995661
40
0.2399033300995661
40
0.2399033300995661
41
1
41
1
41
1
41
1
41
1
41
1
41
1
10
-81.618744917286278
20
-175.00022385658568
30
0
10
-81.766314213163284
20
-175.19651972835919
30
0
10
-81.942427936833468
20
-175.43262828123841
30
0
10
-82.117465339114716
20
-175.66951388458199
30
0
10
-82.291515470154479
20
-175.90711224861514
30
0
10
-82.464688365817238
20
-176.14534393292087
30
0
10
-82.493468611599909
20
-176.1849863651766
30
0
0
LINE
5
183
100
AcDbEntity
8
0
100
AcDbLine
10
-150.00000217684158
20
-179.18498624829542
30
0
11
-155.04700641746214
21
-179.18498624829542
31
0
0
SPLINE
5
184
100
AcDbEntity
8
0
100
AcDbSpline
70
4
71
5
72
26
73
20
74
0
42
0.000000001
43
0.0000000001
44
0.0000000001
40
0
40
0
40
0
40
0
40
0
40
0
40
0.066666666666666666
40
0.13333333333333333
40
0.20000000000000001
40
0.26666666666666666
40
0.33333333333333331
40
0.39999999999999997
40
0.46666666666666662
40
0.53333333333333333
40
0.59999999999999998
40
0.66666666666666663
40
0.73333333333333328
40
0.79999999999999993
40
0.86666666666666659
40
0.93333333333333324
40
0.97059576428353522
40
0.97059576428353522
40
0.97059576428353522
40
0.97059576428353522
40
0.97059576428353522
40
0.97059576428353522
41
1
41
1
41
1
41
1
41
1
41
1
41
1
41
1
41
1
41
1
41
1
41
1
41
1
41
1
41
1
41
1
41
1
41
1
41
1
41
1
10
-99.879225854362176
20
-133.25547364714055
30
0
10
-100.96046927074282
20
-133.18566437064072
30
0
10
-103.05844796140755
20
-133.11140383609549
30
0
10
-106.01188796166406
20
-133.19609037838251
30
0
10
-109.55996880246261
20
-133.7039833009357
30
0
10
-113.34147596201811
20
-135.00245948740297
30
0
10
-116.48846027957234
20
-136.94951683008102
30
0
10
-119.06264436628743
20
-139.49118984127171
30
0
10
-121.19567192607965
20
-142.50879945946923
30
0
10
-123.10475262175898
20
-145.80393648072751
30
0
10
-125.047371269211
20
-149.14046838177924
30
0
10
-127.28435520274584
20
-152.27846573925675
30
0
10
-130.04406458529618
20
-155.00706266818244
30
0
10
-133.47509778617734
20
-157.18741036606576
30
0
10
-137.65178634088369
20
-158.74809626047639
30
0
10
-142.1656943366267
20
-159.5795873114368
30
0
10
-146.17915112725254
20
-159.81658853578682
30
0
10
-149.31478666798867
20
-159.77645310916421
30
0
10
-151.31722663496919
20
-159.674332478786
30
0
10
-152.04700641746129
20
-159.62774870871516
30
0
0
LINE
5
185
100
AcDbEntity
8
0
100
AcDbLine
10
-73.047006417462143
20
-169.18498624829542
30
0
11
-70.045769098725472
21
-169.18498624829542
31
0
0
LWPOLYLINE
5
186
100
AcDbEntity
8
0
100
AcDbPolyline
90
2
70
1
43
0.0
10
-105.0000010592545
20
-179.18498624829542
10
-105.0000010592545
20
-176.18498624829542
0
SPLINE
5
187
100
AcDbEntity
8
0
100
AcDbSpline
70
4
71
5
72
26
73
20
74
0
42
0.000000001
43
0.0000000001
44
0.0000000001
40
0
40
0
40
0
40
0
40
0
40
0
40
0.066666666666666666
40
0.13333333333333333
40
0.20000000000000001
40
0.26666666666666666
40
0.33333333333333331
40
0.39999999999999997
40
0.46666666666666662
40
0.53333333333333333
40
0.59999999999999998
40
0.66666666666666663
40
0.73333333333333328
40
0.79999999999999993
40
0.86666666666666659
40
0.93333333333333324
40
1
40
1
40
1
40
1
40
1
40
1
41
1
41
1
41
1
41
1
41
1
41
1
41
1
41
1
41
1
41
1
41
1
41
1
41
1
41
1
41
1
41
1
41
1
41
1
41
1
41
1
10
-98.133170324007054
20
-141.37328139773194
30
0
10
-98.980910361519378
20
-141.59691846645549
30
0
10
-100.60457053701894
20
-142.08105589809654
30
0
10
-102.8245886408028
20
-142.91785722911069
30
0
10
-105.35064274401554
20
-144.25634507160248
30
0
10
-107.78506651709434
20
-146.30259540795581
30
0
10
-109.53235986603728
20
-148.70959344311026
30
0
10
-110.68867665852579
20
-151.43998114470895
30
0
10
-111.45272411857952
20
-154.41274697346071
30
0
10
-112.11313156231273
20
-157.50824947492279
30
0
10
-112.98716547966387
20
-160.5940855020325
30
0
10
-114.37817138253419
20
-163.54277438404506
30
0
10
-116.5174937685026
20
-166.25563260514181
30
0
10
-119.53324209593865
20
-168.67568390404466
30
0
10
-123.48700792757663
20
-170.77335310939762
30
0
10
-128.39386922407829
20
-172.53868961624735
30
0
10
-133.07419201595621
20
-173.68593218114128
30
0
10
-137.00119200670085
20
-174.3997022020682
30
0
10
-139.80308229126348
20
-174.8108355047535
30
0
10
-141.24999992549914
20
-175.00022385657303
30
0
0
LINE
5
188
100
AcDbEntity
8
0
100
AcDbLine
10
-155.04700641746214
20
-139.18498624829542
30
0
11
-155.04700641746214
21
-129.18498624829542
31
0
0
LINE
5
189
100
AcDbEntity
8
0
100
AcDbLine
10
-155.04700641746214
20
-169.18498624829542
30
0
11
-152.04700641746214
21
-169.18498624829542
31
0
0
LWPOLYLINE
5
190
100
AcDbEntity
8
0
100
AcDbPolyline
90
2
70
1
43
0.0
10
-155.04700641746214
20
-179.18498624829542
10
-155.04700641746214
20
-169.18498624829542
0
SPLINE
5
191
100
AcDbEntity
8
0
100
AcDbSpline
70
4
71
5
72
16
73
10
74
0
42
0.000000001
43
0.0000000001
44
0.0000000001
40
0
40
0
40
0
40
0
40
0
40
0
40
0.20000000000000001
40
0.40000000000000002
40
0.60000000000000009
40
0.80000000000000004
40
1
40
1
40
1
40
1
40
1
40
1
41
1
41
1
41
1
41
1
41
1
41
1
41
1
41
1
41
1
41
1
10
-137.54646187515525
20
-135.00000050897091
30
0
10
-137.97783882050493
20
-135.26932647034579
30
0
10
-138.91845006997943
20
-135.76799583553532
30
0
10
-140.56272890207742
20
-136.39616011402535
30
0
10
-143.15744081783981
20
-137.02709633440296
30
0
10
-146.84719271555227
20
-137.58654364675357
30
0
10
-150.01805218223413
20
-137.92160735126328
30
0
10
-152.47893790197
20
-138.13041458496068
30
0
10
-154.15391277428222
20
-138.25196178361801
30
0
10
-154.9999999241935
20
-138.30831912023706
30
0
0
LINE
5
192
100
AcDbEntity
8
0
100
AcDbLine
10
-150.00000217684158
20
-176.18498624829542
30
0
11
-120.00000217684159
21
-176.18498624829542
31
0
0
SPLINE
5
193
100
AcDbEntity
8
0
100
AcDbSpline
70
4
71
5
72
26
73
20
74
0
42
0.000000001
43
0.0000000001
44
0.0000000001
40
0
40
0
40
0
40
0
40
0
40
0
40
0.066666666666666666
40
0.13333333333333333
40
0.20000000000000001
40
0.26666666666666666
40
0.33333333333333331
40
0.39999999999999997
40
0.46666666666666662
40
0.53333333333333333
40
0.59999999999999998
40
0.66666666666666663
40
0.73333333333333328
40
0.79999999999999993
40
0.86666666666666659
40
0.93333333333333324
40
1
40
1
40
1
40
1
40
1
40
1
41
1
41
1
41
1
41
1
41
1
41
1
41
1
41
1
41
1
41
1
41
1
41
1
41
1
41
1
41
1
41
1
41
1
41
1
41
1
41
1
10
-94.59319420945161
20
-148.74570250757827
30
0
10
-94.882269503795641
20
-149.16407323844425
30
0
10
-95.434476680651642
20
-149.99611107048594
30
0
10
-96.184958121553336
20
-151.23005723454366
30
0
10
-97.028801940410716
20
-152.84688981981273
30
0
10
-97.816561782138592
20
-154.81951488650429
30
0
10
-98.331990434856436
20
-156.74274942334753
30
0
10
-98.574405294297932
20
-158.61647618907929
30
0
10
-98.552218230075752
20
-160.44214665127049
30
0
10
-98.289377979180387
20
-162.22418891526638
30
0
10
-97.829384960879509
20
-163.96991845753135
30
0
10
-97.232400818610984
20
-165.68607410212542
30
0
10
-96.575197469085836
20
-167.37596106706906
30
0
10
-95.950192700073956
20
-169.03679065923723
30
0
10
-95.467586519469023
20
-170.65589861872445
30
0
10
-95.250313892342589
20
-172.2104788929596
30
0
10
-95.38007710473984
20
-173.38249994811392
30
0
10
-95.687019387302229
20
-174.21180047960135
30
0
10
-95.989689164563373
20
-174.74130933427375
30
0
10
-96.165535386624157
20
-175.00022385657303
30
0
0
LINE
5
194
100
AcDbEntity
8
0
100
AcDbLine
10
-154.99999992419805
20
-175.00022385657502
30
0
11
-141.24999992549914
21
-175.00022385657303
31
0
0
LINE
5
195
100
AcDbEntity
8
0
100
AcDbLine
10
-152.04700641746214
20
-139.18498624829542
30
0
11
-155.04700641746214
21
-139.18498624829542
31
0
0
LINE
5
196
100
AcDbEntity
8
0
100
AcDbLine
10
182.38222062352258
20
-140.62976724993155
30
0
11
182.38222062352258
21
-170.62976724993155
31
0
0
LWPOLYLINE
5
197
100
AcDbEntity
8
0
100
AcDbPolyline
90
2
70
1
43
0.0
10
150.42922598173021
20
-177.62976724992836
10
150.42922598173021
20
-180.62976724992836
0
LINE
5
198
100
AcDbEntity
8
0
100
AcDbLine
10
150.42922598173021
20
-177.62976724993155
30
0
11
180.42922598173021
21
-177.62976724993152
31
0
0
LINE
5
199
100
AcDbEntity
8
0
100
AcDbLine
10
180.42922598173021
20
-177.62976724993152
30
0
11
180.42922598173021
21
-180.62976724993155
31
0
0
LINE
5
200
100
AcDbEntity
8
0
100
AcDbLine
10
185.38222062352258
20
-170.62976724993155
30
0
11
185.38222062352258
21
-180.62976724992836
31
0
0
LINE
5
201
100
AcDbEntity
8
0
100
AcDbLine
10
185.38222062352258
20
-180.62976724993155
30
0
11
180.42922598173021
21
-180.62976724993155
31
0
0
LINE
5
202
100
AcDbEntity
8
0
100
AcDbLine
10
182.38222062352258
20
-170.62976724993155
30
0
11
185.38345794225927
21
-170.62976724993155
31
0
0
LWPOLYLINE
5
203
100
AcDbEntity
8
0
100
AcDbPolyline
90
2
70
1
43
0.0
10
182.38222062352258
20
-140.62976724993155
10
185.38222062352258
20
-140.62976724993155
0
LWPOLYLINE
5
204
100
AcDbEntity
8
0
100
AcDbPolyline
90
2
70
1
43
0.0
10
100.38222062352261
20
-180.62976724992836
10
100.38222062352261
20
-170.62976724992836
0
LINE
5
205
100
AcDbEntity
8
0
100
AcDbLine
10
105.42922486414312
20
-180.62976724992836
30
0
11
105.42922486414312
21
-177.62976724992836
31
0
0
LINE
5
206
100
AcDbEntity
8
0
100
AcDbLine
10
103.38222062352258
20
-170.62976724992836
30
0
11
103.38222062352258
21
-140.62976724992836
31
0
0
LINE
5
207
100
AcDbEntity
8
0
100
AcDbLine
10
135.42922486414312
20
-177.62976724992836
30
0
11
135.42922486414312
21
-180.62976724992836
31
0
0
LINE
5
208
100
AcDbEntity
8
0
100
AcDbLine
10
103.38222062352258
20
-170.62976724993155
30
0
11
103.38222062352258
21
-140.62976724993155
31
0
0
LWPOLYLINE
5
209
100
AcDbEntity
8
0
100
AcDbPolyline
90
2
70
1
43
0.0
10
150.42922598173021
20
-180.62976724993155
10
150.42922598173021
20
-177.62976724993155
0
LINE
5
210
100
AcDbEntity
8
0
100
AcDbLine
10
182.38222062352258
20
-170.62976724993155
30
0
11
185.38345794225927
21
-170.62976724993155
31
0
0
LINE
5
211
100
AcDbEntity
8
0
100
AcDbLine
10
182.38222062352258
20
-140.62976724993155
30
0
11
182.38222062352258
21
-170.62976724993155
31
0
0
LINE
5
212
100
AcDbEntity
8
0
100
AcDbLine
10
185.38222062352258
20
-180.62976724992836
30
0
11
180.42922598173021
21
-180.62976724992836
31
0
0
LINE
5
213
100
AcDbEntity
8
0
100
AcDbLine
10
150.42922598173021
20
-180.62976724992836
30
0
11
135.42922486414312
21
-180.62976724992836
31
0
0
LINE
5
214
100
AcDbEntity
8
0
100
AcDbLine
10
150.42922598173021
20
-177.62976724992836
30
0
11
180.42922598173021
21
-177.62976724992836
31
0
0
LINE
5
215
100
AcDbEntity
8
0
100
AcDbLine
10
185.38222062352258
20
-170.62976724993155
30
0
11
185.38222062352258
21
-180.62976724993155
31
0
0
LINE
5
216
100
AcDbEntity
8
0
100
AcDbLine
10
150.42922598173021
20
-180.62976724993155
30
0
11
135.42922486414312
21
-180.62976724993155
31
0
0
LINE
5
217
100
AcDbEntity
8
0
100
AcDbLine
10
105.42922486414312
20
-180.62976724993155
30
0
11
100.38222062352261
21
-180.62976724993155
31
0
0
LINE
5
218
100
AcDbEntity
8
0
100
AcDbLine
10
100.38222062352261
20
-130.62976724992834
30
0
11
185.38222062352258
21
-130.62976724992834
31
0
0
LINE
5
219
100
AcDbEntity
8
0
100
AcDbLine
10
105.42922486414312
20
-177.62976724992836
30
0
11
135.42922486414312
21
-177.62976724992836
31
0
0
LINE
5
220
100
AcDbEntity
8
0
100
AcDbLine
10
135.42922486414312
20
-177.62976724993155
30
0
11
135.42922486414312
21
-180.62976724993155
31
0
0
LINE
5
221
100
AcDbEntity
8
0
100
AcDbLine
10
105.42922486414312
20
-177.62976724992836
30
0
11
105.42922486414312
21
-180.62976724992836
31
0
0
LINE
5
222
100
AcDbEntity
8
0
100
AcDbLine
10
100.38222062352261
20
-130.62976724993155
30
0
11
185.38222062352258
21
-130.62976724993155
31
0
0
LINE
5
223
100
AcDbEntity
8
0
100
AcDbLine
10
100.38222062352261
20
-140.62976724992836
30
0
11
100.38222062352261
21
-130.62976724992834
31
0
0
LINE
5
224
100
AcDbEntity
8
0
100
AcDbLine
10
100.38222062352261
20
-180.62976724993155
30
0
11
100.38222062352261
21
-170.62976724993155
31
0
0
LINE
5
225
100
AcDbEntity
8
0
100
AcDbLine
10
103.38222062352258
20
-140.62976724992836
30
0
11
100.38222062352261
21
-140.62976724992836
31
0
0
LINE
5
226
100
AcDbEntity
8
0
100
AcDbLine
10
100.38222062352261
20
-170.62976724992836
30
0
11
103.38222062352258
21
-170.62976724992836
31
0
0
LINE
5
227
100
AcDbEntity
8
0
100
AcDbLine
10
100.38222062352261
20
-140.62976724993155
30
0
11
100.38222062352261
21
-130.62976724993155
31
0
0
LINE
5
228
100
AcDbEntity
8
0
100
AcDbLine
10
100.38222062352261
20
-170.62976724993155
30
0
11
103.38222062352258
21
-170.62976724993155
31
0
0
LWPOLYLINE
5
229
100
AcDbEntity
8
0
100
AcDbPolyline
90
2
70
1
43
0.0
10
105.42922486414312
20
-180.62976724993155
10
105.42922486414312
20
-177.62976724993155
0
LINE
5
230
100
AcDbEntity
8
0
100
AcDbLine
10
185.38222062352258
20
-130.62976724992834
30
0
11
185.38222062352258
21
-140.62976724993155
31
0
0
LWPOLYLINE
5
231
100
AcDbEntity
8
0
100
AcDbPolyline
90
2
70
1
43
0.0
10
182.38222062352258
20
-140.62976724993155
10
185.38222062352258
20
-140.62976724993155
0
LINE
5
232
100
AcDbEntity
8
0
100
AcDbLine
10
100.38222062352261
20
-180.62976724993155
30
0
11
100.38222062352261
21
-170.62976724993155
31
0
0
LINE
5
233
100
AcDbEntity
8
0
100
AcDbLine
10
105.42922486414312
20
-177.62976724993155
30
0
11
135.42922486414312
21
-177.62976724993155
31
0
0
LINE
5
234
100
AcDbEntity
8
0
100
AcDbLine
10
105.42922486414312
20
-180.62976724992836
30
0
11
100.38222062352261
21
-180.62976724992836
31
0
0
LINE
5
235
100
AcDbEntity
8
0
100
AcDbLine
10
103.38222062352258
20
-140.62976724993155
30
0
11
100.38222062352261
21
-140.62976724993155
31
0
0
LINE
5
236
100
AcDbEntity
8
0
100
AcDbLine
10
185.38222062352258
20
-130.62976724993155
30
0
11
185.38222062352258
21
-140.62976724993155
31
0
0
LINE
5
237
100
AcDbEntity
8
0
100
AcDbLine
10
180.42922598173021
20
-177.62976724992836
30
0
11
180.42922598173021
21
-180.62976724992836
31
0
0
ARC
5
238
100
AcDbEntity
8
0
100
AcDbCircle
10
99.44029532397856
20
-124.69644276714197
30
0
40
35.030822208795804
210
0
220
0
230
1
100
AcDbArc
50
278.20546713859375
51
350.2485526641982
0
CIRCLE
5
239
100
AcDbEntity
8
0
100
AcDbCircle
10
145.44029749954825
20
-144.69644310242143
30
0
40
1.9578508426617571
210
0
220
0
230
1
0
SPLINE
5
240
100
AcDbEntity
8
0
100
AcDbSpline
70
6
71
5
72
51
73
45
74
0
42
0.000000001
43
0.0000000001
44
0.0000000001
40
0
40
0
40
0
40
0
40
0
40
0
40
0.025000000000000001
40
0.050000000000000003
40
0.075000000000000011
40
0.10000000000000001
40
0.125
40
0.14999999999999999
40
0.17499999999999999
40
0.19999999999999998
40
0.22499999999999998
40
0.24999999999999997
40
0.27499999999999997
40
0.29999999999999999
40
0.32500000000000001
40
0.35000000000000003
40
0.37500000000000006
40
0.40000000000000008
40
0.4250000000000001
40
0.45000000000000012
40
0.47500000000000014
40
0.50000000000000011
40
0.52500000000000013
40
0.55000000000000016
40
0.57500000000000018
40
0.6000000000000002
40
0.62500000000000022
40
0.65000000000000024
40
0.67500000000000027
40
0.70000000000000029
40
0.72500000000000031
40
0.75000000000000033
40
0.77500000000000036
40
0.80000000000000038
40
0.8250000000000004
40
0.85000000000000042
40
0.87500000000000044
40
0.90000000000000047
40
0.92500000000000049
40
0.95000000000000051
40
0.97500000000000053
40
1
40
1
40
1
40
1
40
1
40
1
41
1
41
1
41
1
41
1
41
1
41
1
41
1
41
1
41
1
41
1
41
1
41
1
41
1
41
1
41
1
41
1
41
1
41
1
41
1
41
1
41
1
41
1
41
1
41
1
41
1
41
1
41
1
41
1
41
1
41
1
41
1
41
1
41
1
41
1
41
1
41
1
41
1
41
1
41
1
41
1
41
1
41
1
41
1
41
1
41
1
10
145.99559394479775
20
-162.23199848513281
30
0
10
145.98436522847248
20
-162.22929572075032
30
0
10
145.9607228822058
20
-162.24314055487969
30
0
10
145.91782991558082
20
-162.32107340602857
30
0
10
145.83105015770821
20
-162.52602468421358
30
0
10
145.6451212497081
20
-162.88364317711222
30
0
10
145.36767055340385
20
-163.26369324367917
30
0
10
145.00299051911315
20
-163.59481907136819
30
0
10
144.58082726796181
20
-163.83789837046021
30
0
10
144.15435525200724
20
-163.99418858167397
30
0
10
143.78531610671575
20
-164.08978197049208
30
0
10
143.53173003281034
20
-164.16562101919087
30
0
10
143.43578693395361
20
-164.26592053803634
30
0
10
143.5086526581303
20
-164.42591871554069
30
0
10
143.72687413208268
20
-164.6648054211141
30
0
10
144.04679090445438
20
-164.98756902102031
30
0
10
144.41488455757928
20
-165.38443495801954
30
0
10
144.77902641248792
20
-165.83164266253715
30
0
10
145.10096246910985
20
-166.29054333350871
30
0
10
145.36262328890049
20
-166.71094266245618
30
0
10
145.56144600093143
20
-167.04098493718365
30
0
10
145.70838000715358
20
-167.23580088249668
30
0
10
145.82473139296562
20
-167.26611278767132
30
0
10
145.93989732241147
20
-167.1282582792148
30
0
10
146.0877224260457
20
-166.84960855833
30
0
10
146.29869593415214
20
-166.47627196230343
30
0
10
146.59253643945434
20
-166.06352572378108
30
0
10
146.9710569882038
20
-165.66548576879302
30
0
10
147.40973160627078
20
-165.32452733928335
30
0
10
147.85297553690773
20
-165.06251417802105
30
0
10
148.23168630299068
20
-164.88417500164184
30
0
10
148.47832668207099
20
-164.77892972256888
30
0
10
148.54255824846501
20
-164.72333737502228
30
0
10
148.40761424694387
20
-164.68299707472951
30
0
10
148.10387585885971
20
-164.61524936079368
30
0
10
147.69078482160572
20
-164.47894706272987
30
0
10
147.24114243291669
20
-164.24390497070493
30
0
10
146.82492100054293
20
-163.90010891797945
30
0
10
146.49250385419742
20
-163.46804228061507
30
0
10
146.26040091316418
20
-163.00595420779035
30
0
10
146.12020292336902
20
-162.58983811681475
30
0
10
146.06032392418311
20
-162.35467755601306
30
0
10
146.02809518015772
20
-162.2593571411748
30
0
10
146.00682266112307
20
-162.23470124951535
30
0
10
145.99559394479775
20
-162.23199848513281
30
0
0
CIRCLE
5
241
100
AcDbEntity
8
0
100
AcDbCircle
10
165.80677749887565
20
-160.43737638167528
30
0
40
2.2447518638864619
210
0
220
0
230
1
0
SPLINE
5
242
100
AcDbEntity
8
0
100
AcDbSpline
70
6
71
5
72
51
73
45
74
0
42
0.000000001
43
0.0000000001
44
0.0000000001
40
0
40
0
40
0
40
0
40
0
40
0
40
0.025000000000000001
40
0.050000000000000003
40
0.075000000000000011
40
0.10000000000000001
40
0.125
40
0.14999999999999999
40
0.17499999999999999
40
0.19999999999999998
40
0.22499999999999998
40
0.24999999999999997
40
0.27499999999999997
40
0.29999999999999999
40
0.32500000000000001
40
0.35000000000000003
40
0.37500000000000006
40
0.40000000000000008
40
0.4250000000000001
40
0.45000000000000012
40
0.47500000000000014
40
0.50000000000000011
40
0.52500000000000013
40
0.55000000000000016
40
0.57500000000000018
40
0.6000000000000002
40
0.62500000000000022
40
0.65000000000000024
40
0.67500000000000027
40
0.70000000000000029
40
0.72500000000000031
40
0.75000000000000033
40
0.77500000000000036
40
0.80000000000000038
40
0.8250000000000004
40
0.85000000000000042
40
0.87500000000000044
40
0.90000000000000047
40
0.92500000000000049
40
0.95000000000000051
40
0.97500000000000053
40
1
40
1
40
1
40
1
40
1
40
1
41
1
41
1
41
1
41
1
41
1
41
1
41
1
41
1
41
1
41
1
41
1
41
1
41
1
41
1
41
1
41
1
41
1
41
1
41
1
41
1
41
1
41
1
41
1
41
1
41
1
41
1
41
1
41
1
41
1
41
1
41
1
41
1
41
1
41
1
41
1
41
1
41
1
41
1
41
1
41
1
41
1
41
1
41
1
41
1
41
1
10
174.59051206554892
20
-140.47847779336439
30
0
10
174.56095074138514
20
-140.4735376265883
30
0
10
174.49848924443498
20
-140.51329962299522
30
0
10
174.38485069832322
20
-140.72017309814547
30
0
10
174.15581909867319
20
-141.25529116611722
30
0
10
173.66913694936432
20
-142.18137511388176
30
0
10
172.94753228772214
20
-143.15960525997676
30
0
10
172.00399482620548
20
-144.00613314502979
30
0
10
170.91750791753739
20
-144.62325044224983
30
0
10
169.8258048741998
20
-145.01701869424821
30
0
10
168.8873991997566
20
-145.25692310757802
30
0
10
168.25001124513776
20
-145.4498348053317
30
0
10
168.01970706808706
20
-145.70996554465989
30
0
10
168.22151772086266
20
-146.12673316452742
30
0
10
168.79286384290776
20
-146.74774716936656
30
0
10
169.62039470296014
20
-147.58390462358815
30
0
10
170.56654419642908
20
-148.60818582305032
30
0
10
171.49824861608508
20
-149.75798302066744
30
0
10
172.31919368545073
20
-150.93297209105123
30
0
10
172.98453781702636
20
-152.00462537666806
30
0
10
173.48891682622593
20
-152.84110261021399
30
0
10
173.8613519075825
20
-153.32914288934543
30
0
10
174.15712602109602
20
-153.39567586830657
30
0
10
174.45204065537681
20
-153.03341947674576
30
0
10
174.83282874991417
20
-152.31353016067297
30
0
10
175.3771929896613
20
-151.35419816361261
30
0
10
176.13485372643805
20
-150.29647371929926
30
0
10
177.10941853506506
20
-149.27808368534144
30
0
10
178.23660816425746
20
-148.40651005290854
30
0
10
179.3730021726731
20
-147.73714441797159
30
0
10
180.34123860526995
20
-147.28188752267067
30
0
10
180.96853465962573
20
-147.01357440556191
30
0
10
181.1266782085313
20
-146.87210541327278
30
0
10
180.7741205173399
20
-146.76905989684718
30
0
10
179.99012681825403
20
-146.59460978647149
30
0
10
178.92797235120435
20
-146.24288213470302
30
0
10
177.77470489141302
20
-145.63641111344191
30
0
10
176.70956424153334
20
-144.74990293751563
30
0
10
175.86077307251404
20
-143.63714494581262
30
0
10
175.26935505402776
20
-142.44920292718416
30
0
10
174.91254149503834
20
-141.38236965681594
30
0
10
174.75944609785913
20
-140.78284811807976
30
0
10
174.67585718941751
20
-140.54294062365167
30
0
10
174.62007338971262
20
-140.48341796014043
30
0
10
174.59051206554892
20
-140.47847779336439
30
0
0
SPLINE
5
243
100
AcDbEntity
8
0
100
AcDbSpline
70
4
71
5
72
16
73
10
74
0
42
0.000000001
43
0.0000000001
44
0.0000000001
40
0
40
0
40
0
40
0
40
0
40
0
40
0.20000000000000001
40
0.40000000000000002
40
0.60000000000000009
40
0.80000000000000004
40
1
40
1
40
1
40
1
40
1
40
1
41
1
41
1
41
1
41
1
41
1
41
1
41
1
41
1
41
1
41
1
10
119.21360647705107
20
-130.62976724992834
30
0
10
119.06684529298113
20
-131.82632643408803
30
0
10
118.6436847160482
20
-134.20572624393415
30
0
10
117.6203790868727
20
-137.73370730640102
30
0
10
115.58604575991269
20
-142.36678924905638
30
0
10
112.29990365078118
20
-148.07949216581019
30
0
10
109.30624242368252
20
-152.61105623023178
30
0
10
106.92322647463678
20
-155.99515019563472
30
0
10
105.27729664162939
20
-158.24515426871349
30
0
10
104.44001257142077
20
-159.36864102554333
30
0
0
LWPOLYLINE
5
244
100
AcDbEntity
8
0
100
AcDbPolyline
90
38
70
1
43
0.0
10
-150.00000223517418
20
-107.00000155553589
10
-150.00000229350678
20
-104.00000155553587
10
-151.99999995529652
20
-104.00000159442425
10
-151.99999995529652
20
-97
10
-155
20
-97
10
-155
20
-67
10
-152.0000022649765
20
-67
10
-151.99999995529652
20
-40.000000596046448
10
-155
20
-40.000000149011612
10
-155
20
-10.000000149011612
10
-151.99999995529652
20
-10.000000149011612
10
-152.00000157207251
20
-3.0000000447034836
10
-150.00000223517418
20
-3.0000000447034836
10
-150.00000223517418
20
0
10
-140.00000208616257
20
0
10
-150.00000223517418
20
0
10
-120.00000223517418
20
0
10
-120.00000178813934
20
-3.0000000447034836
10
-105.00000111758709
20
-3.0000000447034836
10
-105.00000111758709
20
0
10
-75.00000111758709
20
0
10
-75.00000111758709
20
-3.0000000447034836
10
-73.000000761450167
20
-2.9999914512011125
10
-72.999999999999659
20
-10.000000149011612
10
-70
20
-10.000000149011612
10
-70
20
-40.000000149011612
10
-72.999999999999659
20
-40.000000149011612
10
-73
20
-67.000000000000014
10
-70
20
-67.000000000000014
10
-70
20
-97.000000000000014
10
-73
20
-97.000001445412636
10
-73.000001087784767
20
-104.00000154972076
10
-75.000001175919678
20
-104.00000009722106
10
-75.000001060889986
20
-107.00000009722102
10
-105.00000111758709
20
-107.00000068054698
10
-105.00000117591968
20
-104.00000068054698
10
-120.00000229350678
20
-104.00000097220979
10
-120.00000005013473
20
-107.00000097220992
0
LWPOLYLINE
5
245
100
AcDbEntity
8
0
100
AcDbPolyline
90
20
70
1
43
0.0
10
-15.000001530449723
20
-67.000003680998873
10
-15.000000853449791
20
-40.000003680998958
10
-18.000000853449762
20
-40.00000360577674
10
-18.000000101227691
20
-10.00000360577677
10
-15.000000101227826
20
-10.000003680998974
10
-14.999999925709311
20
-3.0000036809989759
10
-24.999999999999858
20
-3.0000034302582805
10
-24.999999999999858
20
-1.3610218842105738e-06
10
-54.999999999999929
20
-1.3610218842105719e-06
10
-54.999999999999929
20
-3.000001361021885
10
-65.000003352761127
20
-3.0000016929785582
10
-64.999999999999886
20
-103.99999944297292
10
-55.000000010381328
20
-103.99999944297292
10
-55.000000010381328
20
-106.99999944297292
10
-25.000002767384135
20
-106.99999944297292
10
-25.000000010381367
20
-103.99999945515
10
-15.000002458190238
20
-103.99999970589064
10
-15.000002282671687
20
-97.000003680997821
10
-18.000001774298013
20
-97.000003605775746
10
-18.000001022075942
20
-67.000003605776811
0
LWPOLYLINE
5
246
100
AcDbEntity
8
0
100
AcDbPolyline
90
20
70
1
43
0.0
10
-225.00000335276127
20
-3.0000000000000004
10
-225
20
-104
10
-215
20
-104
10
-215
20
-107.00000000000001
10
-185.00000275671482
20
-107.00000000000001
10
-185
20
-104
10
-175.00000260770321
20
-104
10
-175.00000243218471
20
-97.000000250738566
10
-178.00000990855887
20
-97.000000175516178
10
-178.00000167996268
20
-67.000000175518437
10
-175.00000260770321
20
-67.0000009983778
10
-175.00000100296276
20
-40.000000250740669
10
-178.00000100296276
20
-40.000000175518466
10
-178.0000002507407
20
-10.000000175518483
10
-175.0000002507407
20
-10.00000025074069
10
-175.0000000752222
20
-3.0000002507406922
10
-185
20
-3.0000000000000004
10
-185
20
0
10
-215
20
0
10
-215
20
-3.0000000000000004
0
LINE
5
247
100
AcDbEntity
8
0
100
AcDbLine
10
-150.44645374975516
20
23.938886678939379
30
0
11
-150.44645374975516
21
26.938886678939387
31
0
0
LINE
5
248
100
AcDbEntity
8
0
100
AcDbLine
10
-75.446452632168061
20
26.938886678939369
30
0
11
-75.446452632168061
21
23.938886678939362
31
0
0
LINE
5
249
100
AcDbEntity
8
0
100
AcDbLine
10
-105.44645263216806
20
23.938886678939362
30
0
11
-105.44645263216806
21
26.938886678939369
31
0
0
LINE
5
250
100
AcDbEntity
8
0
100
AcDbLine
10
-105.44645263216806
20
26.938886678939369
30
0
11
-75.446452632168061
21
26.938886678939369
31
0
0
LINE
5
251
100
AcDbEntity
8
0
100
AcDbLine
10
-70.493457990375703
20
33.938886678939362
30
0
11
-70.493457990375703
21
23.938886678939362
31
0
0
LINE
5
252
100
AcDbEntity
8
0
100
AcDbLine
10
-215
20
-3.0000000000000004
30
0
11
-215
21
0
31
0
0
LINE
5
253
100
AcDbEntity
8
0
100
AcDbLine
10
-54.999999999999929
20
-3.000001361021885
30
0
11
-54.999999999999929
21
-1.3610218842105719e-06
31
0
0
LWPOLYLINE
5
254
100
AcDbEntity
8
0
100
AcDbPolyline
90
2
70
1
43
0.0
10
-73.493457990375703
20
63.938886678939362
10
-70.493457990375703
20
63.938886678939362
0
LINE
5
255
100
AcDbEntity
8
0
100
AcDbLine
10
-150.44645374975516
20
26.938886678939387
30
0
11
-120.44645374975515
21
26.938886678939369
31
0
0
LINE
5
256
100
AcDbEntity
8
0
100
AcDbLine
10
-155.04700641746214
20
-129.18498624829542
30
0
11
-70.047006417462143
21
-129.18498624829542
31
0
0
LINE
5
257
100
AcDbEntity
8
0
100
AcDbLine
10
-155.04700641746214
20
-129.18498624829542
30
0
11
-70.047006417462143
21
-129.18498624829542
31
0
0
LINE
5
258
100
AcDbEntity
8
0
100
AcDbLine
10
-178.00000167996268
20
-67.000000175518437
30
0
11
-178.00000990855887
21
-97.000000175516178
31
0
0
LINE
5
259
100
AcDbEntity
8
0
100
AcDbLine
10
-178.00000167996268
20
-67.000000175518437
30
0
11
-181.00000167996268
21
-67.000000100296234
31
0
0
LINE
5
260
100
AcDbEntity
8
0
100
AcDbLine
10
-73.493457990375703
20
33.938886678939362
30
0
11
-70.492220671639032
21
33.938886678939362
31
0
0
LINE
5
261
100
AcDbEntity
8
0
100
AcDbLine
10
-120.44645374975515
20
26.938886678939369
30
0
11
-120.44645374975515
21
23.938886678939362
31
0
0
LINE
5
262
100
AcDbEntity
8
0
100
AcDbLine
10
-152.4934579903757
20
63.938886678939362
30
0
11
-155.4934579903757
21
63.938886678939362
31
0
0
LINE
5
263
100
AcDbEntity
8
0
100
AcDbLine
10
-150.00000223517418
20
-107.00000155553589
30
0
11
-150.00000217684158
21
-110.0000015555359
31
0
0
LINE
5
264
100
AcDbEntity
8
0
100
AcDbLine
10
-73.493457990375703
20
63.938886678939362
30
0
11
-73.493457990375703
21
33.938886678939362
31
0
0
LINE
5
265
100
AcDbEntity
8
0
100
AcDbLine
10
-155.4934579903757
20
23.938886678939362
30
0
11
-155.4934579903757
21
33.938886678939362
31
0
0
LINE
5
266
100
AcDbEntity
8
0
100
AcDbLine
10
-155.4934579903757
20
63.938886678939362
30
0
11
-155.4934579903757
21
73.938886678939355
31
0
0
LINE
5
267
100
AcDbEntity
8
0
100
AcDbLine
10
-150.44645374975516
20
26.938886678939387
30
0
11
-150.44645374975516
21
23.938886678939379
31
0
0
LINE
5
268
100
AcDbEntity
8
0
100
AcDbLine
10
-70.493457990375703
20
23.938886678939362
30
0
11
-75.446452632168061
21
23.938886678939362
31
0
0
LINE
5
269
100
AcDbEntity
8
0
100
AcDbLine
10
-155.4934579903757
20
33.938886678939362
30
0
11
-152.4934579903757
21
33.938886678939362
31
0
0
LINE
5
270
100
AcDbEntity
8
0
100
AcDbLine
10
-150.44645374975516
20
23.938886678939379
30
0
11
-155.4934579903757
21
23.938886678939362
31
0
0
LINE
5
271
100
AcDbEntity
8
0
100
AcDbLine
10
-155.4934579903757
20
23.938886678939362
30
0
11
-155.4934579903757
21
33.938886678939362
31
0
0
LINE
5
272
100
AcDbEntity
8
0
100
AcDbLine
10
-70.493457990375703
20
73.938886678939355
30
0
11
-70.493457990375703
21
63.938886678939362
31
0
0
LINE
5
273
100
AcDbEntity
8
0
100
AcDbLine
10
-152.4934579903757
20
33.938886678939362
30
0
11
-152.4934579903757
21
63.938886678939362
31
0
0
LINE
5
274
100
AcDbEntity
8
0
100
AcDbLine
10
-18.000001022075942
20
-67.000003605776811
30
0
11
-21.000001022075629
21
-67.0000035846993
31
0
0
LINE
5
275
100
AcDbEntity
8
0
100
AcDbLine
10
-105.44645263216806
20
23.938886678939362
30
0
11
-120.44645374975515
21
23.938886678939362
31
0
0
LINE
5
276
100
AcDbEntity
8
0
100
AcDbLine
10
-155.4934579903757
20
73.938886678939355
30
0
11
-70.493457990375703
21
73.938886678939355
31
0
0
LINE
5
277
100
AcDbEntity
8
0
100
AcDbLine
10
-18.000001022075942
20
-67.000003605776811
30
0
11
-18.000001774298013
21
-97.000003605775746
31
0
0
LINE
5
278
100
AcDbEntity
8
0
100
AcDbLine
10
-175.0000000752222
20
-3.0000002507406922
30
0
11
-175.0000002507407
21
-10.00000025074069
31
0
0
LINE
5
279
100
AcDbEntity
8
0
100
AcDbLine
10
-14.999999925709311
20
-3.0000036809989759
30
0
11
-15.000000101227826
21
-10.000003680998974
31
0
0
LINE
5
280
100
AcDbEntity
8
0
100
AcDbLine
10
-105.44645263216806
20
26.938886678939369
30
0
11
-105.44645263216806
21
23.938886678939362
31
0
0
LWPOLYLINE
5
281
100
AcDbEntity
8
0
100
AcDbPolyline
90
20
70
1
43
0.0
10
-178.0000002507407
20
-10.000000175518483
10
-178.00000100296276
20
-40.000000175518466
10
-175.00000100296276
20
-40.000000250740669
10
-175.00000260770321
20
-67.0000009983778
10
-178.00000167996268
20
-67.000000175518437
10
-178.00000990855887
20
-97.000000175516178
10
-175.00000243218471
20
-97.000000250738566
10
-175.00000260770321
20
-104
10
-185
20
-104
10
-185.00000275671482
20
-107.00000000000001
10
-215
20
-107.00000000000001
10
-215
20
-104
10
-225
20
-104
10
-225.00000335276127
20
-3.0000000000000004
10
-215
20
-3.0000000000000004
10
-215
20
0
10
-185
20
0
10
-185
20
-3.0000000000000004
10
-175.0000000752222
20
-3.0000002507406922
10
-175.0000002507407
20
-10.00000025074069
0
LINE
5
282
100
AcDbEntity
8
0
100
AcDbLine
10
-150.44645374975516
20
23.938886678939379
30
0
11
-155.4934579903757
21
23.938886678939362
31
0
0
LWPOLYLINE
5
283
100
AcDbEntity
8
0
100
AcDbPolyline
90
38
70
1
43
0.0
10
-70
20
-67.000000000000014
10
-70
20
-97.000000000000014
10
-73
20
-97.000001445412636
10
-73.000001087784767
20
-104.00000154972076
10
-75.000001175919678
20
-104.00000009722106
10
-75.000001060889986
20
-107.00000009722102
10
-105.00000111758709
20
-107.00000068054698
10
-105.00000117591968
20
-104.00000068054698
10
-120.00000229350678
20
-104.00000097220979
10
-120.00000005013473
20
-107.00000097220992
10
-150.00000223517418
20
-107.00000155553589
10
-150.00000229350678
20
-104.00000155553587
10
-151.99999995529652
20
-104.00000159442425
10
-151.99999995529652
20
-97
10
-155
20
-97
10
-155
20
-67
10
-152.0000022649765
20
-67
10
-151.99999995529652
20
-40.000000596046448
10
-155
20
-40.000000149011612
10
-155
20
-10.000000149011612
10
-151.99999995529652
20
-10.000000149011612
10
-152.00000157207251
20
-3.0000000447034836
10
-150.00000223517418
20
-3.0000000447034836
10
-150.00000223517418
20
0
10
-140.00000208616257
20
0
10
-150.00000223517418
20
0
10
-120.00000223517418
20
0
10
-120.00000178813934
20
-3.0000000447034836
10
-105.00000111758709
20
-3.0000000447034836
10
-105.00000111758709
20
0
10
-75.00000111758709
20
0
10
-75.00000111758709
20
-3.0000000447034836
10
-73.000000761450167
20
-2.9999914512011125
10
-72.999999999999659
20
-10.000000149011612
10
-70
20
-10.000000149011612
10
-70
20
-40.000000149011612
10
-72.999999999999659
20
-40.000000149011612
10
-73
20
-67.000000000000014
0
LWPOLYLINE
5
284
100
AcDbEntity
8
0
100
AcDbPolyline
90
2
70
1
43
0.0
10
-18.000001022075942
20
-67.000003605776811
10
-18.000001774298013
20
-97.000003605775746
0
LWPOLYLINE
5
285
100
AcDbEntity
8
0
100
AcDbPolyline
90
38
70
1
43
0.0
10
-105.00000111758709
20
-107.00000068054698
10
-75.000001060889986
20
-107.00000009722102
10
-75.000001175919678
20
-104.00000009722106
10
-73.000001087784767
20
-104.00000154972076
10
-73
20
-97.000001445412636
10
-70
20
-97.000000000000014
10
-70
20
-67.000000000000014
10
-73
20
-67.000000000000014
10
-72.999999999999659
20
-40.000000149011612
10
-70
20
-40.000000149011612
10
-70
20
-10.000000149011612
10
-72.999999999999659
20
-10.000000149011612
10
-73.000000761450167
20
-2.9999914512011125
10
-75.00000111758709
20
-3.0000000447034836
10
-75.00000111758709
20
0
10
-105.00000111758709
20
0
10
-105.00000111758709
20
-3.0000000447034836
10
-120.00000178813934
20
-3.0000000447034836
10
-120.00000223517418
20
0
10
-150.00000223517418
20
0
10
-140.00000208616257
20
0
10
-150.00000223517418
20
0
10
-150.00000223517418
20
-3.0000000447034836
10
-152.00000157207251
20
-3.0000000447034836
10
-151.99999995529652
20
-10.000000149011612
10
-155
20
-10.000000149011612
10
-155
20
-40.000000149011612
10
-151.99999995529652
20
-40.000000596046448
10
-152.0000022649765
20
-67
10
-155
20
-67
10
-155
20
-97
10
-151.99999995529652
20
-97
10
-151.99999995529652
20
-104.00000159442425
10
-150.00000229350678
20
-104.00000155553587
10
-150.00000223517418
20
-107.00000155553589
10
-120.00000005013473
20
-107.00000097220992
10
-120.00000229350678
20
-104.00000097220979
10
-105.00000117591968
20
-104.00000068054698
0
LWPOLYLINE
5
286
100
AcDbEntity
8
0
100
AcDbPolyline
90
2
70
1
43
0.0
10
-18.000001022075942
20
-67.000003605776811
10
-18.000001774298013
20
-97.000003605775746
0
LWPOLYLINE
5
287
100
AcDbEntity
8
0
100
AcDbPolyline
90
2
70
1
43
0.0
10
-14.999999925709311
20
-3.0000036809989759
10
-15.000000101227826
20
-10.000003680998974
0
LINE
5
288
100
AcDbEntity
8
0
100
AcDbLine
10
-15.000000101227826
20
-10.000003680998974
30
0
11
-18.000000101227691
21
-10.00000360577677
31
0
0
LINE
5
289
100
AcDbEntity
8
0
100
AcDbLine
10
-18.000000101227691
20
-10.00000360577677
30
0
11
-18.000000853449762
21
-40.00000360577674
31
0
0
LINE
5
290
100
AcDbEntity
8
0
100
AcDbLine
10
-18.000000853449762
20
-40.00000360577674
30
0
11
-15.000000853449791
21
-40.000003680998958
31
0
0
LINE
5
291
100
AcDbEntity
8
0
100
AcDbLine
10
-150.44645374975516
20
23.938886678939379
30
0
11
-155.4934579903757
21
23.938886678939362
31
0
0
LWPOLYLINE
5
292
100
AcDbEntity
8
0
100
AcDbPolyline
90
2
70
1
43
0.0
10
-150.44645374975516
20
26.938886678939387
10
-150.44645374975516
20
23.938886678939379
0
LINE
5
293
100
AcDbEntity
8
0
100
AcDbLine
10
-105.44645263216806
20
23.938886678939362
30
0
11
-105.44645263216806
21
26.938886678939369
31
0
0
LINE
5
294
100
AcDbEntity
8
0
100
AcDbLine
10
-24.999999999999858
20
-3.0000034302582805
30
0
11
-24.999999999999858
21
-1.3610218842105738e-06
31
0
0
LINE
5
295
100
AcDbEntity
8
0
100
AcDbLine
10
-64.999999999999886
20
-103.99999944297292
30
0
11
-55.000000010381328
21
-103.99999944297292
31
0
0
LINE
5
296
100
AcDbEntity
8
0
100
AcDbLine
10
-18.000001022075942
20
-67.000003605776811
30
0
11
-15.000001530449723
21
-67.000003680998873
31
0
0
LWPOLYLINE
5
297
100
AcDbEntity
8
0
100
AcDbPolyline
90
20
70
1
43
0.0
10
-185
20
-104
10
-185.00000275671482
20
-107.00000000000001
10
-215
20
-107.00000000000001
10
-215
20
-104
10
-225
20
-104
10
-225.00000335276127
20
-3.0000000000000004
10
-215
20
-3.0000000000000004
10
-215
20
0
10
-185
20
0
10
-185
20
-3.0000000000000004
10
-175.0000000752222
20
-3.0000002507406922
10
-175.0000002507407
20
-10.00000025074069
10
-178.0000002507407
20
-10.000000175518483
10
-178.00000100296276
20
-40.000000175518466
10
-175.00000100296276
20
-40.000000250740669
10
-175.00000260770321
20
-67.0000009983778
10
-178.00000167996268
20
-67.000000175518437
10
-178.00000990855887
20
-97.000000175516178
10
-175.00000243218471
20
-97.000000250738566
10
-175.00000260770321
20
-104
0
LINE
5
298
100
AcDbEntity
8
0
100
AcDbLine
10
-178.00000167996268
20
-67.000000175518437
30
0
11
-178.00000990855887
21
-97.000000175516178
31
0
0
LINE
5
299
100
AcDbEntity
8
0
100
AcDbLine
10
-178.00000167996268
20
-67.000000175518437
30
0
11
-181.00000167996268
21
-67.000000100296234
31
0
0
LINE
5
300
100
AcDbEntity
8
0
100
AcDbLine
10
-178.00000167996268
20
-67.000000175518437
30
0
11
-178.00000990855887
21
-97.000000175516178
31
0
0
LINE
5
301
100
AcDbEntity
8
0
100
AcDbLine
10
-178.00000167996268
20
-67.000000175518437
30
0
11
-181.00000167996268
21
-67.000000100296234
31
0
0
LINE
5
302
100
AcDbEntity
8
0
100
AcDbLine
10
-75.446452632168061
20
26.938886678939369
30
0
11
-75.446452632168061
21
23.938886678939362
31
0
0
LINE
5
303
100
AcDbEntity
8
0
100
AcDbLine
10
-175.0000000752222
20
-3.0000002507406922
30
0
11
-175.0000002507407
21
-10.00000025074069
31
0
0
LINE
5
304
100
AcDbEntity
8
0
100
AcDbLine
10
-155.4934579903757
20
23.938886678939362
30
0
11
-155.4934579903757
21
33.938886678939362
31
0
0
LINE
5
305
100
AcDbEntity
8
0
100
AcDbLine
10
-105.44645263216806
20
23.938886678939362
30
0
11
-120.44645374975515
21
23.938886678939362
31
0
0
LINE
5
306
100
AcDbEntity
8
0
100
AcDbLine
10
-150.44645374975516
20
26.938886678939387
30
0
11
-120.44645374975515
21
26.938886678939369
31
0
0
LINE
5
307
100
AcDbEntity
8
0
100
AcDbLine
10
-120.44645374975515
20
26.938886678939369
30
0
11
-120.44645374975515
21
23.938886678939362
31
0
0
LINE
5
308
100
AcDbEntity
8
0
100
AcDbLine
10
-152.4934579903757
20
63.938886678939362
30
0
11
-155.4934579903757
21
63.938886678939362
31
0
0
LINE
5
309
100
AcDbEntity
8
0
100
AcDbLine
10
-152.4934579903757
20
33.938886678939362
30
0
11
-152.4934579903757
21
63.938886678939362
31
0
0
LINE
5
310
100
AcDbEntity
8
0
100
AcDbLine
10
-155.4934579903757
20
33.938886678939362
30
0
11
-152.4934579903757
21
33.938886678939362
31
0
0
LINE
5
311
100
AcDbEntity
8
0
100
AcDbLine
10
-150.44645374975516
20
26.938886678939387
30
0
11
-120.44645374975515
21
26.938886678939369
31
0
0
LINE
5
312
100
AcDbEntity
8
0
100
AcDbLine
10
-18.000000853449762
20
-40.00000360577674
30
0
11
-15.000000853449791
21
-40.000003680998958
31
0
0
LINE
5
313
100
AcDbEntity
8
0
100
AcDbLine
10
-55.000000010381328
20
-106.99999944297292
30
0
11
-55.000000010381328
21
-103.99999944297292
31
0
0
LINE
5
314
100
AcDbEntity
8
0
100
AcDbLine
10
-155.4934579903757
20
63.938886678939362
30
0
11
-155.4934579903757
21
73.938886678939355
31
0
0
LINE
5
315
100
AcDbEntity
8
0
100
AcDbLine
10
-24.999999999999858
20
-3.0000034302582805
30
0
11
-14.999999925709311
21
-3.0000036809989759
31
0
0
LINE
5
316
100
AcDbEntity
8
0
100
AcDbLine
10
-24.999999999999858
20
-3.0000034302582805
30
0
11
-24.999999999999858
21
-1.3610218842105738e-06
31
0
0
LINE
5
317
100
AcDbEntity
8
0
100
AcDbLine
10
-18.000000101227691
20
-10.00000360577677
30
0
11
-18.000000853449762
21
-40.00000360577674
31
0
0
LWPOLYLINE
5
318
100
AcDbEntity
8
0
100
AcDbPolyline
90
2
70
1
43
0.0
10
-14.999999925709311
20
-3.0000036809989759
10
-15.000000101227826
20
-10.000003680998974
0
LINE
5
319
100
AcDbEntity
8
0
100
AcDbLine
10
-152.4934579903757
20
63.938886678939362
30
0
11
-155.4934579903757
21
63.938886678939362
31
0
0
LWPOLYLINE
5
320
100
AcDbEntity
8
0
100
AcDbPolyline
90
2
70
1
43
0.0
10
-70.493457990375703
20
63.938886678939362
10
-73.493457990375703
20
63.938886678939362
0
LINE
5
321
100
AcDbEntity
8
0
100
AcDbLine
10
-105.44645263216806
20
23.938886678939362
30
0
11
-105.44645263216806
21
26.938886678939369
31
0
0
LINE
5
322
100
AcDbEntity
8
0
100
AcDbLine
10
-15.000002458190238
20
-103.99999970589064
30
0
11
-15.000002282671687
21
-97.000003680997821
31
0
0
LINE
5
323
100
AcDbEntity
8
0
100
AcDbLine
10
-55.000000010381328
20
-106.99999944297292
30
0
11
-25.000002767384135
21
-106.99999944297292
31
0
0
LINE
5
324
100
AcDbEntity
8
0
100
AcDbLine
10
-65.000003352761127
20
-3.0000016929785582
30
0
11
-64.999999999999886
21
-103.99999944297292
31
0
0
LINE
5
325
100
AcDbEntity
8
0
100
AcDbLine
10
-73.493457990375703
20
63.938886678939362
30
0
11
-73.493457990375703
21
33.938886678939362
31
0
0
LWPOLYLINE
5
326
100
AcDbEntity
8
0
100
AcDbPolyline
90
2
70
1
43
0.0
10
-150.44645374975516
20
26.938886678939387
10
-150.44645374975516
20
23.938886678939379
0
LINE
5
327
100
AcDbEntity
8
0
100
AcDbLine
10
-70.493457990375703
20
73.938886678939355
30
0
11
-70.493457990375703
21
63.938886678939362
31
0
0
LINE
5
328
100
AcDbEntity
8
0
100
AcDbLine
10
-25.000000010381367
20
-103.99999945515
30
0
11
-25.000002767384135
21
-106.99999944297292
31
0
0
LINE
5
329
100
AcDbEntity
8
0
100
AcDbLine
10
-15.000001530449723
20
-67.000003680998873
30
0
11
-15.000000853449791
21
-40.000003680998958
31
0
0
LINE
5
330
100
AcDbEntity
8
0
100
AcDbLine
10
-15.000001530449723
20
-67.000003680998873
30
0
11
-15.000000853449791
21
-40.000003680998958
31
0
0
LINE
5
331
100
AcDbEntity
8
0
100
AcDbLine
10
-25.000000010381367
20
-103.99999945515
30
0
11
-15.000002458190238
21
-103.99999970589064
31
0
0
LINE
5
332
100
AcDbEntity
8
0
100
AcDbLine
10
-18.000001022075942
20
-67.000003605776811
30
0
11
-21.000001022075629
21
-67.0000035846993
31
0
0
LINE
5
333
100
AcDbEntity
8
0
100
AcDbLine
10
-24.999999999999858
20
-1.3610218842105738e-06
30
0
11
-54.999999999999929
21
-1.3610218842105719e-06
31
0
0
LINE
5
334
100
AcDbEntity
8
0
100
AcDbLine
10
-25.000000010381367
20
-103.99999945515
30
0
11
-15.000002458190238
21
-103.99999970589064
31
0
0
LINE
5
335
100
AcDbEntity
8
0
100
AcDbLine
10
-18.000001022075942
20
-67.000003605776811
30
0
11
-21.000001022075629
21
-67.0000035846993
31
0
0
LINE
5
336
100
AcDbEntity
8
0
100
AcDbLine
10
-55.000000010381328
20
-106.99999944297292
30
0
11
-55.000000010381328
21
-103.99999944297292
31
0
0
LINE
5
337
100
AcDbEntity
8
0
100
AcDbLine
10
-105.44645263216806
20
23.938886678939362
30
0
11
-120.44645374975515
21
23.938886678939362
31
0
0
LINE
5
338
100
AcDbEntity
8
0
100
AcDbLine
10
-24.999999999999858
20
-1.3610218842105738e-06
30
0
11
-54.999999999999929
21
-1.3610218842105719e-06
31
0
0
LINE
5
339
100
AcDbEntity
8
0
100
AcDbLine
10
-155.4934579903757
20
73.938886678939355
30
0
11
-70.493457990375703
21
73.938886678939355
31
0
0
LWPOLYLINE
5
340
100
AcDbEntity
8
0
100
AcDbPolyline
90
2
70
1
43
0.0
10
-155.4934579903757
20
23.938886678939362
10
-155.4934579903757
20
33.938886678939362
0
LINE
5
341
100
AcDbEntity
8
0
100
AcDbLine
10
-70.493457990375703
20
23.938886678939362
30
0
11
-75.446452632168061
21
23.938886678939362
31
0
0
LWPOLYLINE
5
342
100
AcDbEntity
8
0
100
AcDbPolyline
90
2
70
1
43
0.0
10
-73.493457990375703
20
63.938886678939362
10
-70.493457990375703
20
63.938886678939362
0
LINE
5
343
100
AcDbEntity
8
0
100
AcDbLine
10
-155.4934579903757
20
63.938886678939362
30
0
11
-155.4934579903757
21
73.938886678939355
31
0
0
LINE
5
344
100
AcDbEntity
8
0
100
AcDbLine
10
-105.44645263216806
20
26.938886678939369
30
0
11
-75.446452632168061
21
26.938886678939369
31
0
0
LINE
5
345
100
AcDbEntity
8
0
100
AcDbLine
10
-70.493457990375703
20
23.938886678939362
30
0
11
-75.446452632168061
21
23.938886678939362
31
0
0
LINE
5
346
100
AcDbEntity
8
0
100
AcDbLine
10
-155.4934579903757
20
73.938886678939355
30
0
11
-70.493457990375703
21
73.938886678939355
31
0
0
LINE
5
347
100
AcDbEntity
8
0
100
AcDbLine
10
-24.999999999999858
20
-3.0000034302582805
30
0
11
-14.999999925709311
21
-3.0000036809989759
31
0
0
LINE
5
348
100
AcDbEntity
8
0
100
AcDbLine
10
-25.000000010381367
20
-103.99999945515
30
0
11
-25.000002767384135
21
-106.99999944297292
31
0
0
LINE
5
349
100
AcDbEntity
8
0
100
AcDbLine
10
-55.000000010381328
20
-106.99999944297292
30
0
11
-25.000002767384135
21
-106.99999944297292
31
0
0
LINE
5
350
100
AcDbEntity
8
0
100
AcDbLine
10
-152.4934579903757
20
33.938886678939362
30
0
11
-152.4934579903757
21
63.938886678939362
31
0
0
LINE
5
351
100
AcDbEntity
8
0
100
AcDbLine
10
-105.44645263216806
20
26.938886678939369
30
0
11
-75.446452632168061
21
26.938886678939369
31
0
0
LINE
5
352
100
AcDbEntity
8
0
100
AcDbLine
10
-64.999999999999886
20
-103.99999944297292
30
0
11
-55.000000010381328
21
-103.99999944297292
31
0
0
LINE
5
353
100
AcDbEntity
8
0
100
AcDbLine
10
-73.493457990375703
20
33.938886678939362
30
0
11
-70.492220671639032
21
33.938886678939362
31
0
0
LINE
5
354
100
AcDbEntity
8
0
100
AcDbLine
10
-105.44645263216806
20
26.938886678939369
30
0
11
-105.44645263216806
21
23.938886678939362
31
0
0
LINE
5
355
100
AcDbEntity
8
0
100
AcDbLine
10
-75.446452632168061
20
26.938886678939369
30
0
11
-75.446452632168061
21
23.938886678939362
31
0
0
LINE
5
356
100
AcDbEntity
8
0
100
AcDbLine
10
-155.4934579903757
20
33.938886678939362
30
0
11
-152.4934579903757
21
33.938886678939362
31
0
0
LINE
5
357
100
AcDbEntity
8
0
100
AcDbLine
10
-105.44645263216806
20
26.938886678939369
30
0
11
-105.44645263216806
21
23.938886678939362
31
0
0
LINE
5
358
100
AcDbEntity
8
0
100
AcDbLine
10
-155.4934579903757
20
23.938886678939362
30
0
11
-155.4934579903757
21
33.938886678939362
31
0
0
LINE
5
359
100
AcDbEntity
8
0
100
AcDbLine
10
-73.493457990375703
20
33.938886678939362
30
0
11
-70.492220671639032
21
33.938886678939362
31
0
0
LINE
5
360
100
AcDbEntity
8
0
100
AcDbLine
10
-70.493457990375703
20
33.938886678939362
30
0
11
-70.493457990375703
21
23.938886678939362
31
0
0
LINE
5
361
100
AcDbEntity
8
0
100
AcDbLine
10
-18.000001774298013
20
-97.000003605775746
30
0
11
-15.000002282671687
21
-97.000003680997821
31
0
0
LINE
5
362
100
AcDbEntity
8
0
100
AcDbLine
10
-15.000002458190238
20
-103.99999970589064
30
0
11
-15.000002282671687
21
-97.000003680997821
31
0
0
LINE
5
363
100
AcDbEntity
8
0
100
AcDbLine
10
-18.000001774298013
20
-97.000003605775746
30
0
11
-15.000002282671687
21
-97.000003680997821
31
0
0
LINE
5
364
100
AcDbEntity
8
0
100
AcDbLine
10
-18.000001022075942
20
-67.000003605776811
30
0
11
-15.000001530449723
21
-67.000003680998873
31
0
0
LINE
5
365
100
AcDbEntity
8
0
100
AcDbLine
10
-15.000000101227826
20
-10.000003680998974
30
0
11
-18.000000101227691
21
-10.00000360577677
31
0
0
LINE
5
366
100
AcDbEntity
8
0
100
AcDbLine
10
-150.00000223517418
20
-107.00000155553589
30
0
11
-150.00000217684158
21
-110.0000015555359
31
0
0
LINE
5
367
100
AcDbEntity
8
0
100
AcDbLine
10
-65.000003352761127
20
-3.0000016929785582
30
0
11
-64.999999999999886
21
-103.99999944297292
31
0
0
LINE
5
368
100
AcDbEntity
8
0
100
AcDbLine
10
-150.00000223517418
20
-107.00000155553589
30
0
11
-150.00000217684158
21
-110.0000015555359
31
0
0
LINE
5
369
100
AcDbEntity
8
0
100
AcDbLine
10
-120.44645374975515
20
26.938886678939369
30
0
11
-120.44645374975515
21
23.938886678939362
31
0
0
LINE
5
370
100
AcDbEntity
8
0
100
AcDbLine
10
-70.493457990375703
20
33.938886678939362
30
0
11
-70.493457990375703
21
23.938886678939362
31
0
0
LWPOLYLINE
5
371
100
AcDbEntity
8
0
100
AcDbPolyline
90
2
70
1
43
0.0
10
-54.999999999999929
20
-1.3610218842105719e-06
10
-54.999999999999929
20
-3.000001361021885
0
LINE
5
372
100
AcDbEntity
8
0
100
AcDbLine
10
-70.493457990375703
20
73.938886678939355
30
0
11
-70.493457990375703
21
63.938886678939362
31
0
0
LINE
5
373
100
AcDbEntity
8
0
100
AcDbLine
10
-73.493457990375703
20
63.938886678939362
30
0
11
-73.493457990375703
21
33.938886678939362
31
0
0
LINE
5
374
100
AcDbEntity
8
0
100
AcDbLine
10
-215
20
0
30
0
11
-215
21
-3.0000000000000004
31
0
0
LINE
5
375
100
AcDbEntity
8
0
100
AcDbLine
10
-54.999999999999929
20
-3.000001361021885
30
0
11
-65.000003352761127
21
-3.0000016929785582
31
0
0
LINE
5
376
100
AcDbEntity
8
0
100
AcDbLine
10
-215
20
-3.0000000000000004
30
0
11
-215
21
0
31
0
0
LWPOLYLINE
5
377
100
AcDbEntity
8
0
100
AcDbPolyline
90
2
70
1
43
0.0
10
-54.999999999999929
20
-1.3610218842105719e-06
10
-54.999999999999929
20
-3.000001361021885
0
LINE
5
378
100
AcDbEntity
8
0
100
AcDbLine
10
-54.999999999999929
20
-3.000001361021885
30
0
11
-65.000003352761127
21
-3.0000016929785582
31
0
0
LINE
5
379
100
AcDbEntity
8
0
100
AcDbLine
10
-175.0000000752222
20
-3.0000002507406922
30
0
11
-175.0000002507407
21
-10.00000025074069
31
0
0
LWPOLYLINE
5
380
100
AcDbEntity
8
0
100
AcDbPolyline
90
20
70
1
43
0.0
10
75.000006668763319
20
-103.9999988431849
10
75.000006844280946
20
-97.000031779209536
10
72.000004483857438
20
-97.000031703987247
10
71.999997759705465
20
-67.000031703989094
10
75.000007596503053
20
-67.000031031571694
10
75.000008273502843
20
-40.000031779213373
10
72.000008273503227
20
-40.000031703991176
10
72.000009025725262
20
-10.000031703991199
10
75.00000902572495
20
-10.000031779213401
10
75.000009201243572
20
-3.000031779213403
10
64.999999999999858
20
-3.000031528472479
10
64.999999999999858
20
-3.9834787064673916e-06
10
35.000000000000426
20
-3.9834787063375288e-06
10
35.000000000000426
20
-3.0000039834787073
10
24.999996647238945
20
-3.0000046473920539
10
25
20
-103.9999982805255
10
34.999999947843534
20
-103.9999982805255
10
34.999999947843534
20
-106.99999828052552
10
64.999997189682261
20
-106.99999828052552
10
64.999999947843534
20
-103.99999834170318
0
LWPOLYLINE
5
381
100
AcDbEntity
8
0
100
AcDbPolyline
90
20
70
1
43
0.0
10
64.999999999999787
20
-3.0000315284694463
10
64.999999999999787
20
-3.9834787064673916e-06
10
35.000000000000426
20
-3.9834787063375288e-06
10
35.000000000000426
20
-3.0000039834787073
10
24.999996647238945
20
-3.0000046473920539
10
25
20
-103.9999982805255
10
34.999999947843534
20
-103.9999982805255
10
34.999999947843534
20
-106.99999828052552
10
64.999997189682333
20
-106.99999828052552
10
64.999999947843534
20
-103.99999834170319
10
75.000006668763959
20
-103.99999884318491
10
75.000006844281657
20
-97.000031779206509
10
72.000004483860209
20
-97.000031703984206
10
71.999997759708236
20
-67.000031703986068
10
75.000007596504048
20
-67.000031031568668
10
75.000008273504051
20
-40.000031779210346
10
72.000008273504719
20
-40.000031703988142
10
72.000009025726825
20
-10.000031703988165
10
75.000009025726513
20
-10.000031779210367
10
75.000009201245135
20
-3.0000317792103703
0
LWPOLYLINE
5
382
100
AcDbEntity
8
0
100
AcDbPolyline
90
20
70
1
43
0.0
10
64.999999999999929
20
-3.0000105217333388
10
64.999999999999929
20
-3.9834787064673908e-06
10
35.000000000000426
20
-3.9834787063375288e-06
10
35.000000000000426
20
-3.0000039834787073
10
24.999996647239016
20
-3.0000046473920539
10
25
20
-103.99999828052552
10
34.999999947843534
20
-103.99999828052552
10
34.999999947843534
20
-106.99999828052553
10
64.99999718968219
20
-106.99999828052553
10
64.999999947843534
20
-103.99999834170322
10
74.99999766696348
20
-103.99999884318449
10
74.999997842481676
20
-97.000010772472024
10
72.000006345302197
20
-97.000010697249991
10
71.999999621150153
20
-67.000010697251867
10
74.999998594703854
20
-67.000010024836868
10
74.999999271703786
20
-40.000010772473999
10
71.99999927170353
20
-40.000010697251803
10
72.000000023925637
20
-10.000010697251833
10
75.000000023925608
20
-10.000010772474038
10
75.000000199444017
20
-3.0000107724740381
0
LINE
5
383
100
AcDbEntity
8
0
100
AcDbLine
10
72.000006345304044
20
-97.000010697250161
30
0
11
74.999997842481818
21
-97.000010772472194
31
0
0
LINE
5
384
100
AcDbEntity
8
0
100
AcDbLine
10
64.999999947843534
20
-103.99999834170322
30
0
11
74.999997666963694
21
-103.99999884318449
31
0
0
LINE
5
385
100
AcDbEntity
8
0
100
AcDbLine
10
71.999997759705465
20
-67.000031703989094
30
0
11
68.999997759705636
21
-67.000030453707382
31
0
0
LINE
5
386
100
AcDbEntity
8
0
100
AcDbLine
10
74.999997666963694
20
-103.99999884318449
30
0
11
74.999997842481818
21
-97.000010772472194
31
0
0
LINE
5
387
100
AcDbEntity
8
0
100
AcDbLine
10
35.000000000000426
20
-3.9834787064673899e-06
30
0
11
35.000000000000426
21
-3.0000039834787073
31
0
0
LINE
5
388
100
AcDbEntity
8
0
100
AcDbLine
10
64.999999947843534
20
-103.99999834170322
30
0
11
64.99999718968219
21
-106.99999828052553
31
0
0
LINE
5
389
100
AcDbEntity
8
0
100
AcDbLine
10
24.999996647239016
20
-3.0000046473920539
30
0
11
25
21
-103.99999828052552
31
0
0
LINE
5
390
100
AcDbEntity
8
0
100
AcDbLine
10
75.000000199444301
20
-3.0000107724741993
30
0
11
75.000000023925892
21
-10.000010772474198
31
0
0
LINE
5
391
100
AcDbEntity
8
0
100
AcDbLine
10
71.999999271703885
20
-40.000010697251973
30
0
11
74.999999271703501
21
-40.00001077247417
31
0
0
LINE
5
392
100
AcDbEntity
8
0
100
AcDbLine
10
75.000009201245135
20
-3.0000317792103703
30
0
11
75.000009025726513
21
-10.000031779210367
31
0
0
LINE
5
393
100
AcDbEntity
8
0
100
AcDbLine
10
75.000009201243572
20
-3.000031779213403
30
0
11
75.00000902572495
21
-10.000031779213401
31
0
0
LINE
5
394
100
AcDbEntity
8
0
100
AcDbLine
10
75.000000023925892
20
-10.000010772474198
30
0
11
72.000000023925921
21
-10.000010697251993
31
0
0
LINE
5
395
100
AcDbEntity
8
0
100
AcDbLine
10
35.000000000000426
20
-3.9834787064673908e-06
30
0
11
35.000000000000426
21
-3.0000039834787073
31
0
0
LINE
5
396
100
AcDbEntity
8
0
100
AcDbLine
10
75.000000023925892
20
-10.000010772474198
30
0
11
75.000000199444301
21
-3.0000107724741993
31
0
0
LINE
5
397
100
AcDbEntity
8
0
100
AcDbLine
10
64.999999999999929
20
-3.0000105217335005
30
0
11
75.000000199444301
21
-3.0000107724741993
31
0
0
LINE
5
398
100
AcDbEntity
8
0
100
AcDbLine
10
35.000000000000426
20
-3.0000039834787073
30
0
11
24.999996647239016
21
-3.0000046473920539
31
0
0
LWPOLYLINE
5
399
100
AcDbEntity
8
0
100
AcDbPolyline
90
2
70
1
43
0.0
10
35.000000000000426
20
-3.9834787064673899e-06
10
35.000000000000426
20
-3.0000039834787073
0
LINE
5
400
100
AcDbEntity
8
0
100
AcDbLine
10
35.000000000000426
20
-3.9834787064673908e-06
30
0
11
35.000000000000426
21
-3.0000039834787073
31
0
0
LINE
5
401
100
AcDbEntity
8
0
100
AcDbLine
10
64.999999999999929
20
-3.0000105217335005
30
0
11
64.999999999999929
21
-3.9834787064673908e-06
31
0
0
LINE
5
402
100
AcDbEntity
8
0
100
AcDbLine
10
74.999998594703712
20
-67.00001002483701
30
0
11
74.999999271703501
21
-40.00001077247417
31
0
0
LINE
5
403
100
AcDbEntity
8
0
100
AcDbLine
10
75.000000199444017
20
-3.0000107724740381
30
0
11
75.000000023925608
21
-10.000010772474038
31
0
0
LINE
5
404
100
AcDbEntity
8
0
100
AcDbLine
10
72.000000023925921
20
-10.000010697251993
30
0
11
71.999999271703885
21
-40.000010697251973
31
0
0
LINE
5
405
100
AcDbEntity
8
0
100
AcDbLine
10
64.999999999999929
20
-3.9834787064673908e-06
30
0
11
35.000000000000426
21
-3.9834787064673899e-06
31
0
0
LINE
5
406
100
AcDbEntity
8
0
100
AcDbLine
10
71.999999621151929
20
-67.000010697252023
30
0
11
68.999999621152028
21
-67.000010733014065
31
0
0
LINE
5
407
100
AcDbEntity
8
0
100
AcDbLine
10
71.999997759708236
20
-67.000031703986068
30
0
11
68.999997759708336
21
-67.000030453704298
31
0
0
LWPOLYLINE
5
408
100
AcDbEntity
8
0
100
AcDbPolyline
90
2
70
1
43
0.0
10
71.999999621151929
20
-67.000010697252023
10
72.000006345304044
20
-97.000010697250161
0
LINE
5
409
100
AcDbEntity
8
0
100
AcDbLine
10
25
20
-103.99999828052552
30
0
11
34.999999947843534
21
-103.99999828052552
31
0
0
LINE
5
410
100
AcDbEntity
8
0
100
AcDbLine
10
34.999999947843534
20
-106.99999828052553
30
0
11
34.999999947843534
21
-103.99999828052552
31
0
0
LINE
5
411
100
AcDbEntity
8
0
100
AcDbLine
10
34.999999947843534
20
-106.99999828052553
30
0
11
64.99999718968219
21
-106.99999828052553
31
0
0
LINE
5
412
100
AcDbEntity
8
0
100
AcDbLine
10
71.999999621150153
20
-67.000010697251867
30
0
11
68.999999621150181
21
-67.000010733013909
31
0
0
LINE
5
413
100
AcDbEntity
8
0
100
AcDbLine
10
71.999999621150153
20
-67.000010697251867
30
0
11
72.000006345302197
21
-97.000010697249991
31
0
0
LINE
5
414
100
AcDbEntity
8
0
100
AcDbLine
10
71.999997759705465
20
-67.000031703989094
30
0
11
72.000004483857438
21
-97.000031703987247
31
0
0
LINE
5
415
100
AcDbEntity
8
0
100
AcDbLine
10
71.999997759708236
20
-67.000031703986068
30
0
11
72.000004483860209
21
-97.000031703984206
31
0
0
LINE
5
416
100
AcDbEntity
8
0
100
AcDbLine
10
71.999999621151929
20
-67.000010697252023
30
0
11
74.999998594703712
21
-67.00001002483701
31
0
0
LWPOLYLINE
5
417
100
AcDbEntity
8
0
100
AcDbPolyline
90
36
70
1
43
0.0
10
134.99999888241291
20
2.1175823681357508e-21
10
164.99999888236027
20
0
10
164.99999888236027
20
-2.9999632836131358
10
166.99999835104796
20
-2.9999617349070506
10
167.00000377155047
20
-10.000000149011401
10
170
20
-10.000000149011409
10
170
20
-40.000000149011612
10
167.00000000000034
20
-40.000000149011619
10
167
20
-67.000000000000014
10
170
20
-67.000000000000014
10
170
20
-96.999999999999901
10
166.99999964840711
20
-97.000001445412693
10
166.99999847858339
20
-104.00000678822188
10
164.99999277086911
20
-104.00000645398585
10
164.99999271801579
20
-107.00000060119619
10
134.99999275403556
20
-107.00000144045929
10
134.99999277086951
20
-104.00000144045931
10
119.99999818467512
20
-104.00000178949094
10
120.00000044130931
20
-107.00000172596194
10
89.99999825914233
20
-107.00000253416425
10
89.999998184675121
20
-104.00000253416424
10
87.999999955833175
20
-104.00000258380908
10
87.999999992279498
20
-96.999999741404693
10
84.999999999999645
20
-96.999999725784832
10
84.999999999999645
20
-66.999999725784903
10
88.000000148477966
20
-66.999999741404736
10
88.000000289056601
20
-40.000000596046476
10
84.999999999999645
20
-40.000000149011605
10
84.999999999999645
20
-10.000000149011621
10
88.000000044703128
20
-10.000000149011621
10
87.999998427931544
20
-3.0000229088135306
10
89.999997764825821
20
-3.0000213601075494
10
89.999997764825821
20
2.1175823681357508e-21
10
119.99999776482593
20
0
10
119.99999821186051
20
-2.9999981295097844
10
134.99999888241291
20
-2.9999865142105557
0
LWPOLYLINE
5
418
100
AcDbEntity
8
0
100
AcDbPolyline
90
2
70
1
43
0.0
10
89.999997764825821
20
2.1175823681357508e-21
10
99.999997913837433
20
2.1175823681357508e-21
0
LWPOLYLINE
5
419
100
AcDbEntity
8
0
100
AcDbPolyline
90
36
70
1
43
0.0
10
89.999997764825821
20
2.1175823681357508e-21
10
119.99999776482593
20
0
10
119.99999821186051
20
-2.9999981295097831
10
134.99999888241291
20
-2.999986514210554
10
134.99999888241291
20
2.1175823681357508e-21
10
164.99999888236027
20
0
10
164.99999888236027
20
-2.9999632836131367
10
166.99999835104796
20
-2.9999617349070542
10
167.00000377155047
20
-10.000000149011401
10
170
20
-10.000000149011409
10
170
20
-40.000000149011612
10
167.00000000000034
20
-40.000000149011619
10
167
20
-67.000000000000014
10
170
20
-67.000000000000014
10
170
20
-96.999999999999901
10
166.99999964840711
20
-97.000001445412693
10
166.99999847858336
20
-104.00000678822188
10
164.99999277086911
20
-104.00000645398586
10
164.99999271801579
20
-107.00000060119619
10
134.99999275403559
20
-107.00000144045939
10
134.99999277086954
20
-104.00000144045933
10
119.99999818467508
20
-104.00000178949094
10
120.00000044130928
20
-107.00000172596194
10
89.999998259142416
20
-107.00000253416425
10
89.999998184675079
20
-104.00000253416424
10
87.999999955833175
20
-104.00000258380911
10
87.999999992279498
20
-96.999999741404693
10
84.999999999999645
20
-96.999999725784832
10
84.999999999999645
20
-66.999999725784903
10
88.000000148477966
20
-66.999999741404736
10
88.000000289056601
20
-40.000000596046476
10
84.999999999999645
20
-40.000000149011605
10
84.999999999999645
20
-10.000000149011621
10
88.000000044703128
20
-10.000000149011621
10
87.999998427931544
20
-3.0000229088135297
10
89.999997764825821
20
-3.0000213601075494
0
LWPOLYLINE
5
420
100
AcDbEntity
8
0
100
AcDbPolyline
90
38
70
1
43
0.0
10
167.00000377155047
20
-10.000000149011401
10
166.99999835104796
20
-2.9999617349070542
10
164.99999888236027
20
-2.9999632836131345
10
164.99999888236027
20
2.1175823681357508e-21
10
134.99999888241291
20
2.1175823681357508e-21
10
134.99999888241291
20
-2.9999865142105469
10
119.99999821186051
20
-2.999998129509776
10
119.99999776482593
20
2.1175823681357508e-21
10
89.999997764825821
20
2.1175823681357508e-21
10
99.999997913837433
20
2.1175823681357508e-21
10
89.999997764825821
20
2.1175823681357508e-21
10
89.999997764825821
20
-3.0000213601075543
10
87.999998427931544
20
-3.0000229088135355
10
88.000000044703128
20
-10.000000149011621
10
84.999999999999645
20
-10.000000149011621
10
84.999999999999645
20
-40.000000149011605
10
88.000000289056644
20
-40.000000596046476
10
88.000000148478037
20
-66.99999974140475
10
84.999999999999645
20
-66.999999725784903
10
84.999999999999645
20
-96.999999725784846
10
87.99999999227947
20
-96.999999741404693
10
87.999999955833133
20
-104.00000258380908
10
89.999998184675135
20
-104.00000253416424
10
89.999998259142458
20
-107.00000253416425
10
120.00000044130931
20
-107.00000172596194
10
119.99999818467514
20
-104.00000178949098
10
134.99999277086954
20
-104.00000144045933
10
134.99999275403559
20
-107.00000144045936
10
164.99999271801579
20
-107.00000060119613
10
164.99999277086914
20
-104.00000645398586
10
166.99999847858339
20
-104.00000678822192
10
166.99999964840711
20
-97.000001445412693
10
170
20
-96.999999999999901
10
170
20
-67.000000000000014
10
167
20
-67.000000000000014
10
167.00000000000034
20
-40.000000149011619
10
170
20
-40.000000149011612
10
170
20
-10.000000149011409
0
LWPOLYLINE
5
421
100
AcDbEntity
8
0
100
AcDbPolyline
90
38
70
1
43
0.0
10
119.99999821186051
20
-2.9999981295097831
10
134.99999888241291
20
-2.999986514210554
10
134.99999888241291
20
2.1175823681357508e-21
10
164.99999888236027
20
0
10
164.99999888236027
20
-2.9999632836131367
10
166.99999835104796
20
-2.9999617349070542
10
167.00000377155047
20
-10.000000149011401
10
170
20
-10.000000149011409
10
170
20
-40.000000149011612
10
167.00000000000034
20
-40.000000149011619
10
167
20
-67.000000000000014
10
170
20
-67.000000000000014
10
170
20
-96.999999999999901
10
166.99999964840711
20
-97.000001445412693
10
166.99999847858336
20
-104.00000678822192
10
164.99999277086914
20
-104.00000645398589
10
164.99999271801579
20
-107.00000060119622
10
134.99999275403559
20
-107.00000144045931
10
134.99999277086954
20
-104.00000144045934
10
119.99999818467514
20
-104.00000178949097
10
120.00000044130928
20
-107.00000172596192
10
89.999998259142458
20
-107.00000253416422
10
89.999998184675135
20
-104.00000253416422
10
87.999999955833133
20
-104.00000258380906
10
87.999999992279498
20
-96.999999741404693
10
84.999999999999645
20
-96.999999725784832
10
84.999999999999645
20
-66.999999725784903
10
88.000000148477966
20
-66.99999974140475
10
88.000000289056644
20
-40.000000596046476
10
84.999999999999645
20
-40.000000149011605
10
84.999999999999645
20
-10.000000149011621
10
88.000000044703128
20
-10.000000149011621
10
87.999998427931544
20
-3.0000229088135297
10
89.999997764825821
20
-3.0000213601075494
10
89.999997764825821
20
2.1175823681357508e-21
10
99.999997913837433
20
2.1175823681357508e-21
10
89.999997764825821
20
2.1175823681357508e-21
10
119.99999776482593
20
0
0
LWPOLYLINE
5
422
100
AcDbEntity
8
0
100
AcDbPolyline
90
2
70
1
43
0.0
10
89.999997764825821
20
2.1175823681357508e-21
10
99.999997913837433
20
2.1175823681357508e-21
0
LINE
5
423
100
AcDbEntity
8
0
100
AcDbLine
10
89.999998259142458
20
-107.00000253416425
30
0
11
89.999998335069051
21
-110.00000253416425
31
0
0
LINE
5
424
100
AcDbEntity
8
0
100
AcDbLine
10
89.99999825914233
20
-107.00000253416425
30
0
11
89.999998335069051
21
-110.00000253416425
31
0
0
LINE
5
425
100
AcDbEntity
8
0
100
AcDbLine
10
89.999998259142458
20
-107.00000253416422
30
0
11
89.999998335069051
21
-110.00000253416424
31
0
0
LINE
5
426
100
AcDbEntity
8
0
100
AcDbLine
10
89.999998259142416
20
-107.00000253416425
30
0
11
89.999998335069023
21
-110.00000253416425
31
0
0
LWPOLYLINE
5
427
100
AcDbEntity
8
0
100
AcDbPolyline
90
20
70
1
43
0.0
10
231.99999897792247
20
-67.000003605776385
10
234.99999846955029
20
-67.000003680998873
10
234.99999914655021
20
-40.000003680998958
10
231.99999914655024
20
-40.00000360577674
10
231.9999998987723
20
-10.00000360577677
10
234.9999998987721
20
-10.000003680998992
10
235.00000007429068
20
-3.0000036809989759
10
225.00000000000014
20
-3.0000034302582805
10
225.00000000000014
20
-1.3610218842105738e-06
10
195.00000000000006
20
-1.3610218875783472e-06
10
195.00000000000006
20
-3.0000013610218885
10
184.99999664723887
20
-3.0000016929785582
10
185.00000000000011
20
-103.99999944297292
10
194.99999998961869
20
-103.99999944297292
10
194.99999998961869
20
-106.99999944297292
10
224.9999972326159
20
-106.99999944297292
10
224.99999998961863
20
-103.99999945515
10
234.99999754180976
20
-103.99999970589064
10
234.99999771732831
20
-97.000003680997821
10
231.99999822569967
20
-97.000003605775319
0
LWPOLYLINE
5
428
100
AcDbEntity
8
0
100
AcDbPolyline
90
20
70
1
43
0.0
10
234.99999754180976
20
-103.99999970589064
10
234.99999771732831
20
-97.000003680997821
10
231.99999822569967
20
-97.000003605775319
10
231.99999897792247
20
-67.000003605776385
10
234.99999846955029
20
-67.000003680998873
10
234.99999914655021
20
-40.000003680998958
10
231.99999914655024
20
-40.00000360577674
10
231.9999998987723
20
-10.00000360577677
10
234.9999998987721
20
-10.000003680998992
10
235.00000007429068
20
-3.0000036809989759
10
225.00000000000014
20
-3.0000034302582805
10
225.00000000000014
20
-1.3610218842105738e-06
10
195.00000000000006
20
-1.3610218874138269e-06
10
195.00000000000006
20
-3.0000013610218885
10
184.99999664723887
20
-3.0000016929785582
10
185.00000000000011
20
-103.99999944297292
10
194.99999998961869
20
-103.99999944297292
10
194.99999998961869
20
-106.99999944297292
10
224.9999972326159
20
-106.99999944297292
10
224.99999998961863
20
-103.99999945515
0
LWPOLYLINE
5
429
100
AcDbEntity
8
0
100
AcDbPolyline
90
20
70
1
43
0.0
10
231.99999897792247
20
-67.000003605776385
10
234.99999846955029
20
-67.000003680998873
10
234.99999914655021
20
-40.000003680998958
10
231.99999914655024
20
-40.00000360577674
10
231.9999998987723
20
-10.00000360577677
10
234.9999998987721
20
-10.000003680998992
10
235.00000007429068
20
-3.0000036809989759
10
225.00000000000014
20
-3.0000034302582805
10
225.00000000000014
20
-1.3610218842105738e-06
10
195.00000000000006
20
-1.3610218875783472e-06
10
195.00000000000006
20
-3.0000013610218885
10
184.99999664723887
20
-3.0000016929785582
10
185.00000000000011
20
-103.99999944297292
10
194.99999998961869
20
-103.99999944297292
10
194.99999998961869
20
-106.99999944297292
10
224.9999972326159
20
-106.99999944297292
10
224.99999998961863
20
-103.99999945515
10
234.99999754180976
20
-103.99999970589064
10
234.99999771732831
20
-97.000003680997821
10
231.99999822569967
20
-97.000003605775319
0
LWPOLYLINE
5
430
100
AcDbEntity
8
0
100
AcDbPolyline
90
20
70
1
43
0.0
10
231.99999822569967
20
-97.000003605775319
10
234.99999771732831
20
-97.000003680997821
10
234.99999754180976
20
-103.99999970589064
10
224.99999998961863
20
-103.99999945515
10
224.9999972326159
20
-106.99999944297292
10
194.99999998961869
20
-106.99999944297292
10
194.99999998961869
20
-103.99999944297292
10
185.00000000000011
20
-103.99999944297292
10
184.99999664723887
20
-3.0000016929785582
10
195.00000000000006
20
-3.0000013610218885
10
195.00000000000006
20
-1.3610218875783472e-06
10
225.00000000000014
20
-1.3610218840831578e-06
10
225.00000000000014
20
-3.0000034302582805
10
235.00000007429068
20
-3.0000036809989759
10
234.9999998987721
20
-10.000003680998992
10
231.9999998987723
20
-10.00000360577677
10
231.99999914655024
20
-40.00000360577674
10
234.99999914655021
20
-40.000003680998958
10
234.99999846955029
20
-67.000003680998873
10
231.99999897792247
20
-67.000003605776385
0
LINE
5
431
100
AcDbEntity
8
0
100
AcDbLine
10
231.99999897792247
20
-67.000003605776385
30
0
11
231.99999822569967
21
-97.000003605775319
31
0
0
LINE
5
432
100
AcDbEntity
8
0
100
AcDbLine
10
231.99999897792247
20
-67.000003605776385
30
0
11
231.99999822569967
21
-97.000003605775319
31
0
0
LINE
5
433
100
AcDbEntity
8
0
100
AcDbLine
10
231.99999897792247
20
-67.000003605776385
30
0
11
231.99999822569967
21
-97.000003605775319
31
0
0
LINE
5
434
100
AcDbEntity
8
0
100
AcDbLine
10
231.99999897792247
20
-67.000003605776385
30
0
11
231.99999822569967
21
-97.000003605775319
31
0
0
LINE
5
435
100
AcDbEntity
8
0
100
AcDbLine
10
231.99999897792247
20
-67.000003605776385
30
0
11
228.99999897792438
21
-67.0000035846993
31
0
0
LINE
5
436
100
AcDbEntity
8
0
100
AcDbLine
10
231.99999897792247
20
-67.000003605776385
30
0
11
228.99999897792438
21
-67.0000035846993
31
0
0
LINE
5
437
100
AcDbEntity
8
0
100
AcDbLine
10
231.99999897792247
20
-67.000003605776385
30
0
11
228.99999897792438
21
-67.0000035846993
31
0
0
LINE
5
438
100
AcDbEntity
8
0
100
AcDbLine
10
231.99999897792247
20
-67.000003605776385
30
0
11
228.99999897792438
21
-67.0000035846993
31
0
0
LINE
5
439
100
AcDbEntity
8
0
100
AcDbLine
10
235.00000007429068
20
-3.0000036809989759
30
0
11
234.9999998987721
21
-10.000003680998992
31
0
0
LINE
5
440
100
AcDbEntity
8
0
100
AcDbLine
10
234.9999998987721
20
-10.000003680998992
30
0
11
235.00000007429068
21
-3.0000036809989759
31
0
0
LINE
5
441
100
AcDbEntity
8
0
100
AcDbLine
10
195.00000000000006
20
-3.0000013610218885
30
0
11
195.00000000000006
21
-1.3610218875783472e-06
31
0
0
LINE
5
442
100
AcDbEntity
8
0
100
AcDbLine
10
195.00000000000006
20
-3.0000013610218885
30
0
11
195.00000000000006
21
-1.3610218875783472e-06
31
0
0
LINE
5
443
100
AcDbEntity
8
0
100
AcDbLine
10
235.00000007429068
20
-3.0000036809989759
30
0
11
234.9999998987721
21
-10.000003680998992
31
0
0
LINE
5
444
100
AcDbEntity
8
0
100
AcDbLine
10
195.00000000000006
20
-3.0000013610218885
30
0
11
195.00000000000006
21
-1.3610218875783472e-06
31
0
0
LINE
5
445
100
AcDbEntity
8
0
100
AcDbLine
10
235.00000007429068
20
-3.0000036809989759
30
0
11
234.9999998987721
21
-10.000003680998992
31
0
0
LINE
5
446
100
AcDbEntity
8
0
100
AcDbLine
10
195.00000000000006
20
-1.3610218875783472e-06
30
0
11
195.00000000000006
21
-3.0000013610218885
31
0
0
LINE
5
447
100
AcDbEntity
8
0
100
AcDbLine
10
99.553546250244835
20
23.93888667893939
30
0
11
94.506542009624297
21
23.938886678939362
31
0
0
LWPOLYLINE
5
448
100
AcDbEntity
8
0
100
AcDbPolyline
90
2
70
1
43
0.0
10
94.506542009624297
20
23.938886678939362
10
94.506542009624354
20
33.938886678939639
0
LINE
5
449
100
AcDbEntity
8
0
100
AcDbLine
10
99.553546250244835
20
26.938886678939397
30
0
11
129.55354625024486
21
26.938886678939369
31
0
0
LWPOLYLINE
5
450
100
AcDbEntity
8
0
100
AcDbPolyline
90
2
70
1
43
0.0
10
99.553546250244835
20
23.93888667893939
10
99.553546250244835
20
26.938886678939397
0
LINE
5
451
100
AcDbEntity
8
0
100
AcDbLine
10
97.506542009624354
20
33.938886678939632
30
0
11
97.506542009624411
21
63.938886678939625
31
0
0
LINE
5
452
100
AcDbEntity
8
0
100
AcDbLine
10
97.506542009624411
20
63.938886678939625
30
0
11
94.506542009624297
21
63.938886678939362
31
0
0
LINE
5
453
100
AcDbEntity
8
0
100
AcDbLine
10
94.506542009624297
20
63.938886678939362
30
0
11
94.506542009624297
21
73.938886678939355
31
0
0
LINE
5
454
100
AcDbEntity
8
0
100
AcDbLine
10
94.506542009624297
20
63.938886678939362
30
0
11
94.506542009624297
21
73.938886678939355
31
0
0
LINE
5
455
100
AcDbEntity
8
0
100
AcDbLine
10
94.506542009624297
20
63.938886678939362
30
0
11
94.506542009624297
21
73.938886678939355
31
0
0
LINE
5
456
100
AcDbEntity
8
0
100
AcDbLine
10
97.506542009624411
20
63.938886678939625
30
0
11
94.506542009624297
21
63.938886678939362
31
0
0
LINE
5
457
100
AcDbEntity
8
0
100
AcDbLine
10
97.506542009624411
20
63.938886678939625
30
0
11
94.506542009624297
21
63.938886678939362
31
0
0
LINE
5
458
100
AcDbEntity
8
0
100
AcDbLine
10
97.506542009624411
20
63.938886678939625
30
0
11
94.506542009624297
21
63.938886678939362
31
0
0
LINE
5
459
100
AcDbEntity
8
0
100
AcDbLine
10
97.506542009624354
20
33.938886678939632
30
0
11
97.506542009624411
21
63.938886678939625
31
0
0
LINE
5
460
100
AcDbEntity
8
0
100
AcDbLine
10
94.506542009624354
20
33.938886678939639
30
0
11
97.506542009624354
21
33.938886678939632
31
0
0
LINE
5
461
100
AcDbEntity
8
0
100
AcDbLine
10
97.506542009624354
20
33.938886678939632
30
0
11
97.506542009624411
21
63.938886678939625
31
0
0
LINE
5
462
100
AcDbEntity
8
0
100
AcDbLine
10
94.506542009624297
20
63.938886678939362
30
0
11
94.506542009624297
21
73.938886678939355
31
0
0
LINE
5
463
100
AcDbEntity
8
0
100
AcDbLine
10
97.506542009624354
20
33.938886678939632
30
0
11
97.506542009624411
21
63.938886678939625
31
0
0
LINE
5
464
100
AcDbEntity
8
0
100
AcDbLine
10
94.506542009624354
20
33.938886678939639
30
0
11
97.506542009624354
21
33.938886678939632
31
0
0
LINE
5
465
100
AcDbEntity
8
0
100
AcDbLine
10
94.506542009624354
20
33.938886678939639
30
0
11
97.506542009624354
21
33.938886678939632
31
0
0
LINE
5
466
100
AcDbEntity
8
0
100
AcDbLine
10
94.506542009624354
20
33.938886678939639
30
0
11
97.506542009624354
21
33.938886678939632
31
0
0
LINE
5
467
100
AcDbEntity
8
0
100
AcDbLine
10
144.55354736783195
20
23.938886678939362
30
0
11
129.55354625024486
21
23.938886678939362
31
0
0
LINE
5
468
100
AcDbEntity
8
0
100
AcDbLine
10
129.55354625024486
20
26.938886678939369
30
0
11
129.55354625024486
21
23.938886678939362
31
0
0
LINE
5
469
100
AcDbEntity
8
0
100
AcDbLine
10
99.553546250244835
20
26.938886678939397
30
0
11
129.55354625024486
21
26.938886678939369
31
0
0
LINE
5
470
100
AcDbEntity
8
0
100
AcDbLine
10
94.506542009624297
20
73.938886678939355
30
0
11
179.5065420096243
21
73.938886678939355
31
0
0
LWPOLYLINE
5
471
100
AcDbEntity
8
0
100
AcDbPolyline
90
2
70
1
43
0.0
10
144.55354736783195
20
26.938886678939369
10
144.55354736783195
20
23.938886678939362
0
LWPOLYLINE
5
472
100
AcDbEntity
8
0
100
AcDbPolyline
90
2
70
1
43
0.0
10
99.553546250244835
20
26.938886678939397
10
99.553546250244835
20
23.93888667893939
0
LINE
5
473
100
AcDbEntity
8
0
100
AcDbLine
10
99.553546250244835
20
23.93888667893939
30
0
11
94.506542009624297
21
23.938886678939362
31
0
0
LWPOLYLINE
5
474
100
AcDbEntity
8
0
100
AcDbPolyline
90
2
70
1
43
0.0
10
94.506542009624297
20
23.938886678939362
10
94.506542009624354
20
33.938886678939639
0
LWPOLYLINE
5
475
100
AcDbEntity
8
0
100
AcDbPolyline
90
2
70
1
43
0.0
10
94.506542009624297
20
23.938886678939362
10
94.506542009624354
20
33.938886678939639
0
LINE
5
476
100
AcDbEntity
8
0
100
AcDbLine
10
99.553546250244835
20
23.93888667893939
30
0
11
94.506542009624297
21
23.938886678939362
31
0
0
LWPOLYLINE
5
477
100
AcDbEntity
8
0
100
AcDbPolyline
90
2
70
1
43
0.0
10
99.553546250244835
20
23.93888667893939
10
99.553546250244835
20
26.938886678939397
0
LINE
5
478
100
AcDbEntity
8
0
100
AcDbLine
10
94.506542009624297
20
73.938886678939355
30
0
11
179.5065420096243
21
73.938886678939355
31
0
0
LINE
5
479
100
AcDbEntity
8
0
100
AcDbLine
10
176.5065420096243
20
33.938886678939362
30
0
11
179.50777932836098
21
33.938886678939362
31
0
0
LWPOLYLINE
5
480
100
AcDbEntity
8
0
100
AcDbPolyline
90
2
70
1
43
0.0
10
144.55354736783195
20
23.938886678939362
10
144.55354736783195
20
26.938886678939369
0
LINE
5
481
100
AcDbEntity
8
0
100
AcDbLine
10
99.553546250244835
20
26.938886678939397
30
0
11
129.55354625024486
21
26.938886678939369
31
0
0
LINE
5
482
100
AcDbEntity
8
0
100
AcDbLine
10
129.55354625024486
20
26.938886678939369
30
0
11
129.55354625024486
21
23.938886678939362
31
0
0
LINE
5
483
100
AcDbEntity
8
0
100
AcDbLine
10
129.55354625024486
20
26.938886678939369
30
0
11
129.55354625024486
21
23.938886678939362
31
0
0
LINE
5
484
100
AcDbEntity
8
0
100
AcDbLine
10
179.5065420096243
20
33.938886678939362
30
0
11
179.5065420096243
21
23.938886678939362
31
0
0
LINE
5
485
100
AcDbEntity
8
0
100
AcDbLine
10
129.55354625024486
20
26.938886678939369
30
0
11
129.55354625024486
21
23.938886678939362
31
0
0
LINE
5
486
100
AcDbEntity
8
0
100
AcDbLine
10
144.55354736783195
20
26.938886678939369
30
0
11
174.55354736783192
21
26.938886678939369
31
0
0
LWPOLYLINE
5
487
100
AcDbEntity
8
0
100
AcDbPolyline
90
2
70
1
43
0.0
10
99.553546250244835
20
23.93888667893939
10
99.553546250244835
20
26.938886678939397
0
LINE
5
488
100
AcDbEntity
8
0
100
AcDbLine
10
99.553546250244835
20
23.93888667893939
30
0
11
94.506542009624297
21
23.938886678939362
31
0
0
LWPOLYLINE
5
489
100
AcDbEntity
8
0
100
AcDbPolyline
90
2
70
1
43
0.0
10
94.506542009624297
20
23.938886678939362
10
94.506542009624354
20
33.938886678939639
0
LINE
5
490
100
AcDbEntity
8
0
100
AcDbLine
10
99.553546250244835
20
26.938886678939397
30
0
11
129.55354625024486
21
26.938886678939369
31
0
0
LINE
5
491
100
AcDbEntity
8
0
100
AcDbLine
10
94.506542009624297
20
73.938886678939355
30
0
11
179.5065420096243
21
73.938886678939355
31
0
0
LINE
5
492
100
AcDbEntity
8
0
100
AcDbLine
10
179.5065420096243
20
23.938886678939362
30
0
11
174.55354736783192
21
23.938886678939362
31
0
0
LINE
5
493
100
AcDbEntity
8
0
100
AcDbLine
10
144.55354736783195
20
23.938886678939362
30
0
11
129.55354625024486
21
23.938886678939362
31
0
0
LINE
5
494
100
AcDbEntity
8
0
100
AcDbLine
10
179.5065420096243
20
63.938886678939362
30
0
11
176.5065420096243
21
63.938886678939369
31
0
0
LINE
5
495
100
AcDbEntity
8
0
100
AcDbLine
10
179.5065420096243
20
73.938886678939355
30
0
11
179.5065420096243
21
63.938886678939362
31
0
0
LINE
5
496
100
AcDbEntity
8
0
100
AcDbLine
10
179.5065420096243
20
63.938886678939362
30
0
11
176.5065420096243
21
63.938886678939369
31
0
0
LWPOLYLINE
5
497
100
AcDbEntity
8
0
100
AcDbPolyline
90
2
70
1
43
0.0
10
176.5065420096243
20
63.938886678939369
10
179.5065420096243
20
63.938886678939362
0
LINE
5
498
100
AcDbEntity
8
0
100
AcDbLine
10
179.5065420096243
20
73.938886678939355
30
0
11
179.5065420096243
21
63.938886678939362
31
0
0
LINE
5
499
100
AcDbEntity
8
0
100
AcDbLine
10
176.5065420096243
20
33.938886678939362
30
0
11
179.50777932836098
21
33.938886678939362
31
0
0
LINE
5
500
100
AcDbEntity
8
0
100
AcDbLine
10
94.506542009624297
20
73.938886678939355
30
0
11
179.5065420096243
21
73.938886678939355
31
0
0
LINE
5
501
100
AcDbEntity
8
0
100
AcDbLine
10
176.5065420096243
20
63.938886678939369
30
0
11
176.5065420096243
21
33.938886678939362
31
0
0
LINE
5
502
100
AcDbEntity
8
0
100
AcDbLine
10
176.5065420096243
20
63.938886678939369
30
0
11
176.5065420096243
21
33.938886678939362
31
0
0
LINE
5
503
100
AcDbEntity
8
0
100
AcDbLine
10
144.55354736783195
20
23.938886678939362
30
0
11
129.55354625024486
21
23.938886678939362
31
0
0
LWPOLYLINE
5
504
100
AcDbEntity
8
0
100
AcDbPolyline
90
2
70
1
43
0.0
10
179.5065420096243
20
63.938886678939362
10
176.5065420096243
20
63.938886678939369
0
LINE
5
505
100
AcDbEntity
8
0
100
AcDbLine
10
179.5065420096243
20
73.938886678939355
30
0
11
179.5065420096243
21
63.938886678939362
31
0
0
LINE
5
506
100
AcDbEntity
8
0
100
AcDbLine
10
176.5065420096243
20
63.938886678939369
30
0
11
179.5065420096243
21
63.938886678939362
31
0
0
LINE
5
507
100
AcDbEntity
8
0
100
AcDbLine
10
176.5065420096243
20
33.938886678939362
30
0
11
179.50777932836098
21
33.938886678939362
31
0
0
LINE
5
508
100
AcDbEntity
8
0
100
AcDbLine
10
176.5065420096243
20
63.938886678939369
30
0
11
176.5065420096243
21
33.938886678939362
31
0
0
LINE
5
509
100
AcDbEntity
8
0
100
AcDbLine
10
176.5065420096243
20
63.938886678939369
30
0
11
176.5065420096243
21
33.938886678939362
31
0
0
LINE
5
510
100
AcDbEntity
8
0
100
AcDbLine
10
179.5065420096243
20
73.938886678939355
30
0
11
179.5065420096243
21
63.938886678939362
31
0
0
LINE
5
511
100
AcDbEntity
8
0
100
AcDbLine
10
176.5065420096243
20
63.938886678939369
30
0
11
179.5065420096243
21
63.938886678939362
31
0
0
LWPOLYLINE
5
512
100
AcDbEntity
8
0
100
AcDbPolyline
90
2
70
1
43
0.0
10
144.55354736783195
20
23.938886678939362
10
144.55354736783195
20
26.938886678939369
0
LINE
5
513
100
AcDbEntity
8
0
100
AcDbLine
10
174.55354736783192
20
26.938886678939369
30
0
11
174.55354736783192
21
23.938886678939362
31
0
0
LINE
5
514
100
AcDbEntity
8
0
100
AcDbLine
10
144.55354736783195
20
26.938886678939369
30
0
11
174.55354736783192
21
26.938886678939369
31
0
0
LINE
5
515
100
AcDbEntity
8
0
100
AcDbLine
10
144.55354736783195
20
26.938886678939369
30
0
11
144.55354736783195
21
23.938886678939362
31
0
0
LINE
5
516
100
AcDbEntity
8
0
100
AcDbLine
10
144.55354736783195
20
23.938886678939362
30
0
11
129.55354625024486
21
23.938886678939362
31
0
0
LINE
5
517
100
AcDbEntity
8
0
100
AcDbLine
10
144.55354736783195
20
26.938886678939369
30
0
11
174.55354736783192
21
26.938886678939369
31
0
0
LINE
5
518
100
AcDbEntity
8
0
100
AcDbLine
10
176.5065420096243
20
33.938886678939362
30
0
11
179.50777932836098
21
33.938886678939362
31
0
0
LINE
5
519
100
AcDbEntity
8
0
100
AcDbLine
10
179.5065420096243
20
33.938886678939362
30
0
11
179.5065420096243
21
23.938886678939362
31
0
0
LINE
5
520
100
AcDbEntity
8
0
100
AcDbLine
10
179.5065420096243
20
33.938886678939362
30
0
11
179.5065420096243
21
23.938886678939362
31
0
0
LINE
5
521
100
AcDbEntity
8
0
100
AcDbLine
10
179.5065420096243
20
23.938886678939362
30
0
11
174.55354736783192
21
23.938886678939362
31
0
0
LINE
5
522
100
AcDbEntity
8
0
100
AcDbLine
10
179.5065420096243
20
23.938886678939362
30
0
11
174.55354736783192
21
23.938886678939362
31
0
0
LINE
5
523
100
AcDbEntity
8
0
100
AcDbLine
10
174.55354736783192
20
26.938886678939369
30
0
11
174.55354736783192
21
23.938886678939362
31
0
0
LINE
5
524
100
AcDbEntity
8
0
100
AcDbLine
10
174.55354736783192
20
26.938886678939369
30
0
11
174.55354736783192
21
23.938886678939362
31
0
0
LINE
5
525
100
AcDbEntity
8
0
100
AcDbLine
10
174.55354736783192
20
26.938886678939369
30
0
11
174.55354736783192
21
23.938886678939362
31
0
0
LINE
5
526
100
AcDbEntity
8
0
100
AcDbLine
10
144.55354736783195
20
23.938886678939362
30
0
11
144.55354736783195
21
26.938886678939369
31
0
0
LINE
5
527
100
AcDbEntity
8
0
100
AcDbLine
10
179.5065420096243
20
33.938886678939362
30
0
11
179.5065420096243
21
23.938886678939362
31
0
0
LINE
5
528
100
AcDbEntity
8
0
100
AcDbLine
10
144.55354736783195
20
26.938886678939369
30
0
11
174.55354736783192
21
26.938886678939369
31
0
0
LINE
5
529
100
AcDbEntity
8
0
100
AcDbLine
10
179.5065420096243
20
23.938886678939362
30
0
11
174.55354736783192
21
23.938886678939362
31
0
0
SPLINE
5
530
100
AcDbEntity
8
0
100
AcDbSpline
70
4
71
5
72
15
73
9
74
0
42
0.000000001
43
0.0000000001
44
0.0000000001
40
0
40
0
40
0
40
0
40
0
40
0
40
0.10000000000000001
40
0.20000000000000001
40
0.30000000000000004
40
0.3648970951932804
40
0.3648970951932804
40
0.3648970951932804
40
0.3648970951932804
40
0.3648970951932804
40
0.3648970951932804
41
1
41
1
41
1
41
1
41
1
41
1
41
1
41
1
41
1
10
-137.54646187515525
20
-135.00000050897091
30
0
10
-136.9552655595206
20
-134.60934511364934
30
0
10
-135.76037944507806
20
-133.84686897207115
30
0
10
-133.93056941094778
20
-132.75965932944064
30
0
10
-131.63542314564302
20
-131.54204340591795
30
0
10
-129.25017209608203
20
-130.46026566033706
30
0
10
-127.46768392667838
20
-129.75170604452518
30
0
10
-126.33758132041143
20
-129.34155549150788
30
0
10
-125.88959955221372
20
-129.18498635311556
30
0
0
ENDSEC
0
SECTION
2
OBJECTS
0
DICTIONARY
5
C
100
AcDbDictionary
3
ACAD_GROUP
350
D
3
ACAD_MLINESTYLE
350
17
0
DICTIONARY
5
D
100
AcDbDictionary
0
DICTIONARY
5
1A
330
C
100
AcDbDictionary
0
DICTIONARY
5
17
100
AcDbDictionary
0
ENDSEC
0
EOF
