0
SECTION
2
HEADER
9
$INSUNITS
70
4
9
$ACADVER
1
AC1014
9
$HANDSEED
5
FFFF
0
ENDSEC
0
SECTION
2
TABLES
0
TABLE
2
VPORT
5
8
100
AcDbSymbolTable
0
ENDTAB
0
TABLE
2
LTYPE
5
5
100
AcDbSymbolTable
0
LTYPE
5
14
100
AcDbSymbolTableRecord
100
AcDbLinetypeTableRecord
2
BYBLOCK
70
0
0
LTYPE
5
15
100
AcDbSymbolTableRecord
100
AcDbLinetypeTableRecord
2
BYLAYER
70
0
0
ENDTAB
0
TABLE
2
LAYER
5
2
100
AcDbSymbolTable
70
2
0
LAYER
5
50
100
AcDbSymbolTableRecord
100
AcDbLayerTableRecord
2
0
70
0
6
CONTINUOUS
0
ENDTAB
0
TABLE
2
STYLE
5
3
100
AcDbSymbolTable
70
1
0
STYLE
5
11
100
AcDbSymbolTableRecord
100
AcDbTextStyleTableRecord
2
STANDARD
70
0
0
ENDTAB
0
TABLE
2
VIEW
5
6
100
AcDbSymbolTable
70
0
0
ENDTAB
0
TABLE
2
UCS
5
7
100
AcDbSymbolTable
70
0
0
ENDTAB
0
TABLE
2
APPID
5
9
100
AcDbSymbolTable
70
2
0
APPID
5
12
100
AcDbSymbolTableRecord
100
AcDbRegAppTableRecord
2
ACAD
70
0
0
ENDTAB
0
TABLE
2
DIMSTYLE
5
A
100
AcDbSymbolTable
70
1
0
ENDTAB
0
TABLE
2
BLOCK_RECORD
5
1
100
AcDbSymbolTable
70
1
0
BLOCK_RECORD
5
1F
100
AcDbSymbolTableRecord
100
AcDbBlockTableRecord
2
*MODEL_SPACE
0
BLOCK_RECORD
5
1B
100
AcDbSymbolTableRecord
100
AcDbBlockTableRecord
2
*PAPER_SPACE
0
ENDTAB
0
ENDSEC
0
SECTION
2
BLOCKS
0
BLOCK
5
20
100
AcDbEntity
100
AcDbBlockBegin
2
*MODEL_SPACE
0
ENDBLK
5
21
100
AcDbEntity
100
AcDbBlockEnd
0
BLOCK
5
1C
100
AcDbEntity
100
AcDbBlockBegin
2
*PAPER_SPACE
0
ENDBLK
5
1D
100
AcDbEntity
100
AcDbBlockEnd
0
ENDSEC
0
SECTION
2
ENTITIES
0
LINE
5
100
100
AcDbEntity
8
0
100
AcDbLine
10
-200.00000106029171
20
-40.001994354944927
30
0
11
-200.00000191988406
21
-69.99999539804864
31
0
0
LINE
5
101
100
AcDbEntity
8
0
100
AcDbLine
10
0
20
-70.000001043081284
30
0
11
0
21
-40.002000000000002
31
0
0
LINE
5
102
100
AcDbEntity
8
0
100
AcDbLine
10
-200
20
-260
30
0
11
0
21
-260
31
0
0
LINE
5
103
100
AcDbEntity
8
0
100
AcDbLine
10
0
20
-150
30
0
11
-200
21
-150
31
0
0
LWPOLYLINE
5
104
100
AcDbEntity
8
0
100
AcDbPolyline
90
10
70
1
43
0.0
10
0
20
-150
10
-200
20
-150
10
-203
20
-150
10
-203
20
-152.858
10
-200
20
-152.858
10
-200
20
-260
10
0
20
-260
10
0
20
-152.858
10
3
20
-152.858
10
3
20
-150
0
LINE
5
105
100
AcDbEntity
8
0
100
AcDbLine
10
-162.5
20
0
30
0
11
-162.5
21
-3.0000000000000004
31
0
0
LINE
5
106
100
AcDbEntity
8
0
100
AcDbLine
10
-132.5
20
-3.0000000000000004
30
0
11
-132.5
21
0
31
0
0
LINE
5
107
100
AcDbEntity
8
0
100
AcDbLine
10
-197.00000106029168
20
-3.0000000000000004
30
0
11
-162.5
21
-3.0000000000000004
31
0
0
LINE
5
108
100
AcDbEntity
8
0
100
AcDbLine
10
-132.5
20
-3.0000000000000004
30
0
11
-67.5
21
-3.0000000000000004
31
0
0
LINE
5
109
100
AcDbEntity
8
0
100
AcDbLine
10
-67.5
20
-3.0000000000000004
30
0
11
-67.5
21
0
31
0
0
LWPOLYLINE
5
110
100
AcDbEntity
8
0
100
AcDbPolyline
90
2
70
1
43
0.0
10
-132.5
20
0
10
-162.5
20
0
0
LINE
5
111
100
AcDbEntity
8
0
100
AcDbLine
10
-37.5
20
0
30
0
11
-67.5
21
0
31
0
0
LWPOLYLINE
5
112
100
AcDbEntity
8
0
100
AcDbPolyline
90
2
70
1
43
0.0
10
-37.5
20
-3.0000000000000004
10
-37.5
20
0
0
LINE
5
113
100
AcDbEntity
8
0
100
AcDbLine
10
-37.5
20
-110.0039613717373
30
0
11
-37.5
21
-107.00396137173729
31
0
0
LINE
5
114
100
AcDbEntity
8
0
100
AcDbLine
10
-67.5
20
-110.0039613717373
30
0
11
-67.5
21
-107.00396137173729
31
0
0
LWPOLYLINE
5
115
100
AcDbEntity
8
0
100
AcDbPolyline
90
2
70
1
43
0.0
10
-162.5
20
-110.0039613717373
10
-162.5
20
-107.00396137173729
0
LINE
5
116
100
AcDbEntity
8
0
100
AcDbLine
10
-132.5
20
-110.0039613717373
30
0
11
-132.5
21
-107.00396137173729
31
0
0
LINE
5
117
100
AcDbEntity
8
0
100
AcDbLine
10
-162.5
20
-107.00396137173729
30
0
11
-197.00000191994133
21
-107.00396137173729
31
0
0
LINE
5
118
100
AcDbEntity
8
0
100
AcDbLine
10
-132.5
20
-107.00396137173729
30
0
11
-67.5
21
-107.00396137173729
31
0
0
LINE
5
119
100
AcDbEntity
8
0
100
AcDbLine
10
-37.5
20
-107.00396137173729
30
0
11
0
21
-107.00396137173729
31
0
0
LWPOLYLINE
5
120
100
AcDbEntity
8
0
100
AcDbPolyline
90
2
70
1
43
0.0
10
-162.5
20
-110
10
-132.5
20
-110
0
LWPOLYLINE
5
121
100
AcDbEntity
8
0
100
AcDbPolyline
90
2
70
1
43
0.0
10
-67.5
20
-110
10
-37.5
20
-110
0
LINE
5
122
100
AcDbEntity
8
0
100
AcDbLine
10
-162.5
20
0
30
0
11
-162.5
21
-3.0000000000000004
31
0
0
LINE
5
123
100
AcDbEntity
8
0
100
AcDbLine
10
-200.00000106029171
20
-40.001994354944927
30
0
11
-200.00000191988406
21
-69.99999539804864
31
0
0
LWPOLYLINE
5
124
100
AcDbEntity
8
0
100
AcDbPolyline
90
2
70
1
43
0.0
10
0.00078408988620992659
20
-40.002000000000002
10
0.00078408988620992659
20
-55.002000000000002
0
LINE
5
125
100
AcDbEntity
8
0
100
AcDbLine
10
0.00078408988620992659
20
-40.002000000000002
30
0
11
-2.9992159101137905
21
-40.002000000000002
31
0
0
LINE
5
126
100
AcDbEntity
8
0
100
AcDbLine
10
0
20
-70.000001043081284
30
0
11
-3.0000000000000004
21
-70.000001043081284
31
0
0
LINE
5
127
100
AcDbEntity
8
0
100
AcDbLine
10
-2.9992159101137905
20
-70.000001043081284
30
0
11
-2.9992159101137905
21
-70.001999999999995
31
0
0
LINE
5
128
100
AcDbEntity
8
0
100
AcDbLine
10
-2.9992159101137905
20
-40.002000000000002
30
0
11
-2.9992159101137905
21
-3.0000000000000004
31
0
0
LINE
5
129
100
AcDbEntity
8
0
100
AcDbLine
10
-3.0000000000000004
20
-70.000001043081284
30
0
11
-3.0000000000000004
21
-107.00396137173729
31
0
0
LWPOLYLINE
5
130
100
AcDbEntity
8
0
100
AcDbPolyline
90
2
70
1
43
0.0
10
-197.00000106029168
20
-40.001994440909883
10
-200.00000106029171
20
-40.001994354944927
0
LINE
5
131
100
AcDbEntity
8
0
100
AcDbLine
10
-197.00000191988403
20
-69.99999548401361
30
0
11
-200.00000191988406
21
-69.99999539804864
31
0
0
LINE
5
132
100
AcDbEntity
8
0
100
AcDbLine
10
-197.00000191988403
20
-69.99999548401361
30
0
11
-197.00000191994133
21
-70.001994440909868
31
0
0
LINE
5
133
100
AcDbEntity
8
0
100
AcDbLine
10
-197.00000191994133
20
-70.001994440909868
30
0
11
-197.00000191994133
21
-107.00396137173729
31
0
0
LINE
5
134
100
AcDbEntity
8
0
100
AcDbLine
10
-197.00000106029168
20
-40.001994440909883
30
0
11
-197.00000106029168
21
-3.0000000000000004
31
0
0
LINE
5
135
100
AcDbEntity
8
0
100
AcDbLine
10
-132.5
20
-3.0000000000000004
30
0
11
-67.5
21
-3.0000000000000004
31
0
0
LINE
5
136
100
AcDbEntity
8
0
100
AcDbLine
10
-37.5
20
-3.0000000000000004
30
0
11
-2.9992159101137905
21
-3.0000000000000004
31
0
0
LINE
5
137
100
AcDbEntity
8
0
100
AcDbLine
10
-407.00000106029171
20
-40.001994440909591
30
0
11
-407.00000106029165
21
-3.0000000000000004
31
0
0
LWPOLYLINE
5
138
100
AcDbEntity
8
0
100
AcDbPolyline
90
2
70
1
43
0.0
10
-410.00000106029177
20
-40.001994354944628
10
-407.00000106029171
20
-40.001994440909591
0
LWPOLYLINE
5
139
100
AcDbEntity
8
0
100
AcDbPolyline
90
2
70
1
43
0.0
10
-410.00000106029177
20
-40.001994354944628
10
-410.00000191988408
20
-69.99999539804864
0
LINE
5
140
100
AcDbEntity
8
0
100
AcDbLine
10
-407.00000106029165
20
-3.0000000000000004
30
0
11
-372.5
21
-3.0000000000000004
31
0
0
LINE
5
141
100
AcDbEntity
8
0
100
AcDbLine
10
-342.5
20
-2.999999999999992
30
0
11
-277.5
21
-2.9999999999999964
31
0
0
LINE
5
142
100
AcDbEntity
8
0
100
AcDbLine
10
-213
20
-70.000001043081284
30
0
11
-213
21
-107.00396137173729
31
0
0
LINE
5
143
100
AcDbEntity
8
0
100
AcDbLine
10
-210
20
-70.000001043081284
30
0
11
-213
21
-70.000001043081284
31
0
0
LINE
5
144
100
AcDbEntity
8
0
100
AcDbLine
10
-210
20
-70.000001043081284
30
0
11
-210
21
-40.002000000000002
31
0
0
LINE
5
145
100
AcDbEntity
8
0
100
AcDbLine
10
-407.00000191994138
20
-70.001994440909868
30
0
11
-407.00000191994138
21
-107.00396137173729
31
0
0
LWPOLYLINE
5
146
100
AcDbEntity
8
0
100
AcDbPolyline
90
2
70
1
43
0.0
10
-342.5
20
0
10
-372.5
20
0
0
LINE
5
147
100
AcDbEntity
8
0
100
AcDbLine
10
-277.5
20
-2.9999999999999964
30
0
11
-277.5
21
0
31
0
0
LINE
5
148
100
AcDbEntity
8
0
100
AcDbLine
10
-342.5
20
-2.999999999999992
30
0
11
-342.5
21
0
31
0
0
LINE
5
149
100
AcDbEntity
8
0
100
AcDbLine
10
-247.5
20
0
30
0
11
-277.5
21
0
31
0
0
LINE
5
150
100
AcDbEntity
8
0
100
AcDbLine
10
-407.00000191988403
20
-69.99999548401361
30
0
11
-410.00000191988408
21
-69.99999539804864
31
0
0
LWPOLYLINE
5
151
100
AcDbEntity
8
0
100
AcDbPolyline
90
2
70
1
43
0.0
10
-247.5
20
-3.0000000000000004
10
-247.5
20
0
0
LINE
5
152
100
AcDbEntity
8
0
100
AcDbLine
10
-212.9992159101138
20
-40.002000000000002
30
0
11
-212.9992159101138
21
-3.0000000000000004
31
0
0
LINE
5
153
100
AcDbEntity
8
0
100
AcDbLine
10
-212.9992159101138
20
-70.000001043081284
30
0
11
-212.9992159101138
21
-70.001999999999995
31
0
0
LINE
5
154
100
AcDbEntity
8
0
100
AcDbLine
10
-209.99921591011378
20
-40.002000000000002
30
0
11
-209.99921591011378
21
-55.002000000000002
31
0
0
LINE
5
155
100
AcDbEntity
8
0
100
AcDbLine
10
-247.5
20
-3.0000000000000004
30
0
11
-212.9992159101138
21
-3.0000000000000004
31
0
0
LINE
5
156
100
AcDbEntity
8
0
100
AcDbLine
10
-407.00000191988403
20
-69.99999548401361
30
0
11
-407.00000191994138
21
-70.001994440909868
31
0
0
LINE
5
157
100
AcDbEntity
8
0
100
AcDbLine
10
-277.5
20
-110.0039613717373
30
0
11
-277.5
21
-107.00396137173729
31
0
0
LWPOLYLINE
5
158
100
AcDbEntity
8
0
100
AcDbPolyline
90
2
70
1
43
0.0
10
-372.5
20
-110
10
-342.5
20
-110
0
LINE
5
159
100
AcDbEntity
8
0
100
AcDbLine
10
-342.5
20
-2.999999999999992
30
0
11
-277.5
21
-2.9999999999999964
31
0
0
LINE
5
160
100
AcDbEntity
8
0
100
AcDbLine
10
-209.99921591011378
20
-40.002000000000002
30
0
11
-212.9992159101138
21
-40.002000000000002
31
0
0
LINE
5
161
100
AcDbEntity
8
0
100
AcDbLine
10
-342.5
20
-110.0039613717373
30
0
11
-342.5
21
-107.00396137173729
31
0
0
LWPOLYLINE
5
162
100
AcDbEntity
8
0
100
AcDbPolyline
90
2
70
1
43
0.0
10
-372.5
20
-107.00396137173728
10
-372.5
20
-110.00396137173729
0
LINE
5
163
100
AcDbEntity
8
0
100
AcDbLine
10
-372.5
20
-107.00396137173728
30
0
11
-407.00000191994138
21
-107.00396137173729
31
0
0
LWPOLYLINE
5
164
100
AcDbEntity
8
0
100
AcDbPolyline
90
2
70
1
43
0.0
10
-277.5
20
-110
10
-247.5
20
-110
0
LINE
5
165
100
AcDbEntity
8
0
100
AcDbLine
10
-247.5
20
-107.00396137173729
30
0
11
-210
21
-107.00396137173729
31
0
0
LINE
5
166
100
AcDbEntity
8
0
100
AcDbLine
10
-342.5
20
-107.00396137173729
30
0
11
-277.5
21
-107.00396137173729
31
0
0
LINE
5
167
100
AcDbEntity
8
0
100
AcDbLine
10
-247.5
20
-110.0039613717373
30
0
11
-247.5
21
-107.00396137173729
31
0
0
LWPOLYLINE
5
168
100
AcDbEntity
8
0
100
AcDbPolyline
90
2
70
1
43
0.0
10
-372.5
20
0
10
-372.5
20
-3.0000000000000004
0
ENDSEC
0
SECTION
2
OBJECTS
0
DICTIONARY
5
C
100
AcDbDictionary
3
ACAD_GROUP
350
D
3
ACAD_MLINESTYLE
350
17
0
DICTIONARY
5
D
100
AcDbDictionary
0
DICTIONARY
5
1A
330
C
100
AcDbDictionary
0
DICTIONARY
5
17
100
AcDbDictionary
0
ENDSEC
0
EOF
