<?xml version="1.0" encoding="UTF-8" standalone="no"?>
<!-- Created with Inkscape (http://www.inkscape.org/) -->

<svg
   width="210mm"
   height="297mm"
   viewBox="0 0 210 297"
   version="1.1"
   id="svg5"
   xml:space="preserve"
   inkscape:export-filename="FINAL_CHESS_PIECE.svg"
   inkscape:export-xdpi="96"
   inkscape:export-ydpi="96"
   inkscape:version="1.2.2 (b0a8486, 2022-12-01)"
   sodipodi:docname="FINAL_CHESS_PIECE.svg"
   xmlns:inkscape="http://www.inkscape.org/namespaces/inkscape"
   xmlns:sodipodi="http://sodipodi.sourceforge.net/DTD/sodipodi-0.dtd"
   xmlns="http://www.w3.org/2000/svg"
   xmlns:svg="http://www.w3.org/2000/svg"><sodipodi:namedview
     id="namedview7"
     pagecolor="#ffffff"
     bordercolor="#000000"
     borderopacity="0.25"
     inkscape:showpageshadow="2"
     inkscape:pageopacity="0.0"
     inkscape:pagecheckerboard="0"
     inkscape:deskcolor="#d1d1d1"
     inkscape:document-units="mm"
     showgrid="false"
     inkscape:zoom="0.2102413"
     inkscape:cx="-168.8536"
     inkscape:cy="561.25984"
     inkscape:window-width="1309"
     inkscape:window-height="456"
     inkscape:window-x="0"
     inkscape:window-y="37"
     inkscape:window-maximized="0"
     inkscape:current-layer="layer1" /><defs
     id="defs2" /><g
     inkscape:label="Layer 1"
     inkscape:groupmode="layer"
     id="layer1"><path
       style="fill:#000000;stroke-width:0.190114"
       d="m 71.852797,211.11394 -0.80129,-0.75466 0.0923,-4.61607 c 0.0822,-4.11304 0.14436,-4.82323 0.57025,-6.5172 0.26288,-1.04563 0.61903,-2.28612 0.79145,-2.75665 0.38964,-1.06337 2.04787,-4.41776 2.36016,-4.77433 0.12702,-0.14504 0.57722,-0.73423 1.00044,-1.30932 0.8123,-1.10379 2.34892,-2.67153 3.77524,-3.85169 0.90732,-0.75074 2.22618,-1.66162 2.40584,-1.66162 0.0592,0 0.53282,-0.27555 1.05255,-0.61232 0.86312,-0.55929 0.93511,-0.6616 0.83117,-1.18134 -0.0626,-0.31296 -0.32617,-0.79067 -0.58571,-1.06158 -0.25955,-0.27091 -0.47191,-0.5667 -0.47191,-0.65731 0,-0.0906 -0.11552,-0.2998 -0.25671,-0.46488 -0.14119,-0.16508 -0.49473,-1.0604 -0.78564,-1.9896 -0.46101,-1.47255 -0.51477,-1.8875 -0.41869,-3.23194 0.15964,-2.23383 1.01485,-4.62137 2.02176,-5.64422 0.16213,-0.16471 0.46589,-0.53075 0.67502,-0.81342 1.05051,-1.41996 4.72517,-3.1607 6.67775,-3.16336 1.69711,-0.002 2.11812,-0.16553 2.71739,-1.05347 0.30189,-0.44732 0.60324,-0.98454 0.66966,-1.19382 0.0664,-0.20928 0.24584,-0.4285 0.39871,-0.48716 0.15286,-0.0587 0.27793,-0.19339 0.27793,-0.29941 0,-0.16181 1.75581,-2.92095 2.24407,-3.5264 0.0843,-0.10456 0.47993,-0.83175 0.87914,-1.61597 0.3992,-0.78422 0.84363,-1.59461 0.98762,-1.80086 0.14399,-0.20625 0.26258,-0.50568 0.26353,-0.6654 9.5e-4,-0.15972 0.21216,-0.71815 0.46934,-1.24096 0.25718,-0.52282 0.470283,-1.10454 0.473553,-1.29272 0.003,-0.18817 0.1392,-0.59982 0.30206,-0.91476 0.16286,-0.31495 0.41547,-1.23038 0.56134,-2.03429 0.14587,-0.80391 0.36769,-1.76109 0.49293,-2.12706 0.33274,-0.97234 0.48078,-12.45886 0.16547,-12.83879 -0.12739,-0.15349 -0.49918,-0.27821 -0.82621,-0.27715 -0.32702,0.001 -1.150673,-0.18023 -1.830333,-0.40285 -2.33415,-0.76456 -3.12011,-1.23765 -4.46768,-2.68921 -1.39548,-1.50316 -1.82033,-2.19097 -2.39285,-3.87387 -0.86314,-2.53721 -0.52326,-5.62816 0.89588,-8.14737 0.73105,-1.29773 2.63977,-3.13083 3.88691,-3.73291 2.32624,-1.12303 3.182083,-1.29787 6.379563,-1.30327 3.67544,-0.006 3.71369,-0.0661 1.44214,-2.2569 -2.44315,-2.35634 -3.68617,-4.05378 -5.241943,-7.15828 -1.38492,-2.7636 -1.89778,-4.4893 -2.59901,-8.745252 -0.29608,-1.796983 -0.19351,-4.146368 0.3033,-6.946815 0.26822,-1.511951 0.60344,-2.983407 0.74493,-3.269901 0.14149,-0.286497 0.318,-0.799805 0.39224,-1.140685 0.18297,-0.840078 1.57076,-3.663597 2.209453,-4.495234 0.19152,-0.249367 0.34821,-0.526669 0.34821,-0.616226 0,-0.307426 2.86772,-3.832006 3.70722,-4.556376 0.10457,-0.09022 0.59925,-0.523822 1.09931,-0.963554 0.50006,-0.439733 1.1088,-0.933553 1.35276,-1.097376 0.24396,-0.163825 0.77589,-0.520259 1.18206,-0.792076 1.37845,-0.922479 4.34657,-2.394774 5.29871,-2.628349 0.52142,-0.127914 1.03473,-0.30252 1.14068,-0.388012 0.10595,-0.08549 0.70595,-0.255329 1.33333,-0.377414 0.62737,-0.122084 1.69676,-0.351507 2.37642,-0.509828 2.59775,-0.605124 9.85567,-0.0053 11.78707,0.974119 0.2614,0.132562 0.77471,0.303621 1.14068,0.380133 0.36597,0.07651 0.79373,0.2478 0.95057,0.380638 0.15685,0.13284 0.49905,0.306367 0.76046,0.385618 0.68555,0.207838 3.80228,1.98765 3.80228,2.171296 0,0.08522 0.23527,0.253185 0.52281,0.373261 1.08277,0.452156 5.75048,5.395825 6.32002,6.693667 0.10946,0.249443 0.45257,0.838514 0.76247,1.309046 0.30989,0.470532 0.61209,0.98384 0.67155,1.140684 0.0595,0.156844 0.26974,0.627377 0.46729,1.045628 0.6317,1.337391 1.27921,3.549464 1.70533,5.825874 0.34358,1.83546 0.40157,2.712531 0.33943,5.13308 -0.0412,1.605656 -0.18437,3.432681 -0.31811,4.060057 -0.54707,2.566387 -1.57734,5.578077 -2.30878,6.749047 -0.098,0.15685 -0.26905,0.4979 -0.38018,0.7579 -0.27948,0.65388 -2.18817,3.50148 -2.54606,3.79851 -0.16104,0.13365 -0.29281,0.31864 -0.29281,0.41108 0,0.18958 -1.94942,2.14566 -3.00775,3.01803 -0.57615,0.47491 -0.65964,0.62985 -0.48721,0.90407 0.17958,0.28558 0.64835,0.34596 3.41998,0.4405 2.48989,0.0849 3.34007,0.18082 3.78221,0.42659 0.31369,0.17436 0.67472,0.31755 0.8023,0.3182 0.12757,5.7e-4 0.76367,0.27137 1.41354,0.60161 1.12282,0.57057 3.58264,2.79017 3.58264,3.23276 0,0.10755 0.15696,0.42264 0.3488,0.70019 0.63734,0.92205 1.23932,3.22106 1.24792,4.76592 0.009,1.54452 -0.78493,4.52218 -1.32446,4.96996 -0.14975,0.12427 -0.27226,0.34342 -0.27226,0.48698 0,0.33945 -2.71153,3.11447 -3.04322,3.11447 -0.13961,0 -0.3889,0.11275 -0.55398,0.25056 -0.42402,0.35397 -3.27585,1.27035 -3.95342,1.27035 -1.06021,0 -1.15348,0.3153 -1.18097,3.9924 -0.0294,3.93285 0.2665,8.49518 0.62886,9.69582 0.14201,0.47053 0.35719,1.3847 0.47816,2.03148 0.12099,0.64679 0.34555,1.41675 0.49904,1.71103 0.15349,0.29428 0.27961,0.70851 0.28025,0.92051 5.7e-4,0.212 0.11732,0.5542 0.25929,0.76045 0.14197,0.20625 0.36942,0.71721 0.50546,1.13546 0.3045,0.93623 1.92424,4.03716 2.72925,5.22506 0.32704,0.4826 0.68017,1.01092 0.78474,1.17405 0.10456,0.16313 0.35496,0.54387 0.55645,0.84609 0.20149,0.30221 0.82027,1.24492 1.37508,2.0949 1.10193,1.68818 1.24811,1.77495 2.99714,1.77898 0.70849,0.002 1.64934,0.18309 2.53592,0.4891 1.42744,0.49269 3.65377,1.88885 4.28955,2.69005 0.19102,0.24071 0.45033,0.54414 0.57624,0.67428 0.43362,0.44819 1.11503,1.75719 1.60673,3.08659 0.41508,1.12222 0.49043,1.6326 0.4774,3.23368 -0.0111,1.36273 -0.10233,2.06266 -0.32218,2.47148 -0.1687,0.31369 -0.30725,0.70732 -0.30789,0.87473 -0.002,0.39985 -0.85826,2.0011 -1.44151,2.69426 -0.71393,0.84845 -0.60591,1.31097 0.46879,2.00736 0.51128,0.33129 0.97802,0.60236 1.03719,0.60236 0.19247,0 1.52823,0.95319 2.47949,1.76934 1.49654,1.28399 2.06428,1.85724 3.26278,3.29444 1.52757,1.83182 1.79665,2.20006 1.79665,2.45875 0,0.12148 0.15866,0.42489 0.35258,0.67426 0.19392,0.24937 0.45495,0.76737 0.58006,1.15112 0.12512,0.38374 0.34249,0.79316 0.48305,0.90981 0.14056,0.11666 0.31494,0.52987 0.38751,0.91825 0.0726,0.38839 0.21435,0.80589 0.31505,0.92779 0.1635,0.19791 0.69192,2.46204 1.12409,4.81639 0.18815,1.02496 0.20782,8.13536 0.0238,8.58717 -0.0711,0.17446 -0.4618,0.58083 -0.86829,0.90304 l -0.73907,0.58583 H 122.22422 72.654097 Z m 96.764353,-4.28633 c 0.17825,-0.21478 0.21502,-1.00128 0.14444,-3.08935 -0.0993,-2.93808 -0.37661,-4.20416 -1.40879,-6.43239 -0.24702,-0.53326 -0.44913,-1.06184 -0.44913,-1.17463 0,-0.11279 -0.10983,-0.31812 -0.24407,-0.45629 -0.13423,-0.13817 -0.47453,-0.64818 -0.75621,-1.13335 -0.87232,-1.50248 -3.12982,-3.93419 -4.49146,-4.83806 -1.77434,-1.17783 -2.78803,-1.77481 -3.02573,-1.78192 -0.13613,-0.004 -0.56388,-0.17329 -0.95057,-0.37604 -0.38669,-0.20275 -1.30192,-0.56634 -2.03386,-0.80798 l -1.3308,-0.43935 h -31.93916 c -28.946543,0 -31.992603,0.0286 -32.509503,0.30494 -0.31369,0.16771 -0.96233,0.40059 -1.44143,0.5175 -0.79851,0.19486 -3.85713,1.66498 -4.40837,2.11886 -0.12862,0.10591 -0.70438,0.56743 -1.27948,1.0256 -0.98566,0.78528 -1.4382,1.25288 -3.04182,3.14312 -0.85221,1.00453 -2.5993,4.33427 -2.7708,5.28082 -0.0725,0.39987 -0.26492,0.98369 -0.42772,1.29738 -0.39709,0.76516 -0.58109,6.41327 -0.22299,6.84476 0.20846,0.25117 5.63286,0.28451 46.292233,0.28451 40.91725,0 46.08278,-0.0322 46.29522,-0.28813 z m -13.02527,-25.93943 c 0.99892,-0.61359 1.7754,-1.4272 2.3665,-2.47966 0.40172,-0.71526 0.48088,-1.10485 0.48285,-2.37643 0.002,-1.31893 -0.0662,-1.6353 -0.51411,-2.38231 -0.76848,-1.28171 -1.6406,-2.0552 -2.99987,-2.66062 -0.34194,-0.1523 -9.4861,-0.21258 -32.73099,-0.21575 l -32.256483,-0.004 -0.91919,0.53345 c -1.96297,1.13921 -2.75601,2.36835 -2.87705,4.45914 -0.0731,1.26257 -0.0216,1.61268 0.35258,2.3955 0.65113,1.36242 2.14332,2.73054 3.39493,3.11266 0.27045,0.0826 14.992673,0.1356 32.716053,0.11783 l 32.22433,-0.0323 z M 145.24316,165.8543 c 0.20226,-0.10824 0.36773,-0.33271 0.36773,-0.49881 0,-0.16611 -0.54509,-1.12607 -1.21133,-2.13324 -1.35457,-2.04776 -2.58962,-4.29133 -3.18231,-5.7809 -1.70164,-4.27659 -2.05624,-5.51115 -2.82387,-9.83131 -0.32644,-1.83713 -0.38837,-2.98856 -0.38777,-7.20937 5.8e-4,-4.40786 -0.0378,-5.06563 -0.31391,-5.37072 -0.29981,-0.33128 -1.02342,-0.34753 -15.35171,-0.34476 -9.12412,0.002 -15.14921,0.0737 -15.32224,0.18284 -0.23878,0.15066 -0.30351,1.10123 -0.39787,5.8431 -0.0819,4.11389 -0.19464,6.02723 -0.41228,6.99397 -0.16477,0.73194 -0.38712,1.80133 -0.4941,2.37642 -0.26936,1.448 -0.9764,4.04682 -1.16365,4.27714 -0.0852,0.1048 -0.28166,0.6183 -0.43658,1.14111 -0.3161,1.06679 -1.74454,4.30948 -2.21929,5.03803 -0.38934,0.59746 -0.67875,1.08063 -1.08183,1.80608 -0.17429,0.31369 -0.63036,0.9981 -1.013503,1.52091 -0.95496,1.30312 -1.02269,1.54757 -0.52532,1.89594 0.36616,0.25647 3.052773,0.29037 23.008343,0.29037 15.21089,0 22.71393,-0.0643 22.96149,-0.1968 z m 0.27268,-36.58578 c 1.06664,-0.63495 1.38384,-0.96084 2.13239,-2.1908 0.45622,-0.74963 0.51983,-1.04572 0.514,-2.39233 -0.006,-1.34056 -0.0762,-1.65618 -0.55145,-2.47148 -0.5708,-0.97928 -1.41712,-1.9803 -1.67427,-1.9803 -0.083,0 -0.41123,-0.19249 -0.72942,-0.42775 l -0.57852,-0.42776 -22.07598,-0.0507 -22.07597,-0.0507 -0.992953,0.50239 c -1.9398,0.98145 -3.11231,2.76413 -3.11231,4.73195 0,1.23089 0.2736,2.2949 0.70013,2.72276 0.13774,0.13817 0.25044,0.31907 0.25044,0.40199 0,0.27935 1.03973,1.28228 1.80608,1.74216 l 0.76046,0.45633 20.247143,0.0951 c 11.13593,0.0523 21.18821,0.0523 22.3384,0 1.89042,-0.0859 2.18255,-0.1494 3.04183,-0.66091 z m -19.39163,-15.01639 c 2.52045,-0.58488 3.33179,-0.82204 3.75022,-1.0962 0.24082,-0.1578 0.71367,-0.34748 1.05076,-0.42152 0.3371,-0.074 0.66021,-0.21115 0.71802,-0.30469 0.0578,-0.0935 0.48655,-0.3388 0.95275,-0.54502 0.4662,-0.20622 0.84764,-0.45604 0.84764,-0.55515 0,-0.0991 0.21387,-0.23387 0.47528,-0.29948 0.26141,-0.0656 0.47529,-0.20101 0.47529,-0.3009 0,-0.0999 0.23888,-0.30514 0.53084,-0.45612 0.61954,-0.32038 2.83823,-2.47647 3.59926,-3.49771 0.28904,-0.38787 0.56903,-0.748 0.6222,-0.80028 0.74263,-0.73022 3.04237,-5.28902 3.04237,-6.030938 0,-0.193084 0.1811,-0.861405 0.40244,-1.485158 0.34783,-0.98019 0.40483,-1.585593 0.42004,-4.461092 0.0107,-2.026116 -0.0691,-3.62434 -0.20409,-4.087452 -0.12192,-0.418251 -0.35963,-1.313357 -0.52824,-1.989125 -0.16861,-0.675769 -0.42324,-1.445731 -0.56586,-1.711027 -0.14261,-0.265297 -0.56142,-1.132386 -0.93068,-1.926865 -0.36925,-0.794481 -0.80273,-1.553531 -0.96329,-1.686778 -0.16055,-0.133247 -0.29191,-0.328283 -0.29191,-0.433412 0,-0.66039 -5.00372,-5.655835 -5.6652,-5.655835 -0.1,0 -0.28123,-0.119821 -0.40277,-0.26627 -0.19249,-0.231939 -1.93963,-1.13468 -3.72291,-1.923616 -1.46133,-0.646504 -3.37961,-1.086154 -5.32319,-1.220017 -2.54616,-0.175367 -5.97786,0.04103 -7.10565,0.448065 -0.45754,0.165133 -0.96522,0.300241 -1.12819,0.300241 -0.16296,0 -0.64413,0.160206 -1.06925,0.356014 -2.46939,1.137374 -3.7833,1.77669 -3.97635,1.934788 -0.12026,0.09848 -0.90987,0.727141 -1.75469,1.397014 -2.21299,1.754722 -4.40939,4.35812 -5.46973,6.483287 -0.74701,1.497184 -1.45431,3.16062 -1.45431,3.42026 0,0.130588 -0.17918,0.783272 -0.39817,1.450411 -0.68971,2.101112 -0.69243,8.892426 -0.004,9.748211 0.0929,0.115508 0.23254,0.594996 0.31025,1.065529 0.15952,0.965945 1.65263,4.230635 2.52362,5.517895 1.01382,1.49836 2.76529,3.4656 3.84196,4.31526 0.5751,0.45384 1.17108,0.92869 1.3244,1.05522 0.55882,0.46119 1.63612,1.15149 2.19271,1.40502 0.31369,0.1429 0.69867,0.33803 0.85552,0.43363 0.70144,0.42756 2.2437,1.04839 3.2162,1.29466 0.58375,0.14782 1.48912,0.38264 2.01193,0.52182 1.30525,0.34747 6.30862,0.35218 7.79468,0.007 z"
       id="path302" /></g></svg>
