<?xml version="1.0" encoding="UTF-8" standalone="no"?>
<!-- Created with Inkscape (http://www.inkscape.org/) -->

<svg
   width="210mm"
   height="297mm"
   viewBox="0 0 210 297"
   version="1.1"
   id="svg5"
   xml:space="preserve"
   inkscape:export-filename="okfinalchess.svg"
   inkscape:export-xdpi="96"
   inkscape:export-ydpi="96"
   inkscape:version="1.2.2 (b0a8486, 2022-12-01)"
   sodipodi:docname="okfinalchess.svg"
   xmlns:inkscape="http://www.inkscape.org/namespaces/inkscape"
   xmlns:sodipodi="http://sodipodi.sourceforge.net/DTD/sodipodi-0.dtd"
   xmlns="http://www.w3.org/2000/svg"
   xmlns:svg="http://www.w3.org/2000/svg"><sodipodi:namedview
     id="namedview7"
     pagecolor="#ffffff"
     bordercolor="#000000"
     borderopacity="0.25"
     inkscape:showpageshadow="2"
     inkscape:pageopacity="0.0"
     inkscape:pagecheckerboard="0"
     inkscape:deskcolor="#d1d1d1"
     inkscape:document-units="mm"
     showgrid="false"
     inkscape:zoom="0.2102413"
     inkscape:cx="-168.8536"
     inkscape:cy="561.25984"
     inkscape:window-width="1309"
     inkscape:window-height="460"
     inkscape:window-x="0"
     inkscape:window-y="37"
     inkscape:window-maximized="0"
     inkscape:current-layer="layer1" /><defs
     id="defs2" /><g
     inkscape:label="Layer 1"
     inkscape:groupmode="layer"
     id="layer1"><path
       style="fill:#000000;stroke-width:0.352778"
       d="m 29.173678,261.53578 c -0.398663,-0.16146 -1.218385,-0.85567 -1.821601,-1.5427 -1.337289,-1.52309 -1.670306,-3.83708 -1.448305,-10.06368 0.175934,-4.9345 0.685114,-6.14213 3.107431,-7.36993 1.322307,-0.67023 2.130743,-0.79375 5.195401,-0.79375 h 3.629417 l -0.719642,-0.71964 c -0.395807,-0.3958 -0.872057,-1.12051 -1.058334,-1.61046 -0.18978,-0.49916 -0.338691,-5.66609 -0.338691,-11.7518 0,-10.68249 0.01305,-10.88014 0.79375,-12.02724 1.544105,-2.26876 2.311347,-2.58066 6.767703,-2.75124 3.558455,-0.13621 3.981027,-0.21698 3.524338,-0.67367 -2.339343,-2.33934 -1.885516,-5.82565 1.043348,-8.01498 0.802103,-0.59958 1.605417,-0.74809 4.572635,-0.84537 l 3.599589,-0.118 4.872079,-22.81255 c 2.679643,-12.5469 4.955296,-23.16973 5.057006,-23.6063 l 0.184929,-0.79375 H 57.5056 c -8.368992,0 -8.664183,-0.0239 -9.791981,-0.79375 -3.357429,-2.29174 -3.159383,-6.81707 0.389833,-8.90764 1.109567,-0.65355 1.947714,-0.71386 11.372634,-0.81821 l 10.174789,-0.11266 -2.072055,-2.18039 c -4.582124,-4.82172 -7.368783,-9.12691 -9.596529,-14.82597 -3.773384,-9.65312 -3.96574,-21.05159 -0.517278,-30.652149 3.759676,-10.46699 11.652691,-19.416179 21.469619,-24.342492 11.019382,-5.529726 24.181528,-6.139363 35.661788,-1.651762 13.28167,5.191767 22.78119,16.046958 26.49843,30.280003 1.19533,4.57685 1.4889,12.39688 0.65611,17.47741 -1.45153,8.85515 -5.71937,17.24742 -12.02601,23.64788 l -2.21612,2.2491 10.28512,0.11184 c 9.59636,0.10436 10.36697,0.15993 11.50736,0.82989 3.39992,1.99737 3.43955,7.08872 0.0706,9.07154 -0.92933,0.54697 -2.1389,0.61736 -10.6077,0.61736 -5.25732,0 -9.56025,0.11907 -9.56206,0.26459 -0.002,0.14552 2.24889,10.78177 5.00154,23.63611 l 5.00482,23.37153 h 4.18202 c 4.78345,0 6.08139,0.37884 7.42561,2.16742 1.58521,2.10924 1.54195,4.73717 -0.10688,6.49227 l -0.73804,0.78561 3.81641,0.13132 c 4.18416,0.14398 5.54267,0.63842 6.95455,2.53118 0.70943,0.95105 0.7472,1.46068 0.84964,11.46527 0.059,5.75849 0.013,10.98125 -0.10223,11.60612 -0.1152,0.62488 -0.61411,1.61707 -1.10871,2.20487 l -0.89927,1.06871 h 3.62415 c 2.92302,0 3.90162,0.13749 5.05844,0.71069 2.68983,1.33279 2.83234,1.77651 2.94413,9.16709 0.0912,6.03187 0.0447,6.61351 -0.61414,7.67614 -0.39207,0.63237 -1.23024,1.46521 -1.86261,1.85077 -1.1372,0.69336 -1.90034,0.70078 -69.941416,0.67997 -37.835414,-0.0116 -69.117842,-0.15314 -69.516506,-0.3146 z"
       id="path302" /></g></svg>
